<?xml version="1.0" standalone="no"?>
<!DOCTYPE svg PUBLIC "-//W3C//DTD SVG 1.1//EN" "http://www.w3.org/Graphics/SVG/1.1/DTD/svg11.dtd" >
<svg xmlns="http://www.w3.org/2000/svg" xmlns:xlink="http://www.w3.org/1999/xlink" version="1.1">
<metadata>
Created by FontForge 20170910 at Fri Sep  7 15:55:45 2018
 By Jimmy Wärting
Copyright 2018 The KoHo Project Authors (https://github.com/cadsondemak/Koho)
</metadata>
<defs>
<font id="KoHo-Bold" horiz-adv-x="0" >
  <font-face 
    font-family="KoHo"
    font-weight="700"
    font-stretch="normal"
    units-per-em="1000"
    panose-1="0 0 8 0 0 0 0 0 0 0"
    ascent="800"
    descent="-200"
    x-height="470"
    cap-height="700"
    bbox="-684 -479 1329 1187"
    underline-thickness="50"
    underline-position="-100"
    unicode-range="U+000D-FB02"
  />
<missing-glyph horiz-adv-x="720" 
d="M92 999h536v-999h-536v999zM579 50v899h-439v-899h439z" />
    <glyph glyph-name="fi" unicode="fi" horiz-adv-x="596" 
d="M408 47.5q-20 33.5 -20 93.5v229h-186v-370h-130v534q0 100 56.5 153t160.5 53h49v-100h-49q-42 0 -64.5 -27.5t-22.5 -78.5v-64h316v-325q0 -27 10.5 -44t37.5 -37l-87 -76q-51 26 -71 59.5zM400 555q-22 22 -22 53q0 30 22 52.5t53 22.5q30 0 52.5 -22.5t22.5 -52.5
q0 -31 -22.5 -53t-52.5 -22q-31 0 -53 22z" />
    <glyph glyph-name="fl" unicode="fl" horiz-adv-x="619" 
d="M128.5 687q56.5 53 160.5 53h49v-100h-49q-42 0 -64.5 -27.5t-22.5 -78.5v-64h136v-100h-136v-370h-130v534q0 100 56.5 153zM556.5 101q10.5 -17 37.5 -37l-87 -76q-51 26 -71 59.5t-20 93.5v442q0 27 -10.5 44t-37.5 37l87 76q51 -26 71 -59.5t20 -93.5v-442
q0 -27 10.5 -44z" />
    <glyph glyph-name="uni0E240E45" unicode="&#xe24;&#xe45;" horiz-adv-x="973" 
d="M847.5 520q55.5 -48 55.5 -136v-634h-126v634q0 40 -23 62t-65 22q-41 0 -66.5 -12t-61.5 -53q9 -40 9 -91v-562h-126v562q0 79 -31.5 117.5t-96.5 38.5l-167 -2l105 -88v-57q-57 -24 -68 -81q5 1 15 1q44 0 70.5 -29t26.5 -78q0 -64 -35.5 -104t-91.5 -40
q-51 0 -80.5 28.5t-29.5 79.5v106q0 57 26 97t75 60v4l-117 103v100h271q128 0 191 -63q37 33 79.5 48t102.5 15q103 0 158.5 -48zM220 164.5q-8 12.5 -21 12.5q-21 0 -35 -23.5t-14 -58.5q0 -17 8 -29t21 -12q21 0 35 23t14 57q0 18 -8 30.5z" />
    <glyph glyph-name="uni0E260E45" unicode="&#xe26;&#xe45;" horiz-adv-x="1003" 
d="M877.5 520q55.5 -48 55.5 -136v-634h-126v634q0 40 -23 62t-65 22q-41 0 -67 -12.5t-62 -53.5q7 -29 7 -70v-581h-126v581q0 69 -37.5 102.5t-114.5 33.5l-166 -2l116 -96v-272q0 -51 -29.5 -79.5t-80.5 -28.5q-56 0 -91.5 40t-35.5 104q0 49 26.5 78t70.5 29q6 0 18 -2
v142l-99 87v100h271q146 0 216 -65q38 34 80.5 49.5t103.5 15.5q103 0 158.5 -48zM172 66q8 12 8 29q0 35 -14 58.5t-35 23.5q-13 0 -21 -12.5t-8 -30.5q0 -34 14 -57t35 -23q13 0 21 12z" />
    <glyph glyph-name=".notdef" horiz-adv-x="720" 
d="M92 999h536v-999h-536v999zM579 50v899h-439v-899h439z" />
    <glyph glyph-name="NULL" 
 />
    <glyph glyph-name="NULL" 
 />
    <glyph glyph-name="nonmarkingreturn" unicode="&#xd;" horiz-adv-x="280" 
 />
    <glyph glyph-name="space" unicode=" " horiz-adv-x="280" 
 />
    <glyph glyph-name="A" unicode="A" horiz-adv-x="690" 
d="M482 163h-274l-47 -163h-141l171 558q18 60 38 93t47.5 47t68.5 14t68 -14t47.5 -47t38.5 -93l171 -558h-141zM451 268l-84 288q-7 26 -22 26t-22 -26l-84 -288h212z" />
    <glyph glyph-name="Aacute" unicode="&#xc1;" horiz-adv-x="690" 
d="M482 163h-274l-47 -163h-141l171 558q18 60 38 93t47.5 47t68.5 14t68 -14t47.5 -47t38.5 -93l171 -558h-141zM451 268l-84 288q-7 26 -22 26t-22 -26l-84 -288h212zM364 922h136l-111 -157h-105z" />
    <glyph glyph-name="Abreve" unicode="&#x102;" horiz-adv-x="690" 
d="M482 163h-274l-47 -163h-141l171 558q18 60 38 93t47.5 47t68.5 14t68 -14t47.5 -47t38.5 -93l171 -558h-141zM451 268l-84 288q-7 26 -22 26t-22 -26l-84 -288h212zM223 800.5q-45 45.5 -45 121.5h93q3 -36 22 -56.5t52 -20.5t52.5 21t21.5 56h93q0 -76 -45.5 -121.5
t-121.5 -45.5q-77 0 -122 45.5z" />
    <glyph glyph-name="uni1EAE" unicode="&#x1eae;" horiz-adv-x="690" 
d="M482 163h-274l-47 -163h-141l171 558q18 60 38 93t47.5 47t68.5 14t68 -14t47.5 -47t38.5 -93l171 -558h-141zM451 268l-84 288q-7 26 -22 26t-22 -26l-84 -288h212zM352 1093h126l-94 -126h-95zM223.5 800.5q-45.5 45.5 -45.5 121.5h93q3 -36 22 -56.5t52 -20.5t52.5 21
t21.5 56h93q0 -76 -45 -121.5t-122 -45.5q-76 0 -121.5 45.5z" />
    <glyph glyph-name="uni1EB6" unicode="&#x1eb6;" horiz-adv-x="690" 
d="M482 163h-274l-47 -163h-141l171 558q18 60 38 93t47.5 47t68.5 14t68 -14t47.5 -47t38.5 -93l171 -558h-141zM451 268l-84 288q-7 26 -22 26t-22 -26l-84 -288h212zM294 -173q-21 21 -21 51q0 29 21 50.5t51 21.5q29 0 50.5 -21.5t21.5 -50.5q0 -30 -21.5 -51t-50.5 -21
q-30 0 -51 21zM223 800.5q-45 45.5 -45 121.5h93q3 -36 22 -56.5t52 -20.5t52.5 21t21.5 56h93q0 -76 -45.5 -121.5t-121.5 -45.5q-77 0 -122 45.5z" />
    <glyph glyph-name="uni1EB0" unicode="&#x1eb0;" horiz-adv-x="690" 
d="M482 163h-274l-47 -163h-141l171 558q18 60 38 93t47.5 47t68.5 14t68 -14t47.5 -47t38.5 -93l171 -558h-141zM451 268l-84 288q-7 26 -22 26t-22 -26l-84 -288h212zM207 1093h126l63 -126h-95zM223.5 800.5q-45.5 45.5 -45.5 121.5h93q3 -36 22 -56.5t52 -20.5t52.5 21
t21.5 56h93q0 -76 -45 -121.5t-122 -45.5q-76 0 -121.5 45.5z" />
    <glyph glyph-name="uni1EB2" unicode="&#x1eb2;" horiz-adv-x="690" 
d="M482 163h-274l-47 -163h-141l171 558q18 60 38 93t47.5 47t68.5 14t68 -14t47.5 -47t38.5 -93l171 -558h-141zM451 268l-84 288q-7 26 -22 26t-22 -26l-84 -288h212zM295 1058l-19 56q35 17 82 17q48 0 74 -20t26 -60q0 -32 -18.5 -50t-52.5 -27v-31h-76v66q73 6 73 33
q0 15 -9 21t-30 6t-50 -11zM512 922q0 -76 -45.5 -121.5t-121.5 -45.5t-121.5 45.5t-45.5 121.5h93q2 -35 21.5 -56t52.5 -21t52.5 21t21.5 56h93z" />
    <glyph glyph-name="uni1EB4" unicode="&#x1eb4;" horiz-adv-x="690" 
d="M482 163h-274l-47 -163h-141l171 558q18 60 38 93t47.5 47t68.5 14t68 -14t47.5 -47t38.5 -93l171 -558h-141zM451 268l-84 288q-7 26 -22 26t-22 -26l-84 -288h212zM213.5 1059q29.5 35 80.5 35q18 0 33.5 -5t34.5 -14q28 -14 43 -14q9 0 17 10.5t10 30.5h76
q-5 -50 -33 -85.5t-70 -35.5q-18 0 -33.5 5t-34.5 14q-28 14 -43 14q-12 0 -22 -10t-14 -31h-76q2 51 31.5 86zM223.5 800.5q-45.5 45.5 -45.5 121.5h93q3 -36 22 -56.5t52 -20.5t52.5 21t21.5 56h93q0 -76 -45 -121.5t-122 -45.5q-76 0 -121.5 45.5z" />
    <glyph glyph-name="uni01CD" unicode="&#x1cd;" horiz-adv-x="690" 
d="M482 163h-274l-47 -163h-141l171 558q18 60 38 93t47.5 47t68.5 14t68 -14t47.5 -47t38.5 -93l171 -558h-141zM451 268l-84 288q-7 26 -22 26t-22 -26l-84 -288h212zM228.5 855q-36.5 45 -62.5 69h114q40 -35 64 -74q24 39 64 74h114q-26 -24 -62.5 -69t-60.5 -90h-110
q-24 45 -60.5 90z" />
    <glyph glyph-name="Acircumflex" unicode="&#xc2;" horiz-adv-x="690" 
d="M482 163h-274l-47 -163h-141l171 558q18 60 38 93t47.5 47t68.5 14t68 -14t47.5 -47t38.5 -93l171 -558h-141zM451 268l-84 288q-7 26 -22 26t-22 -26l-84 -288h212zM228.5 834q36.5 45 60.5 90h110q24 -45 60.5 -90t62.5 -69h-114q-40 35 -64 74q-24 -39 -64 -74h-114
q26 24 62.5 69z" />
    <glyph glyph-name="uni1EA4" unicode="&#x1ea4;" horiz-adv-x="690" 
d="M482 163h-274l-47 -163h-141l171 558q18 60 38 93t47.5 47t68.5 14t68 -14t47.5 -47t38.5 -93l171 -558h-141zM451 268l-84 288q-7 26 -22 26t-22 -26l-84 -288h212zM524 996h126l-94 -126h-95zM228.5 834q36.5 45 60.5 90h110q24 -45 60.5 -90t62.5 -69h-114
q-40 35 -64 74q-24 -39 -64 -74h-114q26 24 62.5 69z" />
    <glyph glyph-name="uni1EAC" unicode="&#x1eac;" horiz-adv-x="690" 
d="M482 163h-274l-47 -163h-141l171 558q18 60 38 93t47.5 47t68.5 14t68 -14t47.5 -47t38.5 -93l171 -558h-141zM451 268l-84 288q-7 26 -22 26t-22 -26l-84 -288h212zM294 -173q-21 21 -21 51q0 29 21 50.5t51 21.5q29 0 50.5 -21.5t21.5 -50.5q0 -30 -21.5 -51t-50.5 -21
q-30 0 -51 21zM228.5 834q36.5 45 60.5 90h110q24 -45 60.5 -90t62.5 -69h-114q-40 35 -64 74q-24 -39 -64 -74h-114q26 24 62.5 69z" />
    <glyph glyph-name="uni1EA6" unicode="&#x1ea6;" horiz-adv-x="690" 
d="M482 163h-274l-47 -163h-141l171 558q18 60 38 93t47.5 47t68.5 14t68 -14t47.5 -47t38.5 -93l171 -558h-141zM451 268l-84 288q-7 26 -22 26t-22 -26l-84 -288h212zM406 996h126l63 -126h-95zM228.5 834q36.5 45 60.5 90h110q24 -45 60.5 -90t62.5 -69h-114
q-40 35 -64 74q-24 -39 -64 -74h-114q26 24 62.5 69z" />
    <glyph glyph-name="uni1EA8" unicode="&#x1ea8;" horiz-adv-x="690" 
d="M482 163h-274l-47 -163h-141l171 558q18 60 38 93t47.5 47t68.5 14t68 -14t47.5 -47t38.5 -93l171 -558h-141zM451 268l-84 288q-7 26 -22 26t-22 -26l-84 -288h212zM612.5 919q-18.5 -18 -52.5 -27v-31h-76v66q73 6 73 33q0 15 -9 21t-30 6t-50 -11l-19 56q35 17 82 17
q48 0 74 -20t26 -60q0 -32 -18.5 -50zM459.5 834q36.5 -45 62.5 -69h-114q-40 35 -64 74q-24 -39 -64 -74h-114q26 24 62.5 69t60.5 90h110q24 -45 60.5 -90z" />
    <glyph glyph-name="uni1EAA" unicode="&#x1eaa;" horiz-adv-x="690" 
d="M482 163h-274l-47 -163h-141l171 558q18 60 38 93t47.5 47t68.5 14t68 -14t47.5 -47t38.5 -93l171 -558h-141zM451 268l-84 288q-7 26 -22 26t-22 -26l-84 -288h212zM213.5 1043q29.5 35 80.5 35q18 0 33.5 -5t34.5 -14q28 -14 43 -14q9 0 17 10.5t10 30.5h76
q-5 -50 -33 -85.5t-70 -35.5q-18 0 -33.5 5t-34.5 14q-28 14 -43 14q-12 0 -22 -10t-14 -31h-76q2 51 31.5 86zM228.5 834q36.5 45 60.5 90h110q24 -45 60.5 -90t62.5 -69h-114q-40 35 -64 74q-24 -39 -64 -74h-114q26 24 62.5 69z" />
    <glyph glyph-name="Adieresis" unicode="&#xc4;" horiz-adv-x="690" 
d="M482 163h-274l-47 -163h-141l171 558q18 60 38 93t47.5 47t68.5 14t68 -14t47.5 -47t38.5 -93l171 -558h-141zM451 268l-84 288q-7 26 -22 26t-22 -26l-84 -288h212zM211 776q-19 19 -19 45t19 44.5t45 18.5q25 0 44 -18.5t19 -44.5t-18.5 -45t-44.5 -19t-45 19z
M389.5 776q-18.5 19 -18.5 45t18.5 44.5t45.5 18.5q26 0 45 -19t19 -44q0 -26 -19 -45t-45 -19q-27 0 -45.5 19z" />
    <glyph glyph-name="uni1EA0" unicode="&#x1ea0;" horiz-adv-x="690" 
d="M482 163h-274l-47 -163h-141l171 558q18 60 38 93t47.5 47t68.5 14t68 -14t47.5 -47t38.5 -93l171 -558h-141zM451 268l-84 288q-7 26 -22 26t-22 -26l-84 -288h212zM294 -173q-21 21 -21 51q0 29 21 50.5t51 21.5q29 0 50.5 -21.5t21.5 -50.5q0 -30 -21.5 -51t-50.5 -21
q-30 0 -51 21z" />
    <glyph glyph-name="Agrave" unicode="&#xc0;" horiz-adv-x="690" 
d="M482 163h-274l-47 -163h-141l171 558q18 60 38 93t47.5 47t68.5 14t68 -14t47.5 -47t38.5 -93l171 -558h-141zM451 268l-84 288q-7 26 -22 26t-22 -26l-84 -288h212zM184 922h136l80 -157h-105z" />
    <glyph glyph-name="uni1EA2" unicode="&#x1ea2;" horiz-adv-x="690" 
d="M482 163h-274l-47 -163h-141l171 558q18 60 38 93t47.5 47t68.5 14t68 -14t47.5 -47t38.5 -93l171 -558h-141zM451 268l-84 288q-7 26 -22 26t-22 -26l-84 -288h212zM385 802v-37h-93v81q48 4 69 13.5t21 27.5q0 17 -11.5 24.5t-35.5 7.5q-29 0 -62 -14l-22 69
q43 21 99 21q63 0 97 -24.5t34 -73.5q0 -72 -96 -95z" />
    <glyph glyph-name="Amacron" unicode="&#x100;" horiz-adv-x="690" 
d="M482 163h-274l-47 -163h-141l171 558q18 60 38 93t47.5 47t68.5 14t68 -14t47.5 -47t38.5 -93l171 -558h-141zM451 268l-84 288q-7 26 -22 26t-22 -26l-84 -288h212zM184 867h322v-90h-322v90z" />
    <glyph glyph-name="Aogonek" unicode="&#x104;" horiz-adv-x="690" 
d="M737 -208q-40 -26 -88 -26q-80 0 -114.5 34t-34.5 77q0 34 14 64t45 59h-30l-47 163h-274l-47 -163h-141l171 558q18 60 38 93t47.5 47t68.5 14t68 -14t47.5 -47t38.5 -93l171 -558h-19q-42 -53 -42 -103q0 -24 14.5 -35.5t37.5 -11.5t54 13zM451 268l-84 288
q-7 26 -22 26t-22 -26l-84 -288h212z" />
    <glyph glyph-name="Aring" unicode="&#xc5;" horiz-adv-x="690" 
d="M482 163h-274l-47 -163h-141l171 558q18 60 38 93t47.5 47t68.5 14t68 -14t47.5 -47t38.5 -93l171 -558h-141zM451 268l-84 288q-7 26 -22 26t-22 -26l-84 -288h212zM262 780.5q-31 28.5 -31 75.5t31 75.5t83 28.5t83 -28.5t31 -75.5t-31 -75.5t-83 -28.5t-83 28.5z
M375.5 826q11.5 11 11.5 30t-11.5 30t-30.5 11t-30.5 -11t-11.5 -30t11.5 -30t30.5 -11t30.5 11z" />
    <glyph glyph-name="Aringacute" unicode="&#x1fa;" horiz-adv-x="690" 
d="M384 1003h-105l80 126h136zM262 780.5q-31 28.5 -31 75.5t31 75.5t83 28.5t83 -28.5t31 -75.5t-31 -75.5t-83 -28.5t-83 28.5zM314.5 886q-11.5 -11 -11.5 -30t11.5 -30t30.5 -11t30.5 11t11.5 30t-11.5 30t-30.5 11t-30.5 -11zM482 163h-274l-47 -163h-141l171 558
q18 60 38 93t47.5 47t68.5 14t68 -14t47.5 -47t38.5 -93l171 -558h-141zM451 268l-84 288q-7 26 -22 26t-22 -26l-84 -288h212z" />
    <glyph glyph-name="Atilde" unicode="&#xc3;" horiz-adv-x="690" 
d="M482 163h-274l-47 -163h-141l171 558q18 60 38 93t47.5 47t68.5 14t68 -14t47.5 -47t38.5 -93l171 -558h-141zM451 268l-84 288q-7 26 -22 26t-22 -26l-84 -288h212zM203.5 868q29.5 41 85.5 41q20 0 37 -6t38 -17q3 -1 18.5 -8.5t28.5 -7.5q19 0 23 48h84
q-5 -60 -33 -102t-74 -42q-20 0 -37 6t-38 17q-3 1 -18.5 8.5t-28.5 7.5t-21 -11.5t-12 -36.5h-84q2 62 31.5 103z" />
    <glyph glyph-name="AE" unicode="&#xc6;" horiz-adv-x="1026" 
d="M991 110v-110h-236q-114 0 -173 42t-72 121h-249l-85 -163h-156l285 546q32 61 57.5 93t57.5 46.5t81 14.5q60 0 96 -33q60 33 158 33h234v-110h-234q-55 0 -81.5 -26t-26.5 -82v-77h298v-110h-298v-77q0 -55 26.5 -81.5t81.5 -26.5h236zM315 268h191v277q0 25 -18 25
q-10 0 -16 -6t-13 -20z" />
    <glyph glyph-name="AEacute" unicode="&#x1fc;" horiz-adv-x="1026" 
d="M991 110v-110h-236q-114 0 -173 42t-72 121h-249l-85 -163h-156l285 546q32 61 57.5 93t57.5 46.5t81 14.5q60 0 96 -33q60 33 158 33h234v-110h-234q-55 0 -81.5 -26t-26.5 -82v-77h298v-110h-298v-77q0 -55 26.5 -81.5t81.5 -26.5h236zM315 268h191v277q0 25 -18 25
q-10 0 -16 -6t-13 -20zM542 922h136l-111 -157h-105z" />
    <glyph glyph-name="B" unicode="B" horiz-adv-x="686" 
d="M85 700h308q110 0 168.5 -48t58.5 -139q0 -50 -30 -90t-87 -55q62 -12 100 -57.5t38 -118.5q0 -89 -62.5 -140.5t-170.5 -51.5h-323v700zM390 418q40 0 64.5 23.5t24.5 62.5t-24.5 62.5t-64.5 23.5h-164v-172h164zM378 110q62 0 92 24.5t30 74.5t-30 74.5t-92 24.5h-152
v-198h152z" />
    <glyph glyph-name="C" unicode="C" horiz-adv-x="637" 
d="M129 52.5q-74 64.5 -74 190.5v214q0 126 74 190.5t215 64.5q98 0 160.5 -32.5t99.5 -97.5l-101 -70q-31 48 -64.5 69t-94.5 21q-77 0 -112.5 -36.5t-35.5 -108.5v-214q0 -72 35.5 -108.5t112.5 -36.5q66 0 102.5 22.5t65.5 72.5l100 -74q-32 -46 -66 -74t-82.5 -42.5
t-119.5 -14.5q-141 0 -215 64.5z" />
    <glyph glyph-name="Cacute" unicode="&#x106;" horiz-adv-x="637" 
d="M129 52.5q-74 64.5 -74 190.5v214q0 126 74 190.5t215 64.5q98 0 160.5 -32.5t99.5 -97.5l-101 -70q-31 48 -64.5 69t-94.5 21q-77 0 -112.5 -36.5t-35.5 -108.5v-214q0 -72 35.5 -108.5t112.5 -36.5q66 0 102.5 22.5t65.5 72.5l100 -74q-32 -46 -66 -74t-82.5 -42.5
t-119.5 -14.5q-141 0 -215 64.5zM358 922h136l-111 -157h-105z" />
    <glyph glyph-name="Ccaron" unicode="&#x10c;" horiz-adv-x="637" 
d="M129 52.5q-74 64.5 -74 190.5v214q0 126 74 190.5t215 64.5q98 0 160.5 -32.5t99.5 -97.5l-101 -70q-31 48 -64.5 69t-94.5 21q-77 0 -112.5 -36.5t-35.5 -108.5v-214q0 -72 35.5 -108.5t112.5 -36.5q66 0 102.5 22.5t65.5 72.5l100 -74q-32 -46 -66 -74t-82.5 -42.5
t-119.5 -14.5q-141 0 -215 64.5zM222.5 855q-36.5 45 -62.5 69h114q40 -35 64 -74q24 39 64 74h114q-26 -24 -62.5 -69t-60.5 -90h-110q-24 45 -60.5 90z" />
    <glyph glyph-name="Ccedilla" unicode="&#xc7;" horiz-adv-x="637" 
d="M518 26q-50 -31 -133 -37l-8 -24q88 -11 88 -96q0 -52 -36.5 -77.5t-104.5 -25.5q-62 0 -109 25l22 70q38 -19 72 -19q57 0 57 27q0 16 -12 25t-47 9q-8 0 -34 -2l21 89q-116 11 -177.5 75t-61.5 178v214q0 126 74 190.5t215 64.5q98 0 160.5 -32.5t99.5 -97.5l-101 -70
q-31 48 -64.5 69t-94.5 21q-77 0 -112.5 -36.5t-35.5 -108.5v-214q0 -72 35.5 -108.5t112.5 -36.5q66 0 102.5 22.5t65.5 72.5l100 -74q-44 -62 -94 -93z" />
    <glyph glyph-name="Ccircumflex" unicode="&#x108;" horiz-adv-x="637" 
d="M129 52.5q-74 64.5 -74 190.5v214q0 126 74 190.5t215 64.5q98 0 160.5 -32.5t99.5 -97.5l-101 -70q-31 48 -64.5 69t-94.5 21q-77 0 -112.5 -36.5t-35.5 -108.5v-214q0 -72 35.5 -108.5t112.5 -36.5q66 0 102.5 22.5t65.5 72.5l100 -74q-32 -46 -66 -74t-82.5 -42.5
t-119.5 -14.5q-141 0 -215 64.5zM222.5 834q36.5 45 60.5 90h110q24 -45 60.5 -90t62.5 -69h-114q-40 35 -64 74q-24 -39 -64 -74h-114q26 24 62.5 69z" />
    <glyph glyph-name="Cdotaccent" unicode="&#x10a;" horiz-adv-x="637" 
d="M129 52.5q-74 64.5 -74 190.5v214q0 126 74 190.5t215 64.5q98 0 160.5 -32.5t99.5 -97.5l-101 -70q-31 48 -64.5 69t-94.5 21q-77 0 -112.5 -36.5t-35.5 -108.5v-214q0 -72 35.5 -108.5t112.5 -36.5q66 0 102.5 22.5t65.5 72.5l100 -74q-32 -46 -66 -74t-82.5 -42.5
t-119.5 -14.5q-141 0 -215 64.5zM288 778q-21 21 -21 51q0 29 21 50.5t51 21.5q29 0 50.5 -21.5t21.5 -50.5q0 -30 -21.5 -51t-50.5 -21q-30 0 -51 21z" />
    <glyph glyph-name="D" unicode="D" horiz-adv-x="711" 
d="M85 700h260q118 0 186.5 -34t99 -109.5t30.5 -206.5t-30.5 -206.5t-99 -109.5t-186.5 -34h-260v700zM345 110q66 0 104 23t54.5 75t16.5 142t-16.5 142t-54.5 75t-104 23h-119v-480h119z" />
    <glyph glyph-name="Eth" unicode="&#xd0;" horiz-adv-x="711" 
d="M531.5 666q68.5 -34 99 -109.5t30.5 -206.5t-30.5 -206.5t-99 -109.5t-186.5 -34h-260v305h-85v96h85v299h260q118 0 186.5 -34zM449 133q38 23 54.5 75t16.5 142t-16.5 142t-54.5 75t-104 23h-119v-189h174v-96h-174v-195h119q66 0 104 23z" />
    <glyph glyph-name="Dcaron" unicode="&#x10e;" horiz-adv-x="711" 
d="M85 700h260q118 0 186.5 -34t99 -109.5t30.5 -206.5t-30.5 -206.5t-99 -109.5t-186.5 -34h-260v700zM345 110q66 0 104 23t54.5 75t16.5 142t-16.5 142t-54.5 75t-104 23h-119v-480h119zM244.5 855q-36.5 45 -62.5 69h114q40 -35 64 -74q24 39 64 74h114
q-26 -24 -62.5 -69t-60.5 -90h-110q-24 45 -60.5 90z" />
    <glyph glyph-name="Dcroat" unicode="&#x110;" horiz-adv-x="711" 
d="M531.5 666q68.5 -34 99 -109.5t30.5 -206.5t-30.5 -206.5t-99 -109.5t-186.5 -34h-260v305h-85v96h85v299h260q118 0 186.5 -34zM449 133q38 23 54.5 75t16.5 142t-16.5 142t-54.5 75t-104 23h-119v-189h174v-96h-174v-195h119q66 0 104 23z" />
    <glyph glyph-name="uni1E0C" unicode="&#x1e0c;" horiz-adv-x="711" 
d="M85 700h260q118 0 186.5 -34t99 -109.5t30.5 -206.5t-30.5 -206.5t-99 -109.5t-186.5 -34h-260v700zM345 110q66 0 104 23t54.5 75t16.5 142t-16.5 142t-54.5 75t-104 23h-119v-480h119zM310 -173q-21 21 -21 51q0 29 21 50.5t51 21.5q29 0 50.5 -21.5t21.5 -50.5
q0 -30 -21.5 -51t-50.5 -21q-30 0 -51 21z" />
    <glyph glyph-name="uni1E0E" unicode="&#x1e0e;" horiz-adv-x="711" 
d="M85 700h260q118 0 186.5 -34t99 -109.5t30.5 -206.5t-30.5 -206.5t-99 -109.5t-186.5 -34h-260v700zM345 110q66 0 104 23t54.5 75t16.5 142t-16.5 142t-54.5 75t-104 23h-119v-480h119zM200 -72h322v-90h-322v90z" />
    <glyph glyph-name="E" unicode="E" horiz-adv-x="573" 
d="M111 56q-58 56 -58 162v264q0 106 58 162t191 56h234v-110h-234q-55 0 -81.5 -26t-26.5 -82v-77h298v-110h-298v-77q0 -55 26.5 -81.5t81.5 -26.5h236v-110h-236q-133 0 -191 56z" />
    <glyph glyph-name="Eacute" unicode="&#xc9;" horiz-adv-x="573" 
d="M111 56q-58 56 -58 162v264q0 106 58 162t191 56h234v-110h-234q-55 0 -81.5 -26t-26.5 -82v-77h298v-110h-298v-77q0 -55 26.5 -81.5t81.5 -26.5h236v-110h-236q-133 0 -191 56zM358 922h136l-111 -157h-105z" />
    <glyph glyph-name="Ebreve" unicode="&#x114;" horiz-adv-x="573" 
d="M111 56q-58 56 -58 162v264q0 106 58 162t191 56h234v-110h-234q-55 0 -81.5 -26t-26.5 -82v-77h298v-110h-298v-77q0 -55 26.5 -81.5t81.5 -26.5h236v-110h-236q-133 0 -191 56zM217 800.5q-45 45.5 -45 121.5h93q3 -36 22 -56.5t52 -20.5t52.5 21t21.5 56h93
q0 -76 -45.5 -121.5t-121.5 -45.5q-77 0 -122 45.5z" />
    <glyph glyph-name="Ecaron" unicode="&#x11a;" horiz-adv-x="573" 
d="M111 56q-58 56 -58 162v264q0 106 58 162t191 56h234v-110h-234q-55 0 -81.5 -26t-26.5 -82v-77h298v-110h-298v-77q0 -55 26.5 -81.5t81.5 -26.5h236v-110h-236q-133 0 -191 56zM222.5 855q-36.5 45 -62.5 69h114q40 -35 64 -74q24 39 64 74h114q-26 -24 -62.5 -69
t-60.5 -90h-110q-24 45 -60.5 90z" />
    <glyph glyph-name="Ecircumflex" unicode="&#xca;" horiz-adv-x="573" 
d="M111 56q-58 56 -58 162v264q0 106 58 162t191 56h234v-110h-234q-55 0 -81.5 -26t-26.5 -82v-77h298v-110h-298v-77q0 -55 26.5 -81.5t81.5 -26.5h236v-110h-236q-133 0 -191 56zM222.5 834q36.5 45 60.5 90h110q24 -45 60.5 -90t62.5 -69h-114q-40 35 -64 74
q-24 -39 -64 -74h-114q26 24 62.5 69z" />
    <glyph glyph-name="uni1EBE" unicode="&#x1ebe;" horiz-adv-x="573" 
d="M111 56q-58 56 -58 162v264q0 106 58 162t191 56h234v-110h-234q-55 0 -81.5 -26t-26.5 -82v-77h298v-110h-298v-77q0 -55 26.5 -81.5t81.5 -26.5h236v-110h-236q-133 0 -191 56zM518 996h126l-94 -126h-95zM222.5 834q36.5 45 60.5 90h110q24 -45 60.5 -90t62.5 -69
h-114q-40 35 -64 74q-24 -39 -64 -74h-114q26 24 62.5 69z" />
    <glyph glyph-name="uni1EC6" unicode="&#x1ec6;" horiz-adv-x="573" 
d="M111 56q-58 56 -58 162v264q0 106 58 162t191 56h234v-110h-234q-55 0 -81.5 -26t-26.5 -82v-77h298v-110h-298v-77q0 -55 26.5 -81.5t81.5 -26.5h236v-110h-236q-133 0 -191 56zM298 -173q-21 21 -21 51q0 29 21 50.5t51 21.5q29 0 50.5 -21.5t21.5 -50.5
q0 -30 -21.5 -51t-50.5 -21q-30 0 -51 21zM222.5 834q36.5 45 60.5 90h110q24 -45 60.5 -90t62.5 -69h-114q-40 35 -64 74q-24 -39 -64 -74h-114q26 24 62.5 69z" />
    <glyph glyph-name="uni1EC0" unicode="&#x1ec0;" horiz-adv-x="573" 
d="M111 56q-58 56 -58 162v264q0 106 58 162t191 56h234v-110h-234q-55 0 -81.5 -26t-26.5 -82v-77h298v-110h-298v-77q0 -55 26.5 -81.5t81.5 -26.5h236v-110h-236q-133 0 -191 56zM400 996h126l63 -126h-95zM222.5 834q36.5 45 60.5 90h110q24 -45 60.5 -90t62.5 -69h-114
q-40 35 -64 74q-24 -39 -64 -74h-114q26 24 62.5 69z" />
    <glyph glyph-name="uni1EC2" unicode="&#x1ec2;" horiz-adv-x="573" 
d="M111 56q-58 56 -58 162v264q0 106 58 162t191 56h234v-110h-234q-55 0 -81.5 -26t-26.5 -82v-77h298v-110h-298v-77q0 -55 26.5 -81.5t81.5 -26.5h236v-110h-236q-133 0 -191 56zM606.5 919q-18.5 -18 -52.5 -27v-31h-76v66q73 6 73 33q0 15 -9 21t-30 6t-50 -11l-19 56
q35 17 82 17q48 0 74 -20t26 -60q0 -32 -18.5 -50zM453.5 834q36.5 -45 62.5 -69h-114q-40 35 -64 74q-24 -39 -64 -74h-114q26 24 62.5 69t60.5 90h110q24 -45 60.5 -90z" />
    <glyph glyph-name="uni1EC4" unicode="&#x1ec4;" horiz-adv-x="573" 
d="M111 56q-58 56 -58 162v264q0 106 58 162t191 56h234v-110h-234q-55 0 -81.5 -26t-26.5 -82v-77h298v-110h-298v-77q0 -55 26.5 -81.5t81.5 -26.5h236v-110h-236q-133 0 -191 56zM207.5 1043q29.5 35 80.5 35q18 0 33.5 -5t34.5 -14q28 -14 43 -14q9 0 17 10.5t10 30.5
h76q-5 -50 -33 -85.5t-70 -35.5q-18 0 -33.5 5t-34.5 14q-28 14 -43 14q-12 0 -22 -10t-14 -31h-76q2 51 31.5 86zM222.5 834q36.5 45 60.5 90h110q24 -45 60.5 -90t62.5 -69h-114q-40 35 -64 74q-24 -39 -64 -74h-114q26 24 62.5 69z" />
    <glyph glyph-name="Edieresis" unicode="&#xcb;" horiz-adv-x="573" 
d="M111 56q-58 56 -58 162v264q0 106 58 162t191 56h234v-110h-234q-55 0 -81.5 -26t-26.5 -82v-77h298v-110h-298v-77q0 -55 26.5 -81.5t81.5 -26.5h236v-110h-236q-133 0 -191 56zM205 776q-19 19 -19 45t19 44.5t45 18.5q25 0 44 -18.5t19 -44.5t-18.5 -45t-44.5 -19
t-45 19zM383.5 776q-18.5 19 -18.5 45t18.5 44.5t45.5 18.5q26 0 45 -19t19 -44q0 -26 -19 -45t-45 -19q-27 0 -45.5 19z" />
    <glyph glyph-name="Edotaccent" unicode="&#x116;" horiz-adv-x="573" 
d="M111 56q-58 56 -58 162v264q0 106 58 162t191 56h234v-110h-234q-55 0 -81.5 -26t-26.5 -82v-77h298v-110h-298v-77q0 -55 26.5 -81.5t81.5 -26.5h236v-110h-236q-133 0 -191 56zM288 778q-21 21 -21 51q0 29 21 50.5t51 21.5q29 0 50.5 -21.5t21.5 -50.5
q0 -30 -21.5 -51t-50.5 -21q-30 0 -51 21z" />
    <glyph glyph-name="uni1EB8" unicode="&#x1eb8;" horiz-adv-x="573" 
d="M111 56q-58 56 -58 162v264q0 106 58 162t191 56h234v-110h-234q-55 0 -81.5 -26t-26.5 -82v-77h298v-110h-298v-77q0 -55 26.5 -81.5t81.5 -26.5h236v-110h-236q-133 0 -191 56zM298 -173q-21 21 -21 51q0 29 21 50.5t51 21.5q29 0 50.5 -21.5t21.5 -50.5
q0 -30 -21.5 -51t-50.5 -21q-30 0 -51 21z" />
    <glyph glyph-name="Egrave" unicode="&#xc8;" horiz-adv-x="573" 
d="M111 56q-58 56 -58 162v264q0 106 58 162t191 56h234v-110h-234q-55 0 -81.5 -26t-26.5 -82v-77h298v-110h-298v-77q0 -55 26.5 -81.5t81.5 -26.5h236v-110h-236q-133 0 -191 56zM178 922h136l80 -157h-105z" />
    <glyph glyph-name="uni1EBA" unicode="&#x1eba;" horiz-adv-x="573" 
d="M111 56q-58 56 -58 162v264q0 106 58 162t191 56h234v-110h-234q-55 0 -81.5 -26t-26.5 -82v-77h298v-110h-298v-77q0 -55 26.5 -81.5t81.5 -26.5h236v-110h-236q-133 0 -191 56zM379 802v-37h-93v81q48 4 69 13.5t21 27.5q0 17 -11.5 24.5t-35.5 7.5q-29 0 -62 -14
l-22 69q43 21 99 21q63 0 97 -24.5t34 -73.5q0 -72 -96 -95z" />
    <glyph glyph-name="Emacron" unicode="&#x112;" horiz-adv-x="573" 
d="M111 56q-58 56 -58 162v264q0 106 58 162t191 56h234v-110h-234q-55 0 -81.5 -26t-26.5 -82v-77h298v-110h-298v-77q0 -55 26.5 -81.5t81.5 -26.5h236v-110h-236q-133 0 -191 56zM178 867h322v-90h-322v90z" />
    <glyph glyph-name="Eogonek" unicode="&#x118;" horiz-adv-x="573" 
d="M585 -208q-40 -26 -88 -26q-80 0 -114.5 34t-34.5 77q0 34 14 64t45 59h-105q-133 0 -191 56t-58 162v264q0 106 58 162t191 56h234v-110h-234q-55 0 -81.5 -26t-26.5 -82v-77h298v-110h-298v-77q0 -55 26.5 -81.5t81.5 -26.5h236v-110h-39q-42 -53 -42 -103
q0 -24 14.5 -35.5t37.5 -11.5t54 13z" />
    <glyph glyph-name="uni1EBC" unicode="&#x1ebc;" horiz-adv-x="573" 
d="M111 56q-58 56 -58 162v264q0 106 58 162t191 56h234v-110h-234q-55 0 -81.5 -26t-26.5 -82v-77h298v-110h-298v-77q0 -55 26.5 -81.5t81.5 -26.5h236v-110h-236q-133 0 -191 56zM197.5 868q29.5 41 85.5 41q20 0 37 -6t38 -17q3 -1 18.5 -8.5t28.5 -7.5q19 0 23 48h84
q-5 -60 -33 -102t-74 -42q-20 0 -37 6t-38 17q-3 1 -18.5 8.5t-28.5 7.5t-21 -11.5t-12 -36.5h-84q2 62 31.5 103z" />
    <glyph glyph-name="F" unicode="F" horiz-adv-x="578" 
d="M60 482q0 106 58 162t191 56h234v-110h-234q-55 0 -81.5 -26t-26.5 -82v-97h298v-110h-298v-275h-141v482z" />
    <glyph glyph-name="G" unicode="G" horiz-adv-x="674" 
d="M130.5 52.5q-75.5 64.5 -75.5 190.5v214q0 126 75.5 190.5t218.5 64.5q103 0 168.5 -33t103.5 -98l-107 -73q-31 50 -66 72t-99 22q-80 0 -116.5 -36.5t-36.5 -108.5v-214q0 -72 36.5 -108.5t116.5 -36.5q70 0 106.5 23.5t36.5 68.5v31q0 62 -57 62h-114v110h154
q80 0 118 -37t38 -115v-61q0 -90 -76 -141t-206 -51q-143 0 -218.5 64.5z" />
    <glyph glyph-name="Gbreve" unicode="&#x11e;" horiz-adv-x="674" 
d="M130.5 52.5q-75.5 64.5 -75.5 190.5v214q0 126 75.5 190.5t218.5 64.5q103 0 168.5 -33t103.5 -98l-107 -73q-31 50 -66 72t-99 22q-80 0 -116.5 -36.5t-36.5 -108.5v-214q0 -72 36.5 -108.5t116.5 -36.5q70 0 106.5 23.5t36.5 68.5v31q0 62 -57 62h-114v110h154
q80 0 118 -37t38 -115v-61q0 -90 -76 -141t-206 -51q-143 0 -218.5 64.5zM217 800.5q-45 45.5 -45 121.5h93q3 -36 22 -56.5t52 -20.5t52.5 21t21.5 56h93q0 -76 -45.5 -121.5t-121.5 -45.5q-77 0 -122 45.5z" />
    <glyph glyph-name="Gcaron" unicode="&#x1e6;" horiz-adv-x="674" 
d="M130.5 52.5q-75.5 64.5 -75.5 190.5v214q0 126 75.5 190.5t218.5 64.5q103 0 168.5 -33t103.5 -98l-107 -73q-31 50 -66 72t-99 22q-80 0 -116.5 -36.5t-36.5 -108.5v-214q0 -72 36.5 -108.5t116.5 -36.5q70 0 106.5 23.5t36.5 68.5v31q0 62 -57 62h-114v110h154
q80 0 118 -37t38 -115v-61q0 -90 -76 -141t-206 -51q-143 0 -218.5 64.5zM222.5 855q-36.5 45 -62.5 69h114q40 -35 64 -74q24 39 64 74h114q-26 -24 -62.5 -69t-60.5 -90h-110q-24 45 -60.5 90z" />
    <glyph glyph-name="Gcircumflex" unicode="&#x11c;" horiz-adv-x="674" 
d="M130.5 52.5q-75.5 64.5 -75.5 190.5v214q0 126 75.5 190.5t218.5 64.5q103 0 168.5 -33t103.5 -98l-107 -73q-31 50 -66 72t-99 22q-80 0 -116.5 -36.5t-36.5 -108.5v-214q0 -72 36.5 -108.5t116.5 -36.5q70 0 106.5 23.5t36.5 68.5v31q0 62 -57 62h-114v110h154
q80 0 118 -37t38 -115v-61q0 -90 -76 -141t-206 -51q-143 0 -218.5 64.5zM222.5 834q36.5 45 60.5 90h110q24 -45 60.5 -90t62.5 -69h-114q-40 35 -64 74q-24 -39 -64 -74h-114q26 24 62.5 69z" />
    <glyph glyph-name="uni0122" unicode="&#x122;" horiz-adv-x="674" 
d="M130.5 52.5q-75.5 64.5 -75.5 190.5v214q0 126 75.5 190.5t218.5 64.5q103 0 168.5 -33t103.5 -98l-107 -73q-31 50 -66 72t-99 22q-80 0 -116.5 -36.5t-36.5 -108.5v-214q0 -72 36.5 -108.5t116.5 -36.5q70 0 106.5 23.5t36.5 68.5v31q0 62 -57 62h-114v110h154
q80 0 118 -37t38 -115v-61q0 -90 -76 -141t-206 -51q-143 0 -218.5 64.5zM396.5 -76.5q20.5 -24.5 20.5 -69.5q0 -55 -26 -98.5t-77 -84.5l-39 37q30 23 46.5 45t22.5 47q-13 -6 -31 -6q-26 0 -41 17.5t-15 48.5q0 33 23.5 60.5t58.5 27.5q37 0 57.5 -24.5z" />
    <glyph glyph-name="Gdotaccent" unicode="&#x120;" horiz-adv-x="674" 
d="M130.5 52.5q-75.5 64.5 -75.5 190.5v214q0 126 75.5 190.5t218.5 64.5q103 0 168.5 -33t103.5 -98l-107 -73q-31 50 -66 72t-99 22q-80 0 -116.5 -36.5t-36.5 -108.5v-214q0 -72 36.5 -108.5t116.5 -36.5q70 0 106.5 23.5t36.5 68.5v31q0 62 -57 62h-114v110h154
q80 0 118 -37t38 -115v-61q0 -90 -76 -141t-206 -51q-143 0 -218.5 64.5zM288 778q-21 21 -21 51q0 29 21 50.5t51 21.5q29 0 50.5 -21.5t21.5 -50.5q0 -30 -21.5 -51t-50.5 -21q-30 0 -51 21z" />
    <glyph glyph-name="uni1E20" unicode="&#x1e20;" horiz-adv-x="674" 
d="M130.5 52.5q-75.5 64.5 -75.5 190.5v214q0 126 75.5 190.5t218.5 64.5q103 0 168.5 -33t103.5 -98l-107 -73q-31 50 -66 72t-99 22q-80 0 -116.5 -36.5t-36.5 -108.5v-214q0 -72 36.5 -108.5t116.5 -36.5q70 0 106.5 23.5t36.5 68.5v31q0 62 -57 62h-114v110h154
q80 0 118 -37t38 -115v-61q0 -90 -76 -141t-206 -51q-143 0 -218.5 64.5zM178 867h322v-90h-322v90z" />
    <glyph glyph-name="H" unicode="H" horiz-adv-x="724" 
d="M85 700h141v-294h272v294h141v-700h-141v296h-272v-296h-141v700z" />
    <glyph glyph-name="Hbar" unicode="&#x126;" horiz-adv-x="738" 
d="M736 499h-90v-499h-141v296h-272v-296h-141v499h-90v96h90v105h141v-105h272v105h141v-105h90v-96zM505 499h-272v-93h272v93z" />
    <glyph glyph-name="uni1E2A" unicode="&#x1e2a;" horiz-adv-x="724" 
d="M85 700h141v-294h272v294h141v-700h-141v296h-272v-296h-141v700zM240 -184.5q-45 45.5 -45 122.5h93q3 -36 22 -56.5t52 -20.5t52.5 21t21.5 56h93q0 -77 -45 -122.5t-122 -45.5t-122 45.5z" />
    <glyph glyph-name="Hcircumflex" unicode="&#x124;" horiz-adv-x="724" 
d="M85 700h141v-294h272v294h141v-700h-141v296h-272v-296h-141v700zM245.5 834q36.5 45 60.5 90h110q24 -45 60.5 -90t62.5 -69h-114q-40 35 -64 74q-24 -39 -64 -74h-114q26 24 62.5 69z" />
    <glyph glyph-name="uni1E24" unicode="&#x1e24;" horiz-adv-x="724" 
d="M85 700h141v-294h272v294h141v-700h-141v296h-272v-296h-141v700zM311 -173q-21 21 -21 51q0 29 21 50.5t51 21.5q29 0 50.5 -21.5t21.5 -50.5q0 -30 -21.5 -51t-50.5 -21q-30 0 -51 21z" />
    <glyph glyph-name="I" unicode="I" horiz-adv-x="311" 
d="M85 700h141v-700h-141v700z" />
    <glyph glyph-name="IJ" unicode="&#x132;" horiz-adv-x="846" 
d="M85 700h141v-700h-141v700zM395.5 11.5q-45.5 23.5 -89.5 73.5l83 85q30 -40 57.5 -56t69.5 -16q64 0 96.5 28.5t32.5 83.5v490h141v-490q0 -110 -67.5 -166t-198.5 -56q-79 0 -124.5 23.5z" />
    <glyph glyph-name="Iacute" unicode="&#xcd;" horiz-adv-x="311" 
d="M85 700h141v-700h-141v700zM175 922h136l-111 -157h-105z" />
    <glyph glyph-name="Ibreve" unicode="&#x12c;" horiz-adv-x="311" 
d="M85 700h141v-700h-141v700zM34 800.5q-45 45.5 -45 121.5h93q3 -36 22 -56.5t52 -20.5t52.5 21t21.5 56h93q0 -76 -45.5 -121.5t-121.5 -45.5q-77 0 -122 45.5z" />
    <glyph glyph-name="uni01CF" unicode="&#x1cf;" horiz-adv-x="311" 
d="M85 700h141v-700h-141v700zM39.5 855q-36.5 45 -62.5 69h114q40 -35 64 -74q24 39 64 74h114q-26 -24 -62.5 -69t-60.5 -90h-110q-24 45 -60.5 90z" />
    <glyph glyph-name="Icircumflex" unicode="&#xce;" horiz-adv-x="311" 
d="M85 700h141v-700h-141v700zM39.5 834q36.5 45 60.5 90h110q24 -45 60.5 -90t62.5 -69h-114q-40 35 -64 74q-24 -39 -64 -74h-114q26 24 62.5 69z" />
    <glyph glyph-name="Idieresis" unicode="&#xcf;" horiz-adv-x="311" 
d="M85 700h141v-700h-141v700zM22 776q-19 19 -19 45t19 44.5t45 18.5q25 0 44 -18.5t19 -44.5t-18.5 -45t-44.5 -19t-45 19zM200.5 776q-18.5 19 -18.5 45t18.5 44.5t45.5 18.5q26 0 45 -19t19 -44q0 -26 -19 -45t-45 -19q-27 0 -45.5 19z" />
    <glyph glyph-name="Idotaccent" unicode="&#x130;" horiz-adv-x="311" 
d="M85 700h141v-700h-141v700zM105 778q-21 21 -21 51q0 29 21 50.5t51 21.5q29 0 50.5 -21.5t21.5 -50.5q0 -30 -21.5 -51t-50.5 -21q-30 0 -51 21z" />
    <glyph glyph-name="uni1ECA" unicode="&#x1eca;" horiz-adv-x="311" 
d="M85 700h141v-700h-141v700zM105 -173q-21 21 -21 51q0 29 21 50.5t51 21.5q29 0 50.5 -21.5t21.5 -50.5q0 -30 -21.5 -51t-50.5 -21q-30 0 -51 21z" />
    <glyph glyph-name="Igrave" unicode="&#xcc;" horiz-adv-x="311" 
d="M85 700h141v-700h-141v700zM-5 922h136l80 -157h-105z" />
    <glyph glyph-name="uni1EC8" unicode="&#x1ec8;" horiz-adv-x="311" 
d="M85 700h141v-700h-141v700zM196 802v-37h-93v81q48 4 69 13.5t21 27.5q0 17 -11.5 24.5t-35.5 7.5q-29 0 -62 -14l-22 69q43 21 99 21q63 0 97 -24.5t34 -73.5q0 -72 -96 -95z" />
    <glyph glyph-name="Imacron" unicode="&#x12a;" horiz-adv-x="311" 
d="M85 700h141v-700h-141v700zM-5 867h322v-90h-322v90z" />
    <glyph glyph-name="Iogonek" unicode="&#x12e;" horiz-adv-x="311" 
d="M303 -208q-40 -26 -88 -26q-80 0 -114.5 34t-34.5 77q0 34 14 64t45 59h-40v700h141v-700h-9q-42 -53 -42 -103q0 -24 14.5 -35.5t37.5 -11.5t54 13z" />
    <glyph glyph-name="Itilde" unicode="&#x128;" horiz-adv-x="311" 
d="M85 700h141v-700h-141v700zM14.5 868q29.5 41 85.5 41q20 0 37 -6t38 -17q3 -1 18.5 -8.5t28.5 -7.5q19 0 23 48h84q-5 -60 -33 -102t-74 -42q-20 0 -37 6t-38 17q-3 1 -18.5 8.5t-28.5 7.5t-21 -11.5t-12 -36.5h-84q2 62 31.5 103z" />
    <glyph glyph-name="J" unicode="J" horiz-adv-x="560" 
d="M109.5 11.5q-45.5 23.5 -89.5 73.5l83 85q30 -40 57.5 -56t69.5 -16q64 0 96.5 28.5t32.5 83.5v490h141v-490q0 -110 -67.5 -166t-198.5 -56q-79 0 -124.5 23.5z" />
    <glyph glyph-name="Jcircumflex" unicode="&#x134;" horiz-adv-x="560" 
d="M109.5 11.5q-45.5 23.5 -89.5 73.5l83 85q30 -40 57.5 -56t69.5 -16q64 0 96.5 28.5t32.5 83.5v490h141v-490q0 -110 -67.5 -166t-198.5 -56q-79 0 -124.5 23.5zM312.5 834q36.5 45 60.5 90h110q24 -45 60.5 -90t62.5 -69h-114q-40 35 -64 74q-24 -39 -64 -74h-114
q26 24 62.5 69z" />
    <glyph glyph-name="K" unicode="K" horiz-adv-x="698" 
d="M497 387.5q29 -23.5 50 -61t44 -102.5l80 -224h-142l-76 210q-14 39 -25.5 59.5t-32.5 34.5t-59 20l-110 -122v-202h-141v700h141v-321l283 321h166l-251 -278q44 -11 73 -34.5z" />
    <glyph glyph-name="uni0136" unicode="&#x136;" horiz-adv-x="698" 
d="M497 387.5q29 -23.5 50 -61t44 -102.5l80 -224h-142l-76 210q-14 39 -25.5 59.5t-32.5 34.5t-59 20l-110 -122v-202h-141v700h141v-321l283 321h166l-251 -278q44 -11 73 -34.5zM425.5 -76.5q20.5 -24.5 20.5 -69.5q0 -55 -26 -98.5t-77 -84.5l-39 37q30 23 46.5 45
t22.5 47q-13 -6 -31 -6q-26 0 -41 17.5t-15 48.5q0 33 23.5 60.5t58.5 27.5q37 0 57.5 -24.5z" />
    <glyph glyph-name="L" unicode="L" horiz-adv-x="548" 
d="M115.5 56q-55.5 56 -55.5 162v482h141v-482q0 -55 24 -81.5t74 -26.5h224v-110h-224q-128 0 -183.5 56z" />
    <glyph glyph-name="Lacute" unicode="&#x139;" horiz-adv-x="548" 
d="M115.5 56q-55.5 56 -55.5 162v482h141v-482q0 -55 24 -81.5t74 -26.5h224v-110h-224q-128 0 -183.5 56zM150 922h136l-111 -157h-105z" />
    <glyph glyph-name="Lcaron" unicode="&#x13d;" horiz-adv-x="582" 
d="M115.5 56q-55.5 56 -55.5 162v482h141v-482q0 -55 24 -81.5t74 -26.5h224v-110h-224q-128 0 -183.5 56zM488.5 711.5q20.5 -24.5 20.5 -69.5q0 -55 -26 -98.5t-77 -84.5l-39 37q30 23 46.5 45t22.5 47q-13 -6 -31 -6q-26 0 -41 17.5t-15 48.5q0 33 23.5 60.5t58.5 27.5
q37 0 57.5 -24.5z" />
    <glyph glyph-name="uni013B" unicode="&#x13b;" horiz-adv-x="548" 
d="M115.5 56q-55.5 56 -55.5 162v482h141v-482q0 -55 24 -81.5t74 -26.5h224v-110h-224q-128 0 -183.5 56zM377.5 -76.5q20.5 -24.5 20.5 -69.5q0 -55 -26 -98.5t-77 -84.5l-39 37q30 23 46.5 45t22.5 47q-13 -6 -31 -6q-26 0 -41 17.5t-15 48.5q0 33 23.5 60.5t58.5 27.5
q37 0 57.5 -24.5z" />
    <glyph glyph-name="Ldot" unicode="&#x13f;" horiz-adv-x="548" 
d="M115.5 56q-55.5 56 -55.5 162v482h141v-482q0 -55 24 -81.5t74 -26.5h224v-110h-224q-128 0 -183.5 56zM360 303q-26 25 -26 61q0 37 26 63t63 26q35 0 60.5 -26t25.5 -63q0 -36 -25.5 -61t-60.5 -25q-37 0 -63 25z" />
    <glyph glyph-name="uni1E36" unicode="&#x1e36;" horiz-adv-x="548" 
d="M115.5 56q-55.5 56 -55.5 162v482h141v-482q0 -55 24 -81.5t74 -26.5h224v-110h-224q-128 0 -183.5 56zM269 -173q-21 21 -21 51q0 29 21 50.5t51 21.5q29 0 50.5 -21.5t21.5 -50.5q0 -30 -21.5 -51t-50.5 -21q-30 0 -51 21z" />
    <glyph glyph-name="uni1E38" unicode="&#x1e38;" horiz-adv-x="548" 
d="M115.5 56q-55.5 56 -55.5 162v482h141v-482q0 -55 24 -81.5t74 -26.5h224v-110h-224q-128 0 -183.5 56zM269 -173q-21 21 -21 51q0 29 21 50.5t51 21.5q29 0 50.5 -21.5t21.5 -50.5q0 -30 -21.5 -51t-50.5 -21q-30 0 -51 21zM-30 867h322v-90h-322v90z" />
    <glyph glyph-name="uni1E3A" unicode="&#x1e3a;" horiz-adv-x="548" 
d="M115.5 56q-55.5 56 -55.5 162v482h141v-482q0 -55 24 -81.5t74 -26.5h224v-110h-224q-128 0 -183.5 56zM159 -72h322v-90h-322v90z" />
    <glyph glyph-name="Lslash" unicode="&#x141;" horiz-adv-x="563" 
d="M538 110v-110h-224q-128 0 -183.5 56t-55.5 162v22l-75 -34v110l75 34v350h141v-286l225 103v-110l-225 -103v-86q0 -55 24 -81.5t74 -26.5h224z" />
    <glyph glyph-name="M" unicode="M" horiz-adv-x="834" 
d="M85 700h73q55 0 88 -15t57 -47.5t56 -97.5l58 -117l58 117q32 65 56 97.5t57 47.5t88 15h73v-700h-128v553q-12 0 -20 -11t-24 -39l-160 -297l-160 297q-16 28 -24 39t-20 12v-554h-128v700z" />
    <glyph glyph-name="uni1E42" unicode="&#x1e42;" horiz-adv-x="834" 
d="M85 700h73q55 0 88 -15t57 -47.5t56 -97.5l58 -117l58 117q32 65 56 97.5t57 47.5t88 15h73v-700h-128v553q-12 0 -20 -11t-24 -39l-160 -297l-160 297q-16 28 -24 39t-20 12v-554h-128v700zM366 -173q-21 21 -21 51q0 29 21 50.5t51 21.5q29 0 50.5 -21.5t21.5 -50.5
q0 -30 -21.5 -51t-50.5 -21q-30 0 -51 21z" />
    <glyph glyph-name="N" unicode="N" horiz-adv-x="734" 
d="M661 700v-535q0 -81 -33 -123t-106 -42h-99l-206 477v-477h-132v700h159l254 -580h2q17 0 23 14.5t6 52.5v513h132z" />
    <glyph glyph-name="Nacute" unicode="&#x143;" horiz-adv-x="734" 
d="M661 700v-535q0 -81 -33 -123t-106 -42h-99l-206 477v-477h-132v700h159l254 -580h2q17 0 23 14.5t6 52.5v513h132zM392 922h136l-111 -157h-105z" />
    <glyph glyph-name="Ncaron" unicode="&#x147;" horiz-adv-x="734" 
d="M661 700v-535q0 -81 -33 -123t-106 -42h-99l-206 477v-477h-132v700h159l254 -580h2q17 0 23 14.5t6 52.5v513h132zM256.5 855q-36.5 45 -62.5 69h114q40 -35 64 -74q24 39 64 74h114q-26 -24 -62.5 -69t-60.5 -90h-110q-24 45 -60.5 90z" />
    <glyph glyph-name="uni0145" unicode="&#x145;" horiz-adv-x="734" 
d="M661 700v-535q0 -81 -33 -123t-106 -42h-99l-206 477v-477h-132v700h159l254 -580h2q17 0 23 14.5t6 52.5v513h132zM422.5 -76.5q20.5 -24.5 20.5 -69.5q0 -55 -26 -98.5t-77 -84.5l-39 37q30 23 46.5 45t22.5 47q-13 -6 -31 -6q-26 0 -41 17.5t-15 48.5q0 33 23.5 60.5
t58.5 27.5q37 0 57.5 -24.5z" />
    <glyph glyph-name="uni1E44" unicode="&#x1e44;" horiz-adv-x="734" 
d="M661 700v-535q0 -81 -33 -123t-106 -42h-99l-206 477v-477h-132v700h159l254 -580h2q17 0 23 14.5t6 52.5v513h132zM322 778q-21 21 -21 51q0 29 21 50.5t51 21.5q29 0 50.5 -21.5t21.5 -50.5q0 -30 -21.5 -51t-50.5 -21q-30 0 -51 21z" />
    <glyph glyph-name="uni1E46" unicode="&#x1e46;" horiz-adv-x="734" 
d="M661 700v-535q0 -81 -33 -123t-106 -42h-99l-206 477v-477h-132v700h159l254 -580h2q17 0 23 14.5t6 52.5v513h132zM314 -173q-21 21 -21 51q0 29 21 50.5t51 21.5q29 0 50.5 -21.5t21.5 -50.5q0 -30 -21.5 -51t-50.5 -21q-30 0 -51 21z" />
    <glyph glyph-name="Eng" unicode="&#x14a;" horiz-adv-x="734" 
d="M390 -125h52q49 0 68 21.5t19 74.5v29h-15h-91l-206 477v-477h-132v700h159l254 -580h2q17 0 23 14.5t6 52.5v513h132v-729q0 -77 -21.5 -121.5t-69 -64.5t-128.5 -20h-52v110z" />
    <glyph glyph-name="uni1E48" unicode="&#x1e48;" horiz-adv-x="734" 
d="M661 700v-535q0 -81 -33 -123t-106 -42h-99l-206 477v-477h-132v700h159l254 -580h2q17 0 23 14.5t6 52.5v513h132zM204 -72h322v-90h-322v90z" />
    <glyph glyph-name="Ntilde" unicode="&#xd1;" horiz-adv-x="734" 
d="M661 700v-535q0 -81 -33 -123t-106 -42h-99l-206 477v-477h-132v700h159l254 -580h2q17 0 23 14.5t6 52.5v513h132zM231.5 868q29.5 41 85.5 41q20 0 37 -6t38 -17q3 -1 18.5 -8.5t28.5 -7.5q19 0 23 48h84q-5 -60 -33 -102t-74 -42q-20 0 -37 6t-38 17q-3 1 -18.5 8.5
t-28.5 7.5t-21 -11.5t-12 -36.5h-84q2 62 31.5 103z" />
    <glyph glyph-name="O" unicode="O" horiz-adv-x="682" 
d="M128.5 52.5q-73.5 64.5 -73.5 190.5v214q0 126 73.5 190.5t212.5 64.5t212.5 -64.5t73.5 -190.5v-214q0 -126 -73.5 -190.5t-212.5 -64.5t-212.5 64.5zM448.5 135.5q37.5 37.5 37.5 107.5v214q0 70 -37.5 107.5t-107.5 37.5t-107.5 -37.5t-37.5 -107.5v-214
q0 -70 37.5 -107.5t107.5 -37.5t107.5 37.5z" />
    <glyph glyph-name="Oacute" unicode="&#xd3;" horiz-adv-x="682" 
d="M128.5 52.5q-73.5 64.5 -73.5 190.5v214q0 126 73.5 190.5t212.5 64.5t212.5 -64.5t73.5 -190.5v-214q0 -126 -73.5 -190.5t-212.5 -64.5t-212.5 64.5zM448.5 135.5q37.5 37.5 37.5 107.5v214q0 70 -37.5 107.5t-107.5 37.5t-107.5 -37.5t-37.5 -107.5v-214
q0 -70 37.5 -107.5t107.5 -37.5t107.5 37.5zM360 922h136l-111 -157h-105z" />
    <glyph glyph-name="Obreve" unicode="&#x14e;" horiz-adv-x="682" 
d="M128.5 52.5q-73.5 64.5 -73.5 190.5v214q0 126 73.5 190.5t212.5 64.5t212.5 -64.5t73.5 -190.5v-214q0 -126 -73.5 -190.5t-212.5 -64.5t-212.5 64.5zM448.5 135.5q37.5 37.5 37.5 107.5v214q0 70 -37.5 107.5t-107.5 37.5t-107.5 -37.5t-37.5 -107.5v-214
q0 -70 37.5 -107.5t107.5 -37.5t107.5 37.5zM219 800.5q-45 45.5 -45 121.5h93q3 -36 22 -56.5t52 -20.5t52.5 21t21.5 56h93q0 -76 -45.5 -121.5t-121.5 -45.5q-77 0 -122 45.5z" />
    <glyph glyph-name="uni01D1" unicode="&#x1d1;" horiz-adv-x="682" 
d="M128.5 52.5q-73.5 64.5 -73.5 190.5v214q0 126 73.5 190.5t212.5 64.5t212.5 -64.5t73.5 -190.5v-214q0 -126 -73.5 -190.5t-212.5 -64.5t-212.5 64.5zM448.5 135.5q37.5 37.5 37.5 107.5v214q0 70 -37.5 107.5t-107.5 37.5t-107.5 -37.5t-37.5 -107.5v-214
q0 -70 37.5 -107.5t107.5 -37.5t107.5 37.5zM224.5 855q-36.5 45 -62.5 69h114q40 -35 64 -74q24 39 64 74h114q-26 -24 -62.5 -69t-60.5 -90h-110q-24 45 -60.5 90z" />
    <glyph glyph-name="Ocircumflex" unicode="&#xd4;" horiz-adv-x="682" 
d="M128.5 52.5q-73.5 64.5 -73.5 190.5v214q0 126 73.5 190.5t212.5 64.5t212.5 -64.5t73.5 -190.5v-214q0 -126 -73.5 -190.5t-212.5 -64.5t-212.5 64.5zM448.5 135.5q37.5 37.5 37.5 107.5v214q0 70 -37.5 107.5t-107.5 37.5t-107.5 -37.5t-37.5 -107.5v-214
q0 -70 37.5 -107.5t107.5 -37.5t107.5 37.5zM224.5 834q36.5 45 60.5 90h110q24 -45 60.5 -90t62.5 -69h-114q-40 35 -64 74q-24 -39 -64 -74h-114q26 24 62.5 69z" />
    <glyph glyph-name="uni1ED0" unicode="&#x1ed0;" horiz-adv-x="682" 
d="M128.5 52.5q-73.5 64.5 -73.5 190.5v214q0 126 73.5 190.5t212.5 64.5t212.5 -64.5t73.5 -190.5v-214q0 -126 -73.5 -190.5t-212.5 -64.5t-212.5 64.5zM448.5 135.5q37.5 37.5 37.5 107.5v214q0 70 -37.5 107.5t-107.5 37.5t-107.5 -37.5t-37.5 -107.5v-214
q0 -70 37.5 -107.5t107.5 -37.5t107.5 37.5zM520 996h126l-94 -126h-95zM224.5 834q36.5 45 60.5 90h110q24 -45 60.5 -90t62.5 -69h-114q-40 35 -64 74q-24 -39 -64 -74h-114q26 24 62.5 69z" />
    <glyph glyph-name="uni1ED8" unicode="&#x1ed8;" horiz-adv-x="682" 
d="M128.5 52.5q-73.5 64.5 -73.5 190.5v214q0 126 73.5 190.5t212.5 64.5t212.5 -64.5t73.5 -190.5v-214q0 -126 -73.5 -190.5t-212.5 -64.5t-212.5 64.5zM448.5 135.5q37.5 37.5 37.5 107.5v214q0 70 -37.5 107.5t-107.5 37.5t-107.5 -37.5t-37.5 -107.5v-214
q0 -70 37.5 -107.5t107.5 -37.5t107.5 37.5zM290 -173q-21 21 -21 51q0 29 21 50.5t51 21.5q29 0 50.5 -21.5t21.5 -50.5q0 -30 -21.5 -51t-50.5 -21q-30 0 -51 21zM224.5 834q36.5 45 60.5 90h110q24 -45 60.5 -90t62.5 -69h-114q-40 35 -64 74q-24 -39 -64 -74h-114
q26 24 62.5 69z" />
    <glyph glyph-name="uni1ED2" unicode="&#x1ed2;" horiz-adv-x="682" 
d="M128.5 52.5q-73.5 64.5 -73.5 190.5v214q0 126 73.5 190.5t212.5 64.5t212.5 -64.5t73.5 -190.5v-214q0 -126 -73.5 -190.5t-212.5 -64.5t-212.5 64.5zM448.5 135.5q37.5 37.5 37.5 107.5v214q0 70 -37.5 107.5t-107.5 37.5t-107.5 -37.5t-37.5 -107.5v-214
q0 -70 37.5 -107.5t107.5 -37.5t107.5 37.5zM402 996h126l63 -126h-95zM224.5 834q36.5 45 60.5 90h110q24 -45 60.5 -90t62.5 -69h-114q-40 35 -64 74q-24 -39 -64 -74h-114q26 24 62.5 69z" />
    <glyph glyph-name="uni1ED4" unicode="&#x1ed4;" horiz-adv-x="682" 
d="M128.5 52.5q-73.5 64.5 -73.5 190.5v214q0 126 73.5 190.5t212.5 64.5t212.5 -64.5t73.5 -190.5v-214q0 -126 -73.5 -190.5t-212.5 -64.5t-212.5 64.5zM448.5 135.5q37.5 37.5 37.5 107.5v214q0 70 -37.5 107.5t-107.5 37.5t-107.5 -37.5t-37.5 -107.5v-214
q0 -70 37.5 -107.5t107.5 -37.5t107.5 37.5zM608.5 919q-18.5 -18 -52.5 -27v-31h-76v66q73 6 73 33q0 15 -9 21t-30 6t-50 -11l-19 56q35 17 82 17q48 0 74 -20t26 -60q0 -32 -18.5 -50zM455.5 834q36.5 -45 62.5 -69h-114q-40 35 -64 74q-24 -39 -64 -74h-114
q26 24 62.5 69t60.5 90h110q24 -45 60.5 -90z" />
    <glyph glyph-name="uni1ED6" unicode="&#x1ed6;" horiz-adv-x="682" 
d="M128.5 52.5q-73.5 64.5 -73.5 190.5v214q0 126 73.5 190.5t212.5 64.5t212.5 -64.5t73.5 -190.5v-214q0 -126 -73.5 -190.5t-212.5 -64.5t-212.5 64.5zM448.5 135.5q37.5 37.5 37.5 107.5v214q0 70 -37.5 107.5t-107.5 37.5t-107.5 -37.5t-37.5 -107.5v-214
q0 -70 37.5 -107.5t107.5 -37.5t107.5 37.5zM209.5 1043q29.5 35 80.5 35q18 0 33.5 -5t34.5 -14q28 -14 43 -14q9 0 17 10.5t10 30.5h76q-5 -50 -33 -85.5t-70 -35.5q-18 0 -33.5 5t-34.5 14q-28 14 -43 14q-12 0 -22 -10t-14 -31h-76q2 51 31.5 86zM224.5 834
q36.5 45 60.5 90h110q24 -45 60.5 -90t62.5 -69h-114q-40 35 -64 74q-24 -39 -64 -74h-114q26 24 62.5 69z" />
    <glyph glyph-name="Odieresis" unicode="&#xd6;" horiz-adv-x="682" 
d="M128.5 52.5q-73.5 64.5 -73.5 190.5v214q0 126 73.5 190.5t212.5 64.5t212.5 -64.5t73.5 -190.5v-214q0 -126 -73.5 -190.5t-212.5 -64.5t-212.5 64.5zM448.5 135.5q37.5 37.5 37.5 107.5v214q0 70 -37.5 107.5t-107.5 37.5t-107.5 -37.5t-37.5 -107.5v-214
q0 -70 37.5 -107.5t107.5 -37.5t107.5 37.5zM207 776q-19 19 -19 45t19 44.5t45 18.5q25 0 44 -18.5t19 -44.5t-18.5 -45t-44.5 -19t-45 19zM385.5 776q-18.5 19 -18.5 45t18.5 44.5t45.5 18.5q26 0 45 -19t19 -44q0 -26 -19 -45t-45 -19q-27 0 -45.5 19z" />
    <glyph glyph-name="uni1ECC" unicode="&#x1ecc;" horiz-adv-x="682" 
d="M128.5 52.5q-73.5 64.5 -73.5 190.5v214q0 126 73.5 190.5t212.5 64.5t212.5 -64.5t73.5 -190.5v-214q0 -126 -73.5 -190.5t-212.5 -64.5t-212.5 64.5zM448.5 135.5q37.5 37.5 37.5 107.5v214q0 70 -37.5 107.5t-107.5 37.5t-107.5 -37.5t-37.5 -107.5v-214
q0 -70 37.5 -107.5t107.5 -37.5t107.5 37.5zM290 -173q-21 21 -21 51q0 29 21 50.5t51 21.5q29 0 50.5 -21.5t21.5 -50.5q0 -30 -21.5 -51t-50.5 -21q-30 0 -51 21z" />
    <glyph glyph-name="Ograve" unicode="&#xd2;" horiz-adv-x="682" 
d="M128.5 52.5q-73.5 64.5 -73.5 190.5v214q0 126 73.5 190.5t212.5 64.5t212.5 -64.5t73.5 -190.5v-214q0 -126 -73.5 -190.5t-212.5 -64.5t-212.5 64.5zM448.5 135.5q37.5 37.5 37.5 107.5v214q0 70 -37.5 107.5t-107.5 37.5t-107.5 -37.5t-37.5 -107.5v-214
q0 -70 37.5 -107.5t107.5 -37.5t107.5 37.5zM180 922h136l80 -157h-105z" />
    <glyph glyph-name="uni1ECE" unicode="&#x1ece;" horiz-adv-x="682" 
d="M128.5 52.5q-73.5 64.5 -73.5 190.5v214q0 126 73.5 190.5t212.5 64.5t212.5 -64.5t73.5 -190.5v-214q0 -126 -73.5 -190.5t-212.5 -64.5t-212.5 64.5zM448.5 135.5q37.5 37.5 37.5 107.5v214q0 70 -37.5 107.5t-107.5 37.5t-107.5 -37.5t-37.5 -107.5v-214
q0 -70 37.5 -107.5t107.5 -37.5t107.5 37.5zM381 802v-37h-93v81q48 4 69 13.5t21 27.5q0 17 -11.5 24.5t-35.5 7.5q-29 0 -62 -14l-22 69q43 21 99 21q63 0 97 -24.5t34 -73.5q0 -72 -96 -95z" />
    <glyph glyph-name="Ohorn" unicode="&#x1a0;" horiz-adv-x="702" 
d="M743.5 578.5q-37.5 -49.5 -121.5 -59.5q5 -32 5 -62v-214q0 -126 -73.5 -190.5t-212.5 -64.5t-212.5 64.5t-73.5 190.5v214q0 126 73.5 190.5t212.5 64.5q98 0 164 -32.5t97 -96.5q40 8 53 43t14 104h116q-4 -102 -41.5 -151.5zM486 457q0 70 -37.5 107.5t-107.5 37.5
t-107.5 -37.5t-37.5 -107.5v-214q0 -70 37.5 -107.5t107.5 -37.5t107.5 37.5t37.5 107.5v214z" />
    <glyph glyph-name="uni1EDA" unicode="&#x1eda;" horiz-adv-x="702" 
d="M743.5 578.5q-37.5 -49.5 -121.5 -59.5q5 -32 5 -62v-214q0 -126 -73.5 -190.5t-212.5 -64.5t-212.5 64.5t-73.5 190.5v214q0 126 73.5 190.5t212.5 64.5q98 0 164 -32.5t97 -96.5q40 8 53 43t14 104h116q-4 -102 -41.5 -151.5zM486 457q0 70 -37.5 107.5t-107.5 37.5
t-107.5 -37.5t-37.5 -107.5v-214q0 -70 37.5 -107.5t107.5 -37.5t107.5 37.5t37.5 107.5v214zM360 922h136l-111 -157h-105z" />
    <glyph glyph-name="uni1EE2" unicode="&#x1ee2;" horiz-adv-x="702" 
d="M743.5 578.5q-37.5 -49.5 -121.5 -59.5q5 -32 5 -62v-214q0 -126 -73.5 -190.5t-212.5 -64.5t-212.5 64.5t-73.5 190.5v214q0 126 73.5 190.5t212.5 64.5q98 0 164 -32.5t97 -96.5q40 8 53 43t14 104h116q-4 -102 -41.5 -151.5zM486 457q0 70 -37.5 107.5t-107.5 37.5
t-107.5 -37.5t-37.5 -107.5v-214q0 -70 37.5 -107.5t107.5 -37.5t107.5 37.5t37.5 107.5v214zM290 -173q-21 21 -21 51q0 29 21 50.5t51 21.5q29 0 50.5 -21.5t21.5 -50.5q0 -30 -21.5 -51t-50.5 -21q-30 0 -51 21z" />
    <glyph glyph-name="uni1EDC" unicode="&#x1edc;" horiz-adv-x="702" 
d="M743.5 578.5q-37.5 -49.5 -121.5 -59.5q5 -32 5 -62v-214q0 -126 -73.5 -190.5t-212.5 -64.5t-212.5 64.5t-73.5 190.5v214q0 126 73.5 190.5t212.5 64.5q98 0 164 -32.5t97 -96.5q40 8 53 43t14 104h116q-4 -102 -41.5 -151.5zM486 457q0 70 -37.5 107.5t-107.5 37.5
t-107.5 -37.5t-37.5 -107.5v-214q0 -70 37.5 -107.5t107.5 -37.5t107.5 37.5t37.5 107.5v214zM180 922h136l80 -157h-105z" />
    <glyph glyph-name="uni1EDE" unicode="&#x1ede;" horiz-adv-x="702" 
d="M743.5 578.5q-37.5 -49.5 -121.5 -59.5q5 -32 5 -62v-214q0 -126 -73.5 -190.5t-212.5 -64.5t-212.5 64.5t-73.5 190.5v214q0 126 73.5 190.5t212.5 64.5q98 0 164 -32.5t97 -96.5q40 8 53 43t14 104h116q-4 -102 -41.5 -151.5zM486 457q0 70 -37.5 107.5t-107.5 37.5
t-107.5 -37.5t-37.5 -107.5v-214q0 -70 37.5 -107.5t107.5 -37.5t107.5 37.5t37.5 107.5v214zM381 802v-37h-93v81q48 4 69 13.5t21 27.5q0 17 -11.5 24.5t-35.5 7.5q-29 0 -62 -14l-22 69q43 21 99 21q63 0 97 -24.5t34 -73.5q0 -72 -96 -95z" />
    <glyph glyph-name="uni1EE0" unicode="&#x1ee0;" horiz-adv-x="702" 
d="M743.5 578.5q-37.5 -49.5 -121.5 -59.5q5 -32 5 -62v-214q0 -126 -73.5 -190.5t-212.5 -64.5t-212.5 64.5t-73.5 190.5v214q0 126 73.5 190.5t212.5 64.5q98 0 164 -32.5t97 -96.5q40 8 53 43t14 104h116q-4 -102 -41.5 -151.5zM486 457q0 70 -37.5 107.5t-107.5 37.5
t-107.5 -37.5t-37.5 -107.5v-214q0 -70 37.5 -107.5t107.5 -37.5t107.5 37.5t37.5 107.5v214zM199.5 868q29.5 41 85.5 41q20 0 37 -6t38 -17q3 -1 18.5 -8.5t28.5 -7.5q19 0 23 48h84q-5 -60 -33 -102t-74 -42q-20 0 -37 6t-38 17q-3 1 -18.5 8.5t-28.5 7.5t-21 -11.5
t-12 -36.5h-84q2 62 31.5 103z" />
    <glyph glyph-name="Ohungarumlaut" unicode="&#x150;" horiz-adv-x="682" 
d="M128.5 52.5q-73.5 64.5 -73.5 190.5v214q0 126 73.5 190.5t212.5 64.5t212.5 -64.5t73.5 -190.5v-214q0 -126 -73.5 -190.5t-212.5 -64.5t-212.5 64.5zM448.5 135.5q37.5 37.5 37.5 107.5v214q0 70 -37.5 107.5t-107.5 37.5t-107.5 -37.5t-37.5 -107.5v-214
q0 -70 37.5 -107.5t107.5 -37.5t107.5 37.5zM266 922h116l-81 -157h-95zM436 922h116l-81 -157h-95z" />
    <glyph glyph-name="Omacron" unicode="&#x14c;" horiz-adv-x="682" 
d="M128.5 52.5q-73.5 64.5 -73.5 190.5v214q0 126 73.5 190.5t212.5 64.5t212.5 -64.5t73.5 -190.5v-214q0 -126 -73.5 -190.5t-212.5 -64.5t-212.5 64.5zM448.5 135.5q37.5 37.5 37.5 107.5v214q0 70 -37.5 107.5t-107.5 37.5t-107.5 -37.5t-37.5 -107.5v-214
q0 -70 37.5 -107.5t107.5 -37.5t107.5 37.5zM180 867h322v-90h-322v90z" />
    <glyph glyph-name="Oslash" unicode="&#xd8;" horiz-adv-x="682" 
d="M627 457v-214q0 -126 -73.5 -190.5t-212.5 -64.5q-64 0 -112 13l-36 -71h-101l55 108q-92 64 -92 205v214q0 126 73.5 190.5t212.5 64.5q83 0 140 -22l41 80h101l-65 -127q69 -64 69 -186zM212 165l214 417q-35 20 -85 20q-70 0 -107.5 -37.5t-37.5 -107.5v-214
q0 -44 16 -78zM486 457q0 21 -3 39l-200 -390q27 -8 58 -8q70 0 107.5 37.5t37.5 107.5v214z" />
    <glyph glyph-name="Oslashacute" unicode="&#x1fe;" horiz-adv-x="682" 
d="M627 457v-214q0 -126 -73.5 -190.5t-212.5 -64.5q-64 0 -112 13l-36 -71h-101l55 108q-92 64 -92 205v214q0 126 73.5 190.5t212.5 64.5q83 0 140 -22l41 80h101l-65 -127q69 -64 69 -186zM212 165l214 417q-35 20 -85 20q-70 0 -107.5 -37.5t-37.5 -107.5v-214
q0 -44 16 -78zM486 457q0 21 -3 39l-200 -390q27 -8 58 -8q70 0 107.5 37.5t37.5 107.5v214zM360 922h136l-111 -157h-105z" />
    <glyph glyph-name="Otilde" unicode="&#xd5;" horiz-adv-x="682" 
d="M128.5 52.5q-73.5 64.5 -73.5 190.5v214q0 126 73.5 190.5t212.5 64.5t212.5 -64.5t73.5 -190.5v-214q0 -126 -73.5 -190.5t-212.5 -64.5t-212.5 64.5zM448.5 135.5q37.5 37.5 37.5 107.5v214q0 70 -37.5 107.5t-107.5 37.5t-107.5 -37.5t-37.5 -107.5v-214
q0 -70 37.5 -107.5t107.5 -37.5t107.5 37.5zM199.5 868q29.5 41 85.5 41q20 0 37 -6t38 -17q3 -1 18.5 -8.5t28.5 -7.5q19 0 23 48h84q-5 -60 -33 -102t-74 -42q-20 0 -37 6t-38 17q-3 1 -18.5 8.5t-28.5 7.5t-21 -11.5t-12 -36.5h-84q2 62 31.5 103z" />
    <glyph glyph-name="OE" unicode="&#x152;" horiz-adv-x="1006" 
d="M971 110v-110h-236q-123 0 -184 50q-73 -62 -210 -62q-139 0 -212.5 64.5t-73.5 190.5v214q0 126 73.5 190.5t212.5 64.5q137 0 210 -62q61 50 184 50h234v-110h-234q-55 0 -81.5 -26t-26.5 -82v-77h298v-110h-298v-77q0 -55 26.5 -81.5t81.5 -26.5h236zM448.5 135.5
q37.5 37.5 37.5 107.5v214q0 70 -37.5 107.5t-107.5 37.5t-107.5 -37.5t-37.5 -107.5v-214q0 -70 37.5 -107.5t107.5 -37.5t107.5 37.5z" />
    <glyph glyph-name="P" unicode="P" horiz-adv-x="638" 
d="M85 700h283q128 0 189 -54.5t61 -168.5t-61 -168.5t-189 -54.5h-142v-254h-141v700zM372 364q46 0 75.5 28t29.5 85t-29.5 85t-75.5 28h-146v-226h146z" />
    <glyph glyph-name="Thorn" unicode="&#xde;" horiz-adv-x="638" 
d="M85 700h141v-128h142q128 0 189 -54.5t61 -168.5t-61 -168.5t-189 -54.5h-142v-126h-141v700zM372 236q46 0 75.5 28t29.5 85t-29.5 85t-75.5 28h-146v-226h146z" />
    <glyph glyph-name="Q" unicode="Q" horiz-adv-x="682" 
d="M583.5 85.5q-43.5 -60.5 -128.5 -83.5q46 -43 154 -43v-118q-116 0 -186 36t-104 111q-128 5 -196 69.5t-68 185.5v214q0 126 73.5 190.5t212.5 64.5t212.5 -64.5t73.5 -190.5v-214q0 -97 -43.5 -157.5zM486 457q0 70 -37.5 107.5t-107.5 37.5t-107.5 -37.5t-37.5 -107.5
v-214q0 -70 37.5 -107.5t107.5 -37.5t107.5 37.5t37.5 107.5v214z" />
    <glyph glyph-name="R" unicode="R" horiz-adv-x="682" 
d="M652 0h-149l-46 155q-14 48 -28 74.5t-38 40.5t-64 14h-101v-284h-141v700h283q128 0 189 -50.5t61 -157.5q0 -69 -36.5 -111t-100.5 -54q51 -17 77 -59t48 -114zM447.5 418.5q29.5 24.5 29.5 73.5t-29.5 73.5t-75.5 24.5h-146v-196h146q46 0 75.5 24.5z" />
    <glyph glyph-name="Racute" unicode="&#x154;" horiz-adv-x="682" 
d="M652 0h-149l-46 155q-14 48 -28 74.5t-38 40.5t-64 14h-101v-284h-141v700h283q128 0 189 -50.5t61 -157.5q0 -69 -36.5 -111t-100.5 -54q51 -17 77 -59t48 -114zM447.5 418.5q29.5 24.5 29.5 73.5t-29.5 73.5t-75.5 24.5h-146v-196h146q46 0 75.5 24.5zM366 922h136
l-111 -157h-105z" />
    <glyph glyph-name="Rcaron" unicode="&#x158;" horiz-adv-x="682" 
d="M652 0h-149l-46 155q-14 48 -28 74.5t-38 40.5t-64 14h-101v-284h-141v700h283q128 0 189 -50.5t61 -157.5q0 -69 -36.5 -111t-100.5 -54q51 -17 77 -59t48 -114zM447.5 418.5q29.5 24.5 29.5 73.5t-29.5 73.5t-75.5 24.5h-146v-196h146q46 0 75.5 24.5zM230.5 855
q-36.5 45 -62.5 69h114q40 -35 64 -74q24 39 64 74h114q-26 -24 -62.5 -69t-60.5 -90h-110q-24 45 -60.5 90z" />
    <glyph glyph-name="uni0156" unicode="&#x156;" horiz-adv-x="682" 
d="M652 0h-149l-46 155q-14 48 -28 74.5t-38 40.5t-64 14h-101v-284h-141v700h283q128 0 189 -50.5t61 -157.5q0 -69 -36.5 -111t-100.5 -54q51 -17 77 -59t48 -114zM447.5 418.5q29.5 24.5 29.5 73.5t-29.5 73.5t-75.5 24.5h-146v-196h146q46 0 75.5 24.5zM419.5 -76.5
q20.5 -24.5 20.5 -69.5q0 -55 -26 -98.5t-77 -84.5l-39 37q30 23 46.5 45t22.5 47q-13 -6 -31 -6q-26 0 -41 17.5t-15 48.5q0 33 23.5 60.5t58.5 27.5q37 0 57.5 -24.5z" />
    <glyph glyph-name="uni1E5A" unicode="&#x1e5a;" horiz-adv-x="682" 
d="M652 0h-149l-46 155q-14 48 -28 74.5t-38 40.5t-64 14h-101v-284h-141v700h283q128 0 189 -50.5t61 -157.5q0 -69 -36.5 -111t-100.5 -54q51 -17 77 -59t48 -114zM447.5 418.5q29.5 24.5 29.5 73.5t-29.5 73.5t-75.5 24.5h-146v-196h146q46 0 75.5 24.5zM311 -173
q-21 21 -21 51q0 29 21 50.5t51 21.5q29 0 50.5 -21.5t21.5 -50.5q0 -30 -21.5 -51t-50.5 -21q-30 0 -51 21z" />
    <glyph glyph-name="uni1E5C" unicode="&#x1e5c;" horiz-adv-x="682" 
d="M652 0h-149l-46 155q-14 48 -28 74.5t-38 40.5t-64 14h-101v-284h-141v700h283q128 0 189 -50.5t61 -157.5q0 -69 -36.5 -111t-100.5 -54q51 -17 77 -59t48 -114zM447.5 418.5q29.5 24.5 29.5 73.5t-29.5 73.5t-75.5 24.5h-146v-196h146q46 0 75.5 24.5zM311 -173
q-21 21 -21 51q0 29 21 50.5t51 21.5q29 0 50.5 -21.5t21.5 -50.5q0 -30 -21.5 -51t-50.5 -21q-30 0 -51 21zM186 867h322v-90h-322v90z" />
    <glyph glyph-name="uni1E5E" unicode="&#x1e5e;" horiz-adv-x="682" 
d="M652 0h-149l-46 155q-14 48 -28 74.5t-38 40.5t-64 14h-101v-284h-141v700h283q128 0 189 -50.5t61 -157.5q0 -69 -36.5 -111t-100.5 -54q51 -17 77 -59t48 -114zM447.5 418.5q29.5 24.5 29.5 73.5t-29.5 73.5t-75.5 24.5h-146v-196h146q46 0 75.5 24.5zM201 -72h322v-90
h-322v90z" />
    <glyph glyph-name="S" unicode="S" horiz-adv-x="634" 
d="M184.5 4q-48.5 16 -81.5 44t-68 75l95 79q41 -57 79.5 -80.5t95.5 -23.5q79 0 115 23t36 74q0 26 -17 42.5t-58.5 30.5t-123.5 31q-96 20 -142.5 71.5t-46.5 137.5q0 62 31.5 108t89.5 71t135 25q100 0 159 -29.5t96 -86.5l-93 -76q-31 31 -51.5 47.5t-46.5 25.5t-64 9
q-57 0 -86 -25t-29 -72q0 -44 37 -64.5t95 -33.5q86 -18 137 -37t85 -61t34 -115q0 -104 -72.5 -155t-219.5 -51q-72 0 -120.5 16z" />
    <glyph glyph-name="Sacute" unicode="&#x15a;" horiz-adv-x="634" 
d="M184.5 4q-48.5 16 -81.5 44t-68 75l95 79q41 -57 79.5 -80.5t95.5 -23.5q79 0 115 23t36 74q0 26 -17 42.5t-58.5 30.5t-123.5 31q-96 20 -142.5 71.5t-46.5 137.5q0 62 31.5 108t89.5 71t135 25q100 0 159 -29.5t96 -86.5l-93 -76q-31 31 -51.5 47.5t-46.5 25.5t-64 9
q-57 0 -86 -25t-29 -72q0 -44 37 -64.5t95 -33.5q86 -18 137 -37t85 -61t34 -115q0 -104 -72.5 -155t-219.5 -51q-72 0 -120.5 16zM343 922h136l-111 -157h-105z" />
    <glyph glyph-name="Scaron" unicode="&#x160;" horiz-adv-x="634" 
d="M184.5 4q-48.5 16 -81.5 44t-68 75l95 79q41 -57 79.5 -80.5t95.5 -23.5q79 0 115 23t36 74q0 26 -17 42.5t-58.5 30.5t-123.5 31q-96 20 -142.5 71.5t-46.5 137.5q0 62 31.5 108t89.5 71t135 25q100 0 159 -29.5t96 -86.5l-93 -76q-31 31 -51.5 47.5t-46.5 25.5t-64 9
q-57 0 -86 -25t-29 -72q0 -44 37 -64.5t95 -33.5q86 -18 137 -37t85 -61t34 -115q0 -104 -72.5 -155t-219.5 -51q-72 0 -120.5 16zM207.5 855q-36.5 45 -62.5 69h114q40 -35 64 -74q24 39 64 74h114q-26 -24 -62.5 -69t-60.5 -90h-110q-24 45 -60.5 90z" />
    <glyph glyph-name="Scedilla" unicode="&#x15e;" horiz-adv-x="634" 
d="M542 52.5q-55 -50.5 -167 -61.5l-9 -26q88 -11 88 -96q0 -52 -36.5 -77.5t-104.5 -25.5q-62 0 -109 25l22 70q38 -19 72 -19q57 0 57 27q0 16 -12 25t-47 9q-8 0 -34 -2l21 87q-65 2 -109 18.5t-75 44t-64 72.5l95 79q41 -57 79.5 -80.5t95.5 -23.5q79 0 115 23t36 74
q0 26 -17 42.5t-58.5 30.5t-123.5 31q-96 20 -142.5 71.5t-46.5 137.5q0 62 31.5 108t89.5 71t135 25q100 0 159 -29.5t96 -86.5l-93 -76q-31 31 -51.5 47.5t-46.5 25.5t-64 9q-57 0 -86 -25t-29 -72q0 -44 37 -64.5t95 -33.5q86 -18 137 -37t85 -61t34 -115
q0 -91 -55 -141.5z" />
    <glyph glyph-name="Scircumflex" unicode="&#x15c;" horiz-adv-x="634" 
d="M184.5 4q-48.5 16 -81.5 44t-68 75l95 79q41 -57 79.5 -80.5t95.5 -23.5q79 0 115 23t36 74q0 26 -17 42.5t-58.5 30.5t-123.5 31q-96 20 -142.5 71.5t-46.5 137.5q0 62 31.5 108t89.5 71t135 25q100 0 159 -29.5t96 -86.5l-93 -76q-31 31 -51.5 47.5t-46.5 25.5t-64 9
q-57 0 -86 -25t-29 -72q0 -44 37 -64.5t95 -33.5q86 -18 137 -37t85 -61t34 -115q0 -104 -72.5 -155t-219.5 -51q-72 0 -120.5 16zM207.5 834q36.5 45 60.5 90h110q24 -45 60.5 -90t62.5 -69h-114q-40 35 -64 74q-24 -39 -64 -74h-114q26 24 62.5 69z" />
    <glyph glyph-name="uni0218" unicode="&#x218;" horiz-adv-x="634" 
d="M184.5 4q-48.5 16 -81.5 44t-68 75l95 79q41 -57 79.5 -80.5t95.5 -23.5q79 0 115 23t36 74q0 26 -17 42.5t-58.5 30.5t-123.5 31q-96 20 -142.5 71.5t-46.5 137.5q0 62 31.5 108t89.5 71t135 25q100 0 159 -29.5t96 -86.5l-93 -76q-31 31 -51.5 47.5t-46.5 25.5t-64 9
q-57 0 -86 -25t-29 -72q0 -44 37 -64.5t95 -33.5q86 -18 137 -37t85 -61t34 -115q0 -104 -72.5 -155t-219.5 -51q-72 0 -120.5 16zM385.5 -76.5q20.5 -24.5 20.5 -69.5q0 -55 -26 -98.5t-77 -84.5l-39 37q30 23 46.5 45t22.5 47q-13 -6 -31 -6q-26 0 -41 17.5t-15 48.5
q0 33 23.5 60.5t58.5 27.5q37 0 57.5 -24.5z" />
    <glyph glyph-name="uni1E60" unicode="&#x1e60;" horiz-adv-x="634" 
d="M184.5 4q-48.5 16 -81.5 44t-68 75l95 79q41 -57 79.5 -80.5t95.5 -23.5q79 0 115 23t36 74q0 26 -17 42.5t-58.5 30.5t-123.5 31q-96 20 -142.5 71.5t-46.5 137.5q0 62 31.5 108t89.5 71t135 25q100 0 159 -29.5t96 -86.5l-93 -76q-31 31 -51.5 47.5t-46.5 25.5t-64 9
q-57 0 -86 -25t-29 -72q0 -44 37 -64.5t95 -33.5q86 -18 137 -37t85 -61t34 -115q0 -104 -72.5 -155t-219.5 -51q-72 0 -120.5 16zM273 778q-21 21 -21 51q0 29 21 50.5t51 21.5q29 0 50.5 -21.5t21.5 -50.5q0 -30 -21.5 -51t-50.5 -21q-30 0 -51 21z" />
    <glyph glyph-name="uni1E62" unicode="&#x1e62;" horiz-adv-x="634" 
d="M184.5 4q-48.5 16 -81.5 44t-68 75l95 79q41 -57 79.5 -80.5t95.5 -23.5q79 0 115 23t36 74q0 26 -17 42.5t-58.5 30.5t-123.5 31q-96 20 -142.5 71.5t-46.5 137.5q0 62 31.5 108t89.5 71t135 25q100 0 159 -29.5t96 -86.5l-93 -76q-31 31 -51.5 47.5t-46.5 25.5t-64 9
q-57 0 -86 -25t-29 -72q0 -44 37 -64.5t95 -33.5q86 -18 137 -37t85 -61t34 -115q0 -104 -72.5 -155t-219.5 -51q-72 0 -120.5 16zM277 -173q-21 21 -21 51q0 29 21 50.5t51 21.5q29 0 50.5 -21.5t21.5 -50.5q0 -30 -21.5 -51t-50.5 -21q-30 0 -51 21z" />
    <glyph glyph-name="uni1E9E" unicode="&#x1e9e;" horiz-adv-x="678" 
d="M289 9v111q43 -22 95 -22q57 0 82.5 17t25.5 55v64q0 32 -33.5 51t-84.5 19h-26v121l144 139q-83 38 -151 38q-58 0 -86.5 -35.5t-28.5 -110.5v-456h-141v456q0 124 60.5 190t198.5 66q76 0 147 -22t128 -61v-99l-133 -129q77 -16 112 -56t35 -111v-76q0 -86 -59 -128
t-180 -42q-57 0 -105 21z" />
    <glyph glyph-name="uni018F" unicode="&#x18f;" horiz-adv-x="694" 
d="M565 647.5q74 -64.5 74 -190.5v-220q0 -123 -74 -186t-212 -63q-144 0 -221 69t-77 208q0 75 40 108.5t139 33.5h264v50q0 72 -35.5 108.5t-112.5 36.5q-70 0 -108.5 -18.5t-73.5 -60.5l-89 81q38 55 103 81.5t168 26.5q141 0 215 -64.5zM460.5 133.5
q37.5 35.5 37.5 103.5v60h-208q-54 0 -74 -12.5t-20 -47.5q0 -68 41 -103.5t116 -35.5q70 0 107.5 35.5z" />
    <glyph glyph-name="T" unicode="T" horiz-adv-x="603" 
d="M231 590h-211v110h563v-110h-211v-590h-141v590z" />
    <glyph glyph-name="Tbar" unicode="&#x166;" horiz-adv-x="603" 
d="M372 590v-189h146v-98h-146v-303h-141v303h-146v98h146v189h-211v110h563v-110h-211z" />
    <glyph glyph-name="Tcaron" unicode="&#x164;" horiz-adv-x="603" 
d="M231 590h-211v110h563v-110h-211v-590h-141v590zM184.5 855q-36.5 45 -62.5 69h114q40 -35 64 -74q24 39 64 74h114q-26 -24 -62.5 -69t-60.5 -90h-110q-24 45 -60.5 90z" />
    <glyph glyph-name="uni0162" unicode="&#x162;" horiz-adv-x="603" 
d="M350 0l-11 -35q88 -11 88 -96q0 -52 -36.5 -77.5t-104.5 -25.5q-62 0 -109 25l22 70q38 -19 72 -19q57 0 57 27q0 16 -12 25t-47 9q-8 0 -34 -2l24 99h-28v590h-211v110h563v-110h-211v-590h-22z" />
    <glyph glyph-name="uni021A" unicode="&#x21a;" horiz-adv-x="603" 
d="M231 590h-211v110h563v-110h-211v-590h-141v590zM358.5 -76.5q20.5 -24.5 20.5 -69.5q0 -55 -26 -98.5t-77 -84.5l-39 37q30 23 46.5 45t22.5 47q-13 -6 -31 -6q-26 0 -41 17.5t-15 48.5q0 33 23.5 60.5t58.5 27.5q37 0 57.5 -24.5z" />
    <glyph glyph-name="uni1E6C" unicode="&#x1e6c;" horiz-adv-x="603" 
d="M231 590h-211v110h563v-110h-211v-590h-141v590zM250 -173q-21 21 -21 51q0 29 21 50.5t51 21.5q29 0 50.5 -21.5t21.5 -50.5q0 -30 -21.5 -51t-50.5 -21q-30 0 -51 21z" />
    <glyph glyph-name="uni1E6E" unicode="&#x1e6e;" horiz-adv-x="603" 
d="M231 590h-211v110h563v-110h-211v-590h-141v590zM140 -72h322v-90h-322v90z" />
    <glyph glyph-name="U" unicode="U" horiz-adv-x="674" 
d="M130 45.5q-70 58.5 -70 162.5v492h141v-492q0 -111 136 -111t136 111v492h141v-492q0 -104 -70 -162.5t-207 -58.5t-207 58.5z" />
    <glyph glyph-name="Uacute" unicode="&#xda;" horiz-adv-x="674" 
d="M130 45.5q-70 58.5 -70 162.5v492h141v-492q0 -111 136 -111t136 111v492h141v-492q0 -104 -70 -162.5t-207 -58.5t-207 58.5zM356 922h136l-111 -157h-105z" />
    <glyph glyph-name="Ubreve" unicode="&#x16c;" horiz-adv-x="674" 
d="M130 45.5q-70 58.5 -70 162.5v492h141v-492q0 -111 136 -111t136 111v492h141v-492q0 -104 -70 -162.5t-207 -58.5t-207 58.5zM215 800.5q-45 45.5 -45 121.5h93q3 -36 22 -56.5t52 -20.5t52.5 21t21.5 56h93q0 -76 -45.5 -121.5t-121.5 -45.5q-77 0 -122 45.5z" />
    <glyph glyph-name="uni01D3" unicode="&#x1d3;" horiz-adv-x="674" 
d="M130 45.5q-70 58.5 -70 162.5v492h141v-492q0 -111 136 -111t136 111v492h141v-492q0 -104 -70 -162.5t-207 -58.5t-207 58.5zM220.5 855q-36.5 45 -62.5 69h114q40 -35 64 -74q24 39 64 74h114q-26 -24 -62.5 -69t-60.5 -90h-110q-24 45 -60.5 90z" />
    <glyph glyph-name="Ucircumflex" unicode="&#xdb;" horiz-adv-x="674" 
d="M130 45.5q-70 58.5 -70 162.5v492h141v-492q0 -111 136 -111t136 111v492h141v-492q0 -104 -70 -162.5t-207 -58.5t-207 58.5zM220.5 834q36.5 45 60.5 90h110q24 -45 60.5 -90t62.5 -69h-114q-40 35 -64 74q-24 -39 -64 -74h-114q26 24 62.5 69z" />
    <glyph glyph-name="Udieresis" unicode="&#xdc;" horiz-adv-x="674" 
d="M130 45.5q-70 58.5 -70 162.5v492h141v-492q0 -111 136 -111t136 111v492h141v-492q0 -104 -70 -162.5t-207 -58.5t-207 58.5zM203 776q-19 19 -19 45t19 44.5t45 18.5q25 0 44 -18.5t19 -44.5t-18.5 -45t-44.5 -19t-45 19zM381.5 776q-18.5 19 -18.5 45t18.5 44.5
t45.5 18.5q26 0 45 -19t19 -44q0 -26 -19 -45t-45 -19q-27 0 -45.5 19z" />
    <glyph glyph-name="uni01D7" unicode="&#x1d7;" horiz-adv-x="674" 
d="M130 45.5q-70 58.5 -70 162.5v492h141v-492q0 -111 136 -111t136 111v492h141v-492q0 -104 -70 -162.5t-207 -58.5t-207 58.5zM344 1064h126l-94 -126h-95zM203 776q-19 19 -19 45t19 44.5t45 18.5t44.5 -18.5t18.5 -44.5t-18.5 -45t-44.5 -19t-45 19zM381.5 776
q-18.5 19 -18.5 45t18.5 44.5t45.5 18.5q26 0 45 -19t19 -44q0 -26 -19 -45t-45 -19q-27 0 -45.5 19z" />
    <glyph glyph-name="uni01D9" unicode="&#x1d9;" horiz-adv-x="674" 
d="M130 45.5q-70 58.5 -70 162.5v492h141v-492q0 -111 136 -111t136 111v492h141v-492q0 -104 -70 -162.5t-207 -58.5t-207 58.5zM228 1007q-34 38 -59 57h108q39 -30 60 -62q21 32 60 62h108q-25 -19 -59 -57t-57 -76h-104q-23 38 -57 76zM203 776q-19 19 -19 45t19 44.5
t45 18.5t44.5 -18.5t18.5 -44.5t-18.5 -45t-44.5 -19t-45 19zM381.5 776q-18.5 19 -18.5 45t18.5 44.5t45.5 18.5q26 0 45 -19t19 -44q0 -26 -19 -45t-45 -19q-27 0 -45.5 19z" />
    <glyph glyph-name="uni01DB" unicode="&#x1db;" horiz-adv-x="674" 
d="M130 45.5q-70 58.5 -70 162.5v492h141v-492q0 -111 136 -111t136 111v492h141v-492q0 -104 -70 -162.5t-207 -58.5t-207 58.5zM195 1064h126l63 -126h-95zM203 776q-19 19 -19 45t19 44.5t45 18.5t44.5 -18.5t18.5 -44.5t-18.5 -45t-44.5 -19t-45 19zM381.5 776
q-18.5 19 -18.5 45t18.5 44.5t45.5 18.5q26 0 45 -19t19 -44q0 -26 -19 -45t-45 -19q-27 0 -45.5 19z" />
    <glyph glyph-name="uni01D5" unicode="&#x1d5;" horiz-adv-x="674" 
d="M130 45.5q-70 58.5 -70 162.5v492h141v-492q0 -111 136 -111t136 111v492h141v-492q0 -104 -70 -162.5t-207 -58.5t-207 58.5zM175 1023h322v-90h-322v90zM203 776q-19 19 -19 45t19 44.5t45 18.5t44.5 -18.5t18.5 -44.5t-18.5 -45t-44.5 -19t-45 19zM381.5 776
q-18.5 19 -18.5 45t18.5 44.5t45.5 18.5q26 0 45 -19t19 -44q0 -26 -19 -45t-45 -19q-27 0 -45.5 19z" />
    <glyph glyph-name="uni1EE4" unicode="&#x1ee4;" horiz-adv-x="674" 
d="M130 45.5q-70 58.5 -70 162.5v492h141v-492q0 -111 136 -111t136 111v492h141v-492q0 -104 -70 -162.5t-207 -58.5t-207 58.5zM286 -173q-21 21 -21 51q0 29 21 50.5t51 21.5q29 0 50.5 -21.5t21.5 -50.5q0 -30 -21.5 -51t-50.5 -21q-30 0 -51 21z" />
    <glyph glyph-name="Ugrave" unicode="&#xd9;" horiz-adv-x="674" 
d="M130 45.5q-70 58.5 -70 162.5v492h141v-492q0 -111 136 -111t136 111v492h141v-492q0 -104 -70 -162.5t-207 -58.5t-207 58.5zM176 922h136l80 -157h-105z" />
    <glyph glyph-name="uni1EE6" unicode="&#x1ee6;" horiz-adv-x="674" 
d="M130 45.5q-70 58.5 -70 162.5v492h141v-492q0 -111 136 -111t136 111v492h141v-492q0 -104 -70 -162.5t-207 -58.5t-207 58.5zM377 802v-37h-93v81q48 4 69 13.5t21 27.5q0 17 -11.5 24.5t-35.5 7.5q-29 0 -62 -14l-22 69q43 21 99 21q63 0 97 -24.5t34 -73.5
q0 -72 -96 -95z" />
    <glyph glyph-name="Uhorn" unicode="&#x1af;" horiz-adv-x="776" 
d="M760.5 569.5q-44.5 -49.5 -146.5 -52.5v-309q0 -104 -70 -162.5t-207 -58.5t-207 58.5t-70 162.5v492h141v-492q0 -111 136 -111t136 111v492h141v-118q47 3 63 38.5t17 109.5h116q-5 -111 -49.5 -160.5z" />
    <glyph glyph-name="uni1EE8" unicode="&#x1ee8;" horiz-adv-x="776" 
d="M760.5 569.5q-44.5 -49.5 -146.5 -52.5v-309q0 -104 -70 -162.5t-207 -58.5t-207 58.5t-70 162.5v492h141v-492q0 -111 136 -111t136 111v492h141v-118q47 3 63 38.5t17 109.5h116q-5 -111 -49.5 -160.5zM356 922h136l-111 -157h-105z" />
    <glyph glyph-name="uni1EF0" unicode="&#x1ef0;" horiz-adv-x="776" 
d="M760.5 569.5q-44.5 -49.5 -146.5 -52.5v-309q0 -104 -70 -162.5t-207 -58.5t-207 58.5t-70 162.5v492h141v-492q0 -111 136 -111t136 111v492h141v-118q47 3 63 38.5t17 109.5h116q-5 -111 -49.5 -160.5zM286 -173q-21 21 -21 51q0 29 21 50.5t51 21.5q29 0 50.5 -21.5
t21.5 -50.5q0 -30 -21.5 -51t-50.5 -21q-30 0 -51 21z" />
    <glyph glyph-name="uni1EEA" unicode="&#x1eea;" horiz-adv-x="776" 
d="M760.5 569.5q-44.5 -49.5 -146.5 -52.5v-309q0 -104 -70 -162.5t-207 -58.5t-207 58.5t-70 162.5v492h141v-492q0 -111 136 -111t136 111v492h141v-118q47 3 63 38.5t17 109.5h116q-5 -111 -49.5 -160.5zM176 922h136l80 -157h-105z" />
    <glyph glyph-name="uni1EEC" unicode="&#x1eec;" horiz-adv-x="776" 
d="M760.5 569.5q-44.5 -49.5 -146.5 -52.5v-309q0 -104 -70 -162.5t-207 -58.5t-207 58.5t-70 162.5v492h141v-492q0 -111 136 -111t136 111v492h141v-118q47 3 63 38.5t17 109.5h116q-5 -111 -49.5 -160.5zM377 802v-37h-93v81q48 4 69 13.5t21 27.5q0 17 -11.5 24.5
t-35.5 7.5q-29 0 -62 -14l-22 69q43 21 99 21q63 0 97 -24.5t34 -73.5q0 -72 -96 -95z" />
    <glyph glyph-name="uni1EEE" unicode="&#x1eee;" horiz-adv-x="776" 
d="M760.5 569.5q-44.5 -49.5 -146.5 -52.5v-309q0 -104 -70 -162.5t-207 -58.5t-207 58.5t-70 162.5v492h141v-492q0 -111 136 -111t136 111v492h141v-118q47 3 63 38.5t17 109.5h116q-5 -111 -49.5 -160.5zM195.5 868q29.5 41 85.5 41q20 0 37 -6t38 -17q3 -1 18.5 -8.5
t28.5 -7.5q19 0 23 48h84q-5 -60 -33 -102t-74 -42q-20 0 -37 6t-38 17q-3 1 -18.5 8.5t-28.5 7.5t-21 -11.5t-12 -36.5h-84q2 62 31.5 103z" />
    <glyph glyph-name="Uhungarumlaut" unicode="&#x170;" horiz-adv-x="674" 
d="M130 45.5q-70 58.5 -70 162.5v492h141v-492q0 -111 136 -111t136 111v492h141v-492q0 -104 -70 -162.5t-207 -58.5t-207 58.5zM262 922h116l-81 -157h-95zM432 922h116l-81 -157h-95z" />
    <glyph glyph-name="Umacron" unicode="&#x16a;" horiz-adv-x="674" 
d="M130 45.5q-70 58.5 -70 162.5v492h141v-492q0 -111 136 -111t136 111v492h141v-492q0 -104 -70 -162.5t-207 -58.5t-207 58.5zM176 867h322v-90h-322v90z" />
    <glyph glyph-name="Uogonek" unicode="&#x172;" horiz-adv-x="674" 
d="M614 700v-492q0 -96 -59 -153t-174 -66q-34 -46 -34 -92q0 -24 14.5 -35.5t37.5 -11.5t54 13l22 -71q-40 -26 -88 -26q-80 0 -114.5 34t-34.5 77q0 63 48 112q-112 11 -169 68t-57 151v492h141v-492q0 -111 136 -111t136 111v492h141z" />
    <glyph glyph-name="Uring" unicode="&#x16e;" horiz-adv-x="674" 
d="M130 45.5q-70 58.5 -70 162.5v492h141v-492q0 -111 136 -111t136 111v492h141v-492q0 -104 -70 -162.5t-207 -58.5t-207 58.5zM254 780.5q-31 28.5 -31 75.5t31 75.5t83 28.5t83 -28.5t31 -75.5t-31 -75.5t-83 -28.5t-83 28.5zM367.5 826q11.5 11 11.5 30t-11.5 30
t-30.5 11t-30.5 -11t-11.5 -30t11.5 -30t30.5 -11t30.5 11z" />
    <glyph glyph-name="Utilde" unicode="&#x168;" horiz-adv-x="674" 
d="M130 45.5q-70 58.5 -70 162.5v492h141v-492q0 -111 136 -111t136 111v492h141v-492q0 -104 -70 -162.5t-207 -58.5t-207 58.5zM195.5 868q29.5 41 85.5 41q20 0 37 -6t38 -17q3 -1 18.5 -8.5t28.5 -7.5q19 0 23 48h84q-5 -60 -33 -102t-74 -42q-20 0 -37 6t-38 17
q-3 1 -18.5 8.5t-28.5 7.5t-21 -11.5t-12 -36.5h-84q2 62 31.5 103z" />
    <glyph glyph-name="V" unicode="V" horiz-adv-x="672" 
d="M267.5 2q-27.5 14 -48 47.5t-37.5 92.5l-162 558h141l153 -556q7 -26 22 -26t22 26l153 556h141l-162 -558q-17 -59 -37.5 -92.5t-48 -47.5t-68.5 -14t-68.5 14z" />
    <glyph glyph-name="W" unicode="W" horiz-adv-x="923" 
d="M900 700l-160 -700h-39q-58 0 -91.5 14t-55.5 47t-44 99l-49 146l-48 -146q-21 -64 -44 -98t-57 -48t-90 -14h-39l-160 700h132l127 -562q9 11 20 42l159 446l160 -446q11 -31 20 -42l127 562h132z" />
    <glyph glyph-name="Wacute" unicode="&#x1e82;" horiz-adv-x="923" 
d="M900 700l-160 -700h-39q-58 0 -91.5 14t-55.5 47t-44 99l-49 146l-48 -146q-21 -64 -44 -98t-57 -48t-90 -14h-39l-160 700h132l127 -562q9 11 20 42l159 446l160 -446q11 -31 20 -42l127 562h132zM480 922h136l-111 -157h-105z" />
    <glyph glyph-name="Wcircumflex" unicode="&#x174;" horiz-adv-x="923" 
d="M900 700l-160 -700h-39q-58 0 -91.5 14t-55.5 47t-44 99l-49 146l-48 -146q-21 -64 -44 -98t-57 -48t-90 -14h-39l-160 700h132l127 -562q9 11 20 42l159 446l160 -446q11 -31 20 -42l127 562h132zM344.5 834q36.5 45 60.5 90h110q24 -45 60.5 -90t62.5 -69h-114
q-40 35 -64 74q-24 -39 -64 -74h-114q26 24 62.5 69z" />
    <glyph glyph-name="Wdieresis" unicode="&#x1e84;" horiz-adv-x="923" 
d="M900 700l-160 -700h-39q-58 0 -91.5 14t-55.5 47t-44 99l-49 146l-48 -146q-21 -64 -44 -98t-57 -48t-90 -14h-39l-160 700h132l127 -562q9 11 20 42l159 446l160 -446q11 -31 20 -42l127 562h132zM327 776q-19 19 -19 45t19 44.5t45 18.5q25 0 44 -18.5t19 -44.5
t-18.5 -45t-44.5 -19t-45 19zM505.5 776q-18.5 19 -18.5 45t18.5 44.5t45.5 18.5q26 0 45 -19t19 -44q0 -26 -19 -45t-45 -19q-27 0 -45.5 19z" />
    <glyph glyph-name="Wgrave" unicode="&#x1e80;" horiz-adv-x="923" 
d="M900 700l-160 -700h-39q-58 0 -91.5 14t-55.5 47t-44 99l-49 146l-48 -146q-21 -64 -44 -98t-57 -48t-90 -14h-39l-160 700h132l127 -562q9 11 20 42l159 446l160 -446q11 -31 20 -42l127 562h132zM300 922h136l80 -157h-105z" />
    <glyph glyph-name="X" unicode="X" horiz-adv-x="613" 
d="M391 341l212 -341h-160l-143 231l-143 -231h-157l222 357l-212 343h159l144 -233l144 233h156z" />
    <glyph glyph-name="Y" unicode="Y" horiz-adv-x="606" 
d="M230 300l-230 400h157l147 -271l144 271h158l-235 -400v-300h-141v300z" />
    <glyph glyph-name="Yacute" unicode="&#xdd;" horiz-adv-x="606" 
d="M230 300l-230 400h157l147 -271l144 271h158l-235 -400v-300h-141v300zM321 922h136l-111 -157h-105z" />
    <glyph glyph-name="Ycircumflex" unicode="&#x176;" horiz-adv-x="606" 
d="M230 300l-230 400h157l147 -271l144 271h158l-235 -400v-300h-141v300zM185.5 834q36.5 45 60.5 90h110q24 -45 60.5 -90t62.5 -69h-114q-40 35 -64 74q-24 -39 -64 -74h-114q26 24 62.5 69z" />
    <glyph glyph-name="Ydieresis" unicode="&#x178;" horiz-adv-x="606" 
d="M230 300l-230 400h157l147 -271l144 271h158l-235 -400v-300h-141v300zM168 776q-19 19 -19 45t19 44.5t45 18.5q25 0 44 -18.5t19 -44.5t-18.5 -45t-44.5 -19t-45 19zM346.5 776q-18.5 19 -18.5 45t18.5 44.5t45.5 18.5q26 0 45 -19t19 -44q0 -26 -19 -45t-45 -19
q-27 0 -45.5 19z" />
    <glyph glyph-name="uni1E8E" unicode="&#x1e8e;" horiz-adv-x="606" 
d="M230 300l-230 400h157l147 -271l144 271h158l-235 -400v-300h-141v300zM251 778q-21 21 -21 51q0 29 21 50.5t51 21.5q29 0 50.5 -21.5t21.5 -50.5q0 -30 -21.5 -51t-50.5 -21q-30 0 -51 21z" />
    <glyph glyph-name="uni1EF4" unicode="&#x1ef4;" horiz-adv-x="606" 
d="M230 300l-230 400h157l147 -271l144 271h158l-235 -400v-300h-141v300zM250 -173q-21 21 -21 51q0 29 21 50.5t51 21.5q29 0 50.5 -21.5t21.5 -50.5q0 -30 -21.5 -51t-50.5 -21q-30 0 -51 21z" />
    <glyph glyph-name="Ygrave" unicode="&#x1ef2;" horiz-adv-x="606" 
d="M230 300l-230 400h157l147 -271l144 271h158l-235 -400v-300h-141v300zM141 922h136l80 -157h-105z" />
    <glyph glyph-name="uni1EF6" unicode="&#x1ef6;" horiz-adv-x="606" 
d="M230 300l-230 400h157l147 -271l144 271h158l-235 -400v-300h-141v300zM342 802v-37h-93v81q48 4 69 13.5t21 27.5q0 17 -11.5 24.5t-35.5 7.5q-29 0 -62 -14l-22 69q43 21 99 21q63 0 97 -24.5t34 -73.5q0 -72 -96 -95z" />
    <glyph glyph-name="uni1EF8" unicode="&#x1ef8;" horiz-adv-x="606" 
d="M230 300l-230 400h157l147 -271l144 271h158l-235 -400v-300h-141v300zM160.5 868q29.5 41 85.5 41q20 0 37 -6t38 -17q3 -1 18.5 -8.5t28.5 -7.5q19 0 23 48h84q-5 -60 -33 -102t-74 -42q-20 0 -37 6t-38 17q-3 1 -18.5 8.5t-28.5 7.5t-21 -11.5t-12 -36.5h-84
q2 62 31.5 103z" />
    <glyph glyph-name="Z" unicode="Z" horiz-adv-x="584" 
d="M561 109v-110h-391q-71 0 -108 30.5t-37 98.5v74l374 388h-359v110h505v-127l-392 -415v-10q0 -23 12.5 -31t34.5 -8h361z" />
    <glyph glyph-name="Zacute" unicode="&#x179;" horiz-adv-x="584" 
d="M561 109v-110h-391q-71 0 -108 30.5t-37 98.5v74l374 388h-359v110h505v-127l-392 -415v-10q0 -23 12.5 -31t34.5 -8h361zM314 922h136l-111 -157h-105z" />
    <glyph glyph-name="Zcaron" unicode="&#x17d;" horiz-adv-x="584" 
d="M561 109v-110h-391q-71 0 -108 30.5t-37 98.5v74l374 388h-359v110h505v-127l-392 -415v-10q0 -23 12.5 -31t34.5 -8h361zM178.5 855q-36.5 45 -62.5 69h114q40 -35 64 -74q24 39 64 74h114q-26 -24 -62.5 -69t-60.5 -90h-110q-24 45 -60.5 90z" />
    <glyph glyph-name="Zdotaccent" unicode="&#x17b;" horiz-adv-x="584" 
d="M561 109v-110h-391q-71 0 -108 30.5t-37 98.5v74l374 388h-359v110h505v-127l-392 -415v-10q0 -23 12.5 -31t34.5 -8h361zM244 778q-21 21 -21 51q0 29 21 50.5t51 21.5q29 0 50.5 -21.5t21.5 -50.5q0 -30 -21.5 -51t-50.5 -21q-30 0 -51 21z" />
    <glyph glyph-name="uni1E92" unicode="&#x1e92;" horiz-adv-x="584" 
d="M561 109v-110h-391q-71 0 -108 30.5t-37 98.5v74l374 388h-359v110h505v-127l-392 -415v-10q0 -23 12.5 -31t34.5 -8h361zM244 -173q-21 21 -21 51q0 29 21 50.5t51 21.5q29 0 50.5 -21.5t21.5 -50.5q0 -30 -21.5 -51t-50.5 -21q-30 0 -51 21z" />
    <glyph glyph-name="a" unicode="a" horiz-adv-x="531" 
d="M476.5 101q10.5 -17 37.5 -37l-87 -76q-57 29 -78 73q-22 -31 -60 -52t-94 -21q-71 0 -113 36.5t-42 103.5q0 60 31.5 92.5t72.5 44.5t91 17l48 5q29 3 40.5 10t12.5 23q-2 30 -19.5 51t-66.5 21q-32 0 -56 -12t-49 -39l-89 62q29 38 73 58.5t121 20.5q216 0 216 -175
v-162q0 -27 10.5 -44zM308 106.5q28 25.5 28 62.5v42q-16 -6 -61 -11l-30 -3q-34 -3 -57 -15.5t-23 -46.5q0 -26 17 -40t46 -14q52 0 80 25.5z" />
    <glyph glyph-name="aacute" unicode="&#xe1;" horiz-adv-x="531" 
d="M476.5 101q10.5 -17 37.5 -37l-87 -76q-57 29 -78 73q-22 -31 -60 -52t-94 -21q-71 0 -113 36.5t-42 103.5q0 60 31.5 92.5t72.5 44.5t91 17l48 5q29 3 40.5 10t12.5 23q-2 30 -19.5 51t-66.5 21q-32 0 -56 -12t-49 -39l-89 62q29 38 73 58.5t121 20.5q216 0 216 -175
v-162q0 -27 10.5 -44zM308 106.5q28 25.5 28 62.5v42q-16 -6 -61 -11l-30 -3q-34 -3 -57 -15.5t-23 -46.5q0 -26 17 -40t46 -14q52 0 80 25.5zM295 692h136l-111 -157h-105z" />
    <glyph glyph-name="abreve" unicode="&#x103;" horiz-adv-x="531" 
d="M476.5 101q10.5 -17 37.5 -37l-87 -76q-57 29 -78 73q-22 -31 -60 -52t-94 -21q-71 0 -113 36.5t-42 103.5q0 60 31.5 92.5t72.5 44.5t91 17l48 5q29 3 40.5 10t12.5 23q-2 30 -19.5 51t-66.5 21q-32 0 -56 -12t-49 -39l-89 62q29 38 73 58.5t121 20.5q216 0 216 -175
v-162q0 -27 10.5 -44zM308 106.5q28 25.5 28 62.5v42q-16 -6 -61 -11l-30 -3q-34 -3 -57 -15.5t-23 -46.5q0 -26 17 -40t46 -14q52 0 80 25.5zM154 570.5q-45 45.5 -45 121.5h93q3 -36 22 -56.5t52 -20.5t52.5 21t21.5 56h93q0 -76 -45.5 -121.5t-121.5 -45.5
q-77 0 -122 45.5z" />
    <glyph glyph-name="uni1EAF" unicode="&#x1eaf;" horiz-adv-x="531" 
d="M476.5 101q10.5 -17 37.5 -37l-87 -76q-57 29 -78 73q-22 -31 -60 -52t-94 -21q-71 0 -113 36.5t-42 103.5q0 60 31.5 92.5t72.5 44.5t91 17l48 5q29 3 40.5 10t12.5 23q-2 30 -19.5 51t-66.5 21q-32 0 -56 -12t-49 -39l-89 62q29 38 73 58.5t121 20.5q216 0 216 -175
v-162q0 -27 10.5 -44zM308 106.5q28 25.5 28 62.5v42q-16 -6 -61 -11l-30 -3q-34 -3 -57 -15.5t-23 -46.5q0 -26 17 -40t46 -14q52 0 80 25.5zM283 863h126l-94 -126h-95zM154.5 570.5q-45.5 45.5 -45.5 121.5h93q3 -36 22 -56.5t52 -20.5t52.5 21t21.5 56h93
q0 -76 -45 -121.5t-122 -45.5q-76 0 -121.5 45.5z" />
    <glyph glyph-name="uni1EB7" unicode="&#x1eb7;" horiz-adv-x="531" 
d="M476.5 101q10.5 -17 37.5 -37l-87 -76q-57 29 -78 73q-22 -31 -60 -52t-94 -21q-71 0 -113 36.5t-42 103.5q0 60 31.5 92.5t72.5 44.5t91 17l48 5q29 3 40.5 10t12.5 23q-2 30 -19.5 51t-66.5 21q-32 0 -56 -12t-49 -39l-89 62q29 38 73 58.5t121 20.5q216 0 216 -175
v-162q0 -27 10.5 -44zM308 106.5q28 25.5 28 62.5v42q-16 -6 -61 -11l-30 -3q-34 -3 -57 -15.5t-23 -46.5q0 -26 17 -40t46 -14q52 0 80 25.5zM225 -173q-21 21 -21 51q0 29 21 50.5t51 21.5q29 0 50.5 -21.5t21.5 -50.5q0 -30 -21.5 -51t-50.5 -21q-30 0 -51 21zM154 570.5
q-45 45.5 -45 121.5h93q3 -36 22 -56.5t52 -20.5t52.5 21t21.5 56h93q0 -76 -45.5 -121.5t-121.5 -45.5q-77 0 -122 45.5z" />
    <glyph glyph-name="uni1EB1" unicode="&#x1eb1;" horiz-adv-x="531" 
d="M476.5 101q10.5 -17 37.5 -37l-87 -76q-57 29 -78 73q-22 -31 -60 -52t-94 -21q-71 0 -113 36.5t-42 103.5q0 60 31.5 92.5t72.5 44.5t91 17l48 5q29 3 40.5 10t12.5 23q-2 30 -19.5 51t-66.5 21q-32 0 -56 -12t-49 -39l-89 62q29 38 73 58.5t121 20.5q216 0 216 -175
v-162q0 -27 10.5 -44zM308 106.5q28 25.5 28 62.5v42q-16 -6 -61 -11l-30 -3q-34 -3 -57 -15.5t-23 -46.5q0 -26 17 -40t46 -14q52 0 80 25.5zM138 863h126l63 -126h-95zM154.5 570.5q-45.5 45.5 -45.5 121.5h93q3 -36 22 -56.5t52 -20.5t52.5 21t21.5 56h93
q0 -76 -45 -121.5t-122 -45.5q-76 0 -121.5 45.5z" />
    <glyph glyph-name="uni1EB3" unicode="&#x1eb3;" horiz-adv-x="531" 
d="M476.5 101q10.5 -17 37.5 -37l-87 -76q-57 29 -78 73q-22 -31 -60 -52t-94 -21q-71 0 -113 36.5t-42 103.5q0 60 31.5 92.5t72.5 44.5t91 17l48 5q29 3 40.5 10t12.5 23q-2 30 -19.5 51t-66.5 21q-32 0 -56 -12t-49 -39l-89 62q29 38 73 58.5t121 20.5q216 0 216 -175
v-162q0 -27 10.5 -44zM308 106.5q28 25.5 28 62.5v42q-16 -6 -61 -11l-30 -3q-34 -3 -57 -15.5t-23 -46.5q0 -26 17 -40t46 -14q52 0 80 25.5zM226 828l-19 56q35 17 82 17q48 0 74 -20t26 -60q0 -32 -18.5 -50t-52.5 -27v-31h-76v66q73 6 73 33q0 15 -9 21t-30 6t-50 -11z
M443 692q0 -76 -45.5 -121.5t-121.5 -45.5t-121.5 45.5t-45.5 121.5h93q2 -35 21.5 -56t52.5 -21t52.5 21t21.5 56h93z" />
    <glyph glyph-name="uni1EB5" unicode="&#x1eb5;" horiz-adv-x="531" 
d="M476.5 101q10.5 -17 37.5 -37l-87 -76q-57 29 -78 73q-22 -31 -60 -52t-94 -21q-71 0 -113 36.5t-42 103.5q0 60 31.5 92.5t72.5 44.5t91 17l48 5q29 3 40.5 10t12.5 23q-2 30 -19.5 51t-66.5 21q-32 0 -56 -12t-49 -39l-89 62q29 38 73 58.5t121 20.5q216 0 216 -175
v-162q0 -27 10.5 -44zM308 106.5q28 25.5 28 62.5v42q-16 -6 -61 -11l-30 -3q-34 -3 -57 -15.5t-23 -46.5q0 -26 17 -40t46 -14q52 0 80 25.5zM144.5 829q29.5 35 80.5 35q18 0 33.5 -5t34.5 -14q28 -14 43 -14q9 0 17 10.5t10 30.5h76q-5 -50 -33 -85.5t-70 -35.5
q-18 0 -33.5 5t-34.5 14q-28 14 -43 14q-12 0 -22 -10t-14 -31h-76q2 51 31.5 86zM154.5 570.5q-45.5 45.5 -45.5 121.5h93q3 -36 22 -56.5t52 -20.5t52.5 21t21.5 56h93q0 -76 -45 -121.5t-122 -45.5q-76 0 -121.5 45.5z" />
    <glyph glyph-name="uni01CE" unicode="&#x1ce;" horiz-adv-x="531" 
d="M476.5 101q10.5 -17 37.5 -37l-87 -76q-57 29 -78 73q-22 -31 -60 -52t-94 -21q-71 0 -113 36.5t-42 103.5q0 60 31.5 92.5t72.5 44.5t91 17l48 5q29 3 40.5 10t12.5 23q-2 30 -19.5 51t-66.5 21q-32 0 -56 -12t-49 -39l-89 62q29 38 73 58.5t121 20.5q216 0 216 -175
v-162q0 -27 10.5 -44zM308 106.5q28 25.5 28 62.5v42q-16 -6 -61 -11l-30 -3q-34 -3 -57 -15.5t-23 -46.5q0 -26 17 -40t46 -14q52 0 80 25.5zM159.5 625q-36.5 45 -62.5 69h114q40 -35 64 -74q24 39 64 74h114q-26 -24 -62.5 -69t-60.5 -90h-110q-24 45 -60.5 90z" />
    <glyph glyph-name="acircumflex" unicode="&#xe2;" horiz-adv-x="531" 
d="M476.5 101q10.5 -17 37.5 -37l-87 -76q-57 29 -78 73q-22 -31 -60 -52t-94 -21q-71 0 -113 36.5t-42 103.5q0 60 31.5 92.5t72.5 44.5t91 17l48 5q29 3 40.5 10t12.5 23q-2 30 -19.5 51t-66.5 21q-32 0 -56 -12t-49 -39l-89 62q29 38 73 58.5t121 20.5q216 0 216 -175
v-162q0 -27 10.5 -44zM308 106.5q28 25.5 28 62.5v42q-16 -6 -61 -11l-30 -3q-34 -3 -57 -15.5t-23 -46.5q0 -26 17 -40t46 -14q52 0 80 25.5zM159.5 604q36.5 45 60.5 90h110q24 -45 60.5 -90t62.5 -69h-114q-40 35 -64 74q-24 -39 -64 -74h-114q26 24 62.5 69z" />
    <glyph glyph-name="uni1EA5" unicode="&#x1ea5;" horiz-adv-x="531" 
d="M476.5 101q10.5 -17 37.5 -37l-87 -76q-57 29 -78 73q-22 -31 -60 -52t-94 -21q-71 0 -113 36.5t-42 103.5q0 60 31.5 92.5t72.5 44.5t91 17l48 5q29 3 40.5 10t12.5 23q-2 30 -19.5 51t-66.5 21q-32 0 -56 -12t-49 -39l-89 62q29 38 73 58.5t121 20.5q216 0 216 -175
v-162q0 -27 10.5 -44zM308 106.5q28 25.5 28 62.5v42q-16 -6 -61 -11l-30 -3q-34 -3 -57 -15.5t-23 -46.5q0 -26 17 -40t46 -14q52 0 80 25.5zM455 766h126l-94 -126h-95zM159.5 604q36.5 45 60.5 90h110q24 -45 60.5 -90t62.5 -69h-114q-40 35 -64 74q-24 -39 -64 -74h-114
q26 24 62.5 69z" />
    <glyph glyph-name="uni1EAD" unicode="&#x1ead;" horiz-adv-x="531" 
d="M476.5 101q10.5 -17 37.5 -37l-87 -76q-57 29 -78 73q-22 -31 -60 -52t-94 -21q-71 0 -113 36.5t-42 103.5q0 60 31.5 92.5t72.5 44.5t91 17l48 5q29 3 40.5 10t12.5 23q-2 30 -19.5 51t-66.5 21q-32 0 -56 -12t-49 -39l-89 62q29 38 73 58.5t121 20.5q216 0 216 -175
v-162q0 -27 10.5 -44zM308 106.5q28 25.5 28 62.5v42q-16 -6 -61 -11l-30 -3q-34 -3 -57 -15.5t-23 -46.5q0 -26 17 -40t46 -14q52 0 80 25.5zM225 -173q-21 21 -21 51q0 29 21 50.5t51 21.5q29 0 50.5 -21.5t21.5 -50.5q0 -30 -21.5 -51t-50.5 -21q-30 0 -51 21zM159.5 604
q36.5 45 60.5 90h110q24 -45 60.5 -90t62.5 -69h-114q-40 35 -64 74q-24 -39 -64 -74h-114q26 24 62.5 69z" />
    <glyph glyph-name="uni1EA7" unicode="&#x1ea7;" horiz-adv-x="531" 
d="M476.5 101q10.5 -17 37.5 -37l-87 -76q-57 29 -78 73q-22 -31 -60 -52t-94 -21q-71 0 -113 36.5t-42 103.5q0 60 31.5 92.5t72.5 44.5t91 17l48 5q29 3 40.5 10t12.5 23q-2 30 -19.5 51t-66.5 21q-32 0 -56 -12t-49 -39l-89 62q29 38 73 58.5t121 20.5q216 0 216 -175
v-162q0 -27 10.5 -44zM308 106.5q28 25.5 28 62.5v42q-16 -6 -61 -11l-30 -3q-34 -3 -57 -15.5t-23 -46.5q0 -26 17 -40t46 -14q52 0 80 25.5zM337 766h126l63 -126h-95zM159.5 604q36.5 45 60.5 90h110q24 -45 60.5 -90t62.5 -69h-114q-40 35 -64 74q-24 -39 -64 -74h-114
q26 24 62.5 69z" />
    <glyph glyph-name="uni1EA9" unicode="&#x1ea9;" horiz-adv-x="531" 
d="M476.5 101q10.5 -17 37.5 -37l-87 -76q-57 29 -78 73q-22 -31 -60 -52t-94 -21q-71 0 -113 36.5t-42 103.5q0 60 31.5 92.5t72.5 44.5t91 17l48 5q29 3 40.5 10t12.5 23q-2 30 -19.5 51t-66.5 21q-32 0 -56 -12t-49 -39l-89 62q29 38 73 58.5t121 20.5q216 0 216 -175
v-162q0 -27 10.5 -44zM308 106.5q28 25.5 28 62.5v42q-16 -6 -61 -11l-30 -3q-34 -3 -57 -15.5t-23 -46.5q0 -26 17 -40t46 -14q52 0 80 25.5zM543.5 689q-18.5 -18 -52.5 -27v-31h-76v66q73 6 73 33q0 15 -9 21t-30 6t-50 -11l-19 56q35 17 82 17q48 0 74 -20t26 -60
q0 -32 -18.5 -50zM390.5 604q36.5 -45 62.5 -69h-114q-40 35 -64 74q-24 -39 -64 -74h-114q26 24 62.5 69t60.5 90h110q24 -45 60.5 -90z" />
    <glyph glyph-name="uni1EAB" unicode="&#x1eab;" horiz-adv-x="531" 
d="M476.5 101q10.5 -17 37.5 -37l-87 -76q-57 29 -78 73q-22 -31 -60 -52t-94 -21q-71 0 -113 36.5t-42 103.5q0 60 31.5 92.5t72.5 44.5t91 17l48 5q29 3 40.5 10t12.5 23q-2 30 -19.5 51t-66.5 21q-32 0 -56 -12t-49 -39l-89 62q29 38 73 58.5t121 20.5q216 0 216 -175
v-162q0 -27 10.5 -44zM308 106.5q28 25.5 28 62.5v42q-16 -6 -61 -11l-30 -3q-34 -3 -57 -15.5t-23 -46.5q0 -26 17 -40t46 -14q52 0 80 25.5zM144.5 813q29.5 35 80.5 35q18 0 33.5 -5t34.5 -14q28 -14 43 -14q9 0 17 10.5t10 30.5h76q-5 -50 -33 -85.5t-70 -35.5
q-18 0 -33.5 5t-34.5 14q-28 14 -43 14q-12 0 -22 -10t-14 -31h-76q2 51 31.5 86zM159.5 604q36.5 45 60.5 90h110q24 -45 60.5 -90t62.5 -69h-114q-40 35 -64 74q-24 -39 -64 -74h-114q26 24 62.5 69z" />
    <glyph glyph-name="adieresis" unicode="&#xe4;" horiz-adv-x="531" 
d="M476.5 101q10.5 -17 37.5 -37l-87 -76q-57 29 -78 73q-22 -31 -60 -52t-94 -21q-71 0 -113 36.5t-42 103.5q0 60 31.5 92.5t72.5 44.5t91 17l48 5q29 3 40.5 10t12.5 23q-2 30 -19.5 51t-66.5 21q-32 0 -56 -12t-49 -39l-89 62q29 38 73 58.5t121 20.5q216 0 216 -175
v-162q0 -27 10.5 -44zM308 106.5q28 25.5 28 62.5v42q-16 -6 -61 -11l-30 -3q-34 -3 -57 -15.5t-23 -46.5q0 -26 17 -40t46 -14q52 0 80 25.5zM142 546q-19 19 -19 45t19 44.5t45 18.5q25 0 44 -18.5t19 -44.5t-18.5 -45t-44.5 -19t-45 19zM320.5 546q-18.5 19 -18.5 45
t18.5 44.5t45.5 18.5q26 0 45 -19t19 -44q0 -26 -19 -45t-45 -19q-27 0 -45.5 19z" />
    <glyph glyph-name="uni1EA1" unicode="&#x1ea1;" horiz-adv-x="531" 
d="M476.5 101q10.5 -17 37.5 -37l-87 -76q-57 29 -78 73q-22 -31 -60 -52t-94 -21q-71 0 -113 36.5t-42 103.5q0 60 31.5 92.5t72.5 44.5t91 17l48 5q29 3 40.5 10t12.5 23q-2 30 -19.5 51t-66.5 21q-32 0 -56 -12t-49 -39l-89 62q29 38 73 58.5t121 20.5q216 0 216 -175
v-162q0 -27 10.5 -44zM308 106.5q28 25.5 28 62.5v42q-16 -6 -61 -11l-30 -3q-34 -3 -57 -15.5t-23 -46.5q0 -26 17 -40t46 -14q52 0 80 25.5zM225 -173q-21 21 -21 51q0 29 21 50.5t51 21.5q29 0 50.5 -21.5t21.5 -50.5q0 -30 -21.5 -51t-50.5 -21q-30 0 -51 21z" />
    <glyph glyph-name="agrave" unicode="&#xe0;" horiz-adv-x="531" 
d="M476.5 101q10.5 -17 37.5 -37l-87 -76q-57 29 -78 73q-22 -31 -60 -52t-94 -21q-71 0 -113 36.5t-42 103.5q0 60 31.5 92.5t72.5 44.5t91 17l48 5q29 3 40.5 10t12.5 23q-2 30 -19.5 51t-66.5 21q-32 0 -56 -12t-49 -39l-89 62q29 38 73 58.5t121 20.5q216 0 216 -175
v-162q0 -27 10.5 -44zM308 106.5q28 25.5 28 62.5v42q-16 -6 -61 -11l-30 -3q-34 -3 -57 -15.5t-23 -46.5q0 -26 17 -40t46 -14q52 0 80 25.5zM115 692h136l80 -157h-105z" />
    <glyph glyph-name="uni1EA3" unicode="&#x1ea3;" horiz-adv-x="531" 
d="M476.5 101q10.5 -17 37.5 -37l-87 -76q-57 29 -78 73q-22 -31 -60 -52t-94 -21q-71 0 -113 36.5t-42 103.5q0 60 31.5 92.5t72.5 44.5t91 17l48 5q29 3 40.5 10t12.5 23q-2 30 -19.5 51t-66.5 21q-32 0 -56 -12t-49 -39l-89 62q29 38 73 58.5t121 20.5q216 0 216 -175
v-162q0 -27 10.5 -44zM308 106.5q28 25.5 28 62.5v42q-16 -6 -61 -11l-30 -3q-34 -3 -57 -15.5t-23 -46.5q0 -26 17 -40t46 -14q52 0 80 25.5zM316 572v-37h-93v81q48 4 69 13.5t21 27.5q0 17 -11.5 24.5t-35.5 7.5q-29 0 -62 -14l-22 69q43 21 99 21q63 0 97 -24.5
t34 -73.5q0 -72 -96 -95z" />
    <glyph glyph-name="uni0251" unicode="&#x251;" horiz-adv-x="593" 
d="M530.5 101q10.5 -17 37.5 -37l-87 -76q-58 29 -79 77q-26 -39 -64 -58t-93 -19q-94 0 -149.5 62.5t-55.5 168.5v32q0 63 23 115.5t69.5 84t112.5 31.5q52 0 87 -18t58 -50v56h130v-325q0 -27 10.5 -44zM390 170v130q-23 82 -107 82q-54 0 -83.5 -38.5t-29.5 -92.5v-32
q0 -55 29 -93t84 -38q84 0 107 82z" />
    <glyph glyph-name="amacron" unicode="&#x101;" horiz-adv-x="531" 
d="M476.5 101q10.5 -17 37.5 -37l-87 -76q-57 29 -78 73q-22 -31 -60 -52t-94 -21q-71 0 -113 36.5t-42 103.5q0 60 31.5 92.5t72.5 44.5t91 17l48 5q29 3 40.5 10t12.5 23q-2 30 -19.5 51t-66.5 21q-32 0 -56 -12t-49 -39l-89 62q29 38 73 58.5t121 20.5q216 0 216 -175
v-162q0 -27 10.5 -44zM308 106.5q28 25.5 28 62.5v42q-16 -6 -61 -11l-30 -3q-34 -3 -57 -15.5t-23 -46.5q0 -26 17 -40t46 -14q52 0 80 25.5zM115 637h322v-90h-322v90z" />
    <glyph glyph-name="aogonek" unicode="&#x105;" horiz-adv-x="531" 
d="M530 -198q-40 -26 -88 -26q-80 0 -114.5 34t-34.5 77q0 39 19 73t60 67q-16 18 -23 34q-22 -31 -60 -52t-94 -21q-71 0 -113 36.5t-42 103.5q0 60 31.5 92.5t72.5 44.5t91 17l48 5q29 3 40.5 10t12.5 23q-2 30 -19.5 51t-66.5 21q-32 0 -56 -12t-49 -39l-89 62
q29 38 73 58.5t121 20.5q216 0 216 -175v-162q0 -27 10.5 -44t37.5 -37l-84 -73q-28 -44 -28 -84q0 -24 14.5 -35.5t37.5 -11.5t54 13zM308 106.5q28 25.5 28 62.5v42q-16 -6 -61 -11l-30 -3q-34 -3 -57 -15.5t-23 -46.5q0 -26 17 -40t46 -14q52 0 80 25.5z" />
    <glyph glyph-name="aring" unicode="&#xe5;" horiz-adv-x="531" 
d="M476.5 101q10.5 -17 37.5 -37l-87 -76q-57 29 -78 73q-22 -31 -60 -52t-94 -21q-71 0 -113 36.5t-42 103.5q0 60 31.5 92.5t72.5 44.5t91 17l48 5q29 3 40.5 10t12.5 23q-2 30 -19.5 51t-66.5 21q-32 0 -56 -12t-49 -39l-89 62q29 38 73 58.5t121 20.5q216 0 216 -175
v-162q0 -27 10.5 -44zM308 106.5q28 25.5 28 62.5v42q-16 -6 -61 -11l-30 -3q-34 -3 -57 -15.5t-23 -46.5q0 -26 17 -40t46 -14q52 0 80 25.5zM193 550.5q-31 28.5 -31 75.5t31 75.5t83 28.5t83 -28.5t31 -75.5t-31 -75.5t-83 -28.5t-83 28.5zM306.5 596q11.5 11 11.5 30
t-11.5 30t-30.5 11t-30.5 -11t-11.5 -30t11.5 -30t30.5 -11t30.5 11z" />
    <glyph glyph-name="aringacute" unicode="&#x1fb;" horiz-adv-x="531" 
d="M309 759h-105l80 126h136zM193 550.5q-31 28.5 -31 75.5t31 75.5t83 28.5t83 -28.5t31 -75.5t-31 -75.5t-83 -28.5t-83 28.5zM245.5 656q-11.5 -11 -11.5 -30t11.5 -30t30.5 -11t30.5 11t11.5 30t-11.5 30t-30.5 11t-30.5 -11zM476.5 101q10.5 -17 37.5 -37l-87 -76
q-57 29 -78 73q-22 -31 -60 -52t-94 -21q-71 0 -113 36.5t-42 103.5q0 60 31.5 92.5t72.5 44.5t91 17l48 5q29 3 40.5 10t12.5 23q-2 30 -19.5 51t-66.5 21q-32 0 -56 -12t-49 -39l-89 62q29 38 73 58.5t121 20.5q216 0 216 -175v-162q0 -27 10.5 -44zM308 106.5
q28 25.5 28 62.5v42q-16 -6 -61 -11l-30 -3q-34 -3 -57 -15.5t-23 -46.5q0 -26 17 -40t46 -14q52 0 80 25.5z" />
    <glyph glyph-name="atilde" unicode="&#xe3;" horiz-adv-x="531" 
d="M476.5 101q10.5 -17 37.5 -37l-87 -76q-57 29 -78 73q-22 -31 -60 -52t-94 -21q-71 0 -113 36.5t-42 103.5q0 60 31.5 92.5t72.5 44.5t91 17l48 5q29 3 40.5 10t12.5 23q-2 30 -19.5 51t-66.5 21q-32 0 -56 -12t-49 -39l-89 62q29 38 73 58.5t121 20.5q216 0 216 -175
v-162q0 -27 10.5 -44zM308 106.5q28 25.5 28 62.5v42q-16 -6 -61 -11l-30 -3q-34 -3 -57 -15.5t-23 -46.5q0 -26 17 -40t46 -14q52 0 80 25.5zM134.5 638q29.5 41 85.5 41q20 0 37 -6t38 -17q3 -1 18.5 -8.5t28.5 -7.5q19 0 23 48h84q-5 -60 -33 -102t-74 -42q-20 0 -37 6
t-38 17q-3 1 -18.5 8.5t-28.5 7.5t-21 -11.5t-12 -36.5h-84q2 62 31.5 103z" />
    <glyph glyph-name="ae" unicode="&#xe6;" horiz-adv-x="784" 
d="M612.5 97.5q21.5 9.5 48.5 33.5l79 -72q-58 -71 -187 -71q-61 0 -97 16t-66 50q-50 -66 -172 -66q-88 0 -133 35t-45 104q0 59 31.5 91.5t72.5 44.5t91 17l48 5q29 3 40 10t13 24q-3 73 -86 73q-32 0 -56 -12t-49 -39l-89 62q30 40 75 59.5t123 19.5q56 0 91.5 -10.5
t64.5 -32.5q27 20 60.5 30.5t79.5 10.5q96 0 150 -46t54 -141q0 -49 -14 -72t-34 -28.5t-53 -5.5h-187v-15q0 -33 16.5 -58.5t76.5 -25.5q32 0 53.5 9.5zM466 266h112q25 0 35.5 6t10.5 32q0 35 -21 55.5t-58 20.5t-58 -20.5t-21 -55.5v-38zM308 105q28 24 28 64v40
q-16 -6 -61 -11l-30 -3q-34 -3 -57 -15.5t-23 -45.5q0 -25 18.5 -39t50.5 -14q46 0 74 24z" />
    <glyph glyph-name="aeacute" unicode="&#x1fd;" horiz-adv-x="784" 
d="M612.5 97.5q21.5 9.5 48.5 33.5l79 -72q-58 -71 -187 -71q-61 0 -97 16t-66 50q-50 -66 -172 -66q-88 0 -133 35t-45 104q0 59 31.5 91.5t72.5 44.5t91 17l48 5q29 3 40 10t13 24q-3 73 -86 73q-32 0 -56 -12t-49 -39l-89 62q30 40 75 59.5t123 19.5q56 0 91.5 -10.5
t64.5 -32.5q27 20 60.5 30.5t79.5 10.5q96 0 150 -46t54 -141q0 -49 -14 -72t-34 -28.5t-53 -5.5h-187v-15q0 -33 16.5 -58.5t76.5 -25.5q32 0 53.5 9.5zM466 266h112q25 0 35.5 6t10.5 32q0 35 -21 55.5t-58 20.5t-58 -20.5t-21 -55.5v-38zM308 105q28 24 28 64v40
q-16 -6 -61 -11l-30 -3q-34 -3 -57 -15.5t-23 -45.5q0 -25 18.5 -39t50.5 -14q46 0 74 24zM427 692h136l-111 -157h-105z" />
    <glyph glyph-name="b" unicode="b" horiz-adv-x="593" 
d="M203 46v-46h-130v593q0 27 -10.5 44t-37.5 37l87 76q51 -26 71 -59.5t20 -93.5v-176q52 61 145 61q66 0 112.5 -31.5t69.5 -84t23 -115.5v-32q0 -63 -23 -115.5t-69.5 -84t-112.5 -31.5q-94 0 -145 58zM394 126q29 38 29 93v32q0 55 -29 93t-84 38q-84 0 -107 -82v-130
q23 -82 107 -82q55 0 84 38z" />
    <glyph glyph-name="c" unicode="c" horiz-adv-x="467" 
d="M101 36q-56 48 -56 137v124q0 89 56 137t160 48q130 0 186 -79l-89 -72q-24 28 -44 39.5t-53 11.5q-41 0 -63.5 -22t-22.5 -63v-124q0 -41 22.5 -63t63.5 -22q33 0 53 11.5t44 39.5l89 -72q-28 -40 -72 -59.5t-114 -19.5q-104 0 -160 48z" />
    <glyph glyph-name="cacute" unicode="&#x107;" horiz-adv-x="467" 
d="M101 36q-56 48 -56 137v124q0 89 56 137t160 48q130 0 186 -79l-89 -72q-24 28 -44 39.5t-53 11.5q-41 0 -63.5 -22t-22.5 -63v-124q0 -41 22.5 -63t63.5 -22q33 0 53 11.5t44 39.5l89 -72q-28 -40 -72 -59.5t-114 -19.5q-104 0 -160 48zM275 692h136l-111 -157h-105z
" />
    <glyph glyph-name="ccaron" unicode="&#x10d;" horiz-adv-x="467" 
d="M101 36q-56 48 -56 137v124q0 89 56 137t160 48q130 0 186 -79l-89 -72q-24 28 -44 39.5t-53 11.5q-41 0 -63.5 -22t-22.5 -63v-124q0 -41 22.5 -63t63.5 -22q33 0 53 11.5t44 39.5l89 -72q-28 -40 -72 -59.5t-114 -19.5q-104 0 -160 48zM139.5 625q-36.5 45 -62.5 69
h114q40 -35 64 -74q24 39 64 74h114q-26 -24 -62.5 -69t-60.5 -90h-110q-24 45 -60.5 90z" />
    <glyph glyph-name="ccedilla" unicode="&#xe7;" horiz-adv-x="467" 
d="M314 99.5q20 11.5 44 39.5l89 -72q-24 -34 -59.5 -53.5t-88.5 -23.5l-8 -25q88 -11 88 -96q0 -52 -36.5 -77.5t-104.5 -25.5q-62 0 -109 25l22 70q38 -19 72 -19q57 0 57 27q0 16 -12 25t-47 9q-8 0 -34 -2l22 91q-80 11 -122 57.5t-42 123.5v124q0 89 56 137t160 48
q130 0 186 -79l-89 -72q-24 28 -44 39.5t-53 11.5q-41 0 -63.5 -22t-22.5 -63v-124q0 -41 22.5 -63t63.5 -22q33 0 53 11.5z" />
    <glyph glyph-name="ccircumflex" unicode="&#x109;" horiz-adv-x="467" 
d="M101 36q-56 48 -56 137v124q0 89 56 137t160 48q130 0 186 -79l-89 -72q-24 28 -44 39.5t-53 11.5q-41 0 -63.5 -22t-22.5 -63v-124q0 -41 22.5 -63t63.5 -22q33 0 53 11.5t44 39.5l89 -72q-28 -40 -72 -59.5t-114 -19.5q-104 0 -160 48zM139.5 604q36.5 45 60.5 90h110
q24 -45 60.5 -90t62.5 -69h-114q-40 35 -64 74q-24 -39 -64 -74h-114q26 24 62.5 69z" />
    <glyph glyph-name="cdotaccent" unicode="&#x10b;" horiz-adv-x="467" 
d="M101 36q-56 48 -56 137v124q0 89 56 137t160 48q130 0 186 -79l-89 -72q-24 28 -44 39.5t-53 11.5q-41 0 -63.5 -22t-22.5 -63v-124q0 -41 22.5 -63t63.5 -22q33 0 53 11.5t44 39.5l89 -72q-28 -40 -72 -59.5t-114 -19.5q-104 0 -160 48zM205 548q-21 21 -21 51
q0 29 21 50.5t51 21.5q29 0 50.5 -21.5t21.5 -50.5q0 -30 -21.5 -51t-50.5 -21q-30 0 -51 21z" />
    <glyph glyph-name="d" unicode="d" horiz-adv-x="593" 
d="M530.5 101q10.5 -17 37.5 -37l-87 -76q-58 29 -79 78q-25 -39 -63 -58.5t-94 -19.5q-94 0 -149.5 62.5t-55.5 168.5v32q0 63 23 115.5t69.5 84t112.5 31.5q94 0 145 -58v169q0 27 -10.5 44t-37.5 37l87 76q51 -26 71 -59.5t20 -93.5v-452q0 -27 10.5 -44zM390 300
q-23 82 -107 82q-54 0 -83.5 -38.5t-29.5 -92.5v-32q0 -55 29 -93t84 -38q84 0 107 82v130z" />
    <glyph glyph-name="eth" unicode="&#xf0;" horiz-adv-x="522" 
d="M468 358.5q9 -30.5 9 -61.5v-124q0 -89 -56 -137t-160 -48t-160 48t-56 137v124q0 89 56 137t160 48h12l-38 59h-140v66h97l-61 93h123l61 -93h134v-66h-90l85 -129q15 -23 24 -53.5zM347 297q0 41 -22.5 63t-63.5 22t-63.5 -22t-22.5 -63v-124q0 -41 22.5 -63t63.5 -22
t63.5 22t22.5 63v124z" />
    <glyph glyph-name="dcaron" unicode="&#x10f;" horiz-adv-x="715" 
d="M530.5 101q10.5 -17 37.5 -37l-87 -76q-58 29 -79 78q-25 -39 -63 -58.5t-94 -19.5q-94 0 -149.5 62.5t-55.5 168.5v32q0 63 23 115.5t69.5 84t112.5 31.5q94 0 145 -58v169q0 27 -10.5 44t-37.5 37l87 76q51 -26 71 -59.5t20 -93.5v-452q0 -27 10.5 -44zM390 300
q-23 82 -107 82q-54 0 -83.5 -38.5t-29.5 -92.5v-32q0 -55 29 -93t84 -38q84 0 107 82v130zM684.5 711.5q20.5 -24.5 20.5 -69.5q0 -55 -26 -98.5t-77 -84.5l-39 37q30 23 46.5 45t22.5 47q-13 -6 -31 -6q-26 0 -41 17.5t-15 48.5q0 33 23.5 60.5t58.5 27.5q37 0 57.5 -24.5
z" />
    <glyph glyph-name="dcroat" unicode="&#x111;" horiz-adv-x="593" 
d="M520 531v-386q0 -27 10.5 -44t37.5 -37l-87 -76q-58 29 -79 78q-25 -39 -63 -58.5t-94 -19.5q-94 0 -149.5 62.5t-55.5 168.5v32q0 63 23 115.5t69.5 84t112.5 31.5q94 0 145 -58v107h-176v66h176q-1 25 -11.5 41.5t-36.5 35.5l87 76q51 -26 71 -59.5t20 -93.5h63v-66
h-63zM390 300q-23 82 -107 82q-54 0 -83.5 -38.5t-29.5 -92.5v-32q0 -55 29 -93t84 -38q84 0 107 82v130z" />
    <glyph glyph-name="uni1E0D" unicode="&#x1e0d;" horiz-adv-x="593" 
d="M530.5 101q10.5 -17 37.5 -37l-87 -76q-58 29 -79 78q-25 -39 -63 -58.5t-94 -19.5q-94 0 -149.5 62.5t-55.5 168.5v32q0 63 23 115.5t69.5 84t112.5 31.5q94 0 145 -58v169q0 27 -10.5 44t-37.5 37l87 76q51 -26 71 -59.5t20 -93.5v-452q0 -27 10.5 -44zM390 300
q-23 82 -107 82q-54 0 -83.5 -38.5t-29.5 -92.5v-32q0 -55 29 -93t84 -38q84 0 107 82v130zM244 -173q-21 21 -21 51q0 29 21 50.5t51 21.5q29 0 50.5 -21.5t21.5 -50.5q0 -30 -21.5 -51t-50.5 -21q-30 0 -51 21z" />
    <glyph glyph-name="uni1E0F" unicode="&#x1e0f;" horiz-adv-x="593" 
d="M530.5 101q10.5 -17 37.5 -37l-87 -76q-58 29 -79 78q-25 -39 -63 -58.5t-94 -19.5q-94 0 -149.5 62.5t-55.5 168.5v32q0 63 23 115.5t69.5 84t112.5 31.5q94 0 145 -58v169q0 27 -10.5 44t-37.5 37l87 76q51 -26 71 -59.5t20 -93.5v-452q0 -27 10.5 -44zM390 300
q-23 82 -107 82q-54 0 -83.5 -38.5t-29.5 -92.5v-32q0 -55 29 -93t84 -38q84 0 107 82v130zM134 -72h322v-90h-322v90z" />
    <glyph glyph-name="e" unicode="e" horiz-adv-x="493" 
d="M322 95.5q23 9.5 50 33.5l77 -70q-58 -71 -187 -71q-115 0 -166 43.5t-51 141.5v143q0 77 55.5 121.5t151.5 44.5q99 0 155 -47.5t56 -138.5q0 -44 -7.5 -68t-29.5 -35.5t-64 -11.5h-188v-9q0 -86 88 -86q37 0 60 9.5zM194.5 362.5q-20.5 -21.5 -20.5 -56.5v-36h114
q26 0 36 8t10 28q0 38 -21 58t-61 20q-37 0 -57.5 -21.5z" />
    <glyph glyph-name="eacute" unicode="&#xe9;" horiz-adv-x="493" 
d="M322 95.5q23 9.5 50 33.5l77 -70q-58 -71 -187 -71q-115 0 -166 43.5t-51 141.5v143q0 77 55.5 121.5t151.5 44.5q99 0 155 -47.5t56 -138.5q0 -44 -7.5 -68t-29.5 -35.5t-64 -11.5h-188v-9q0 -86 88 -86q37 0 60 9.5zM194.5 362.5q-20.5 -21.5 -20.5 -56.5v-36h114
q26 0 36 8t10 28q0 38 -21 58t-61 20q-37 0 -57.5 -21.5zM271 692h136l-111 -157h-105z" />
    <glyph glyph-name="ebreve" unicode="&#x115;" horiz-adv-x="493" 
d="M322 95.5q23 9.5 50 33.5l77 -70q-58 -71 -187 -71q-115 0 -166 43.5t-51 141.5v143q0 77 55.5 121.5t151.5 44.5q99 0 155 -47.5t56 -138.5q0 -44 -7.5 -68t-29.5 -35.5t-64 -11.5h-188v-9q0 -86 88 -86q37 0 60 9.5zM194.5 362.5q-20.5 -21.5 -20.5 -56.5v-36h114
q26 0 36 8t10 28q0 38 -21 58t-61 20q-37 0 -57.5 -21.5zM130 570.5q-45 45.5 -45 121.5h93q3 -36 22 -56.5t52 -20.5t52.5 21t21.5 56h93q0 -76 -45.5 -121.5t-121.5 -45.5q-77 0 -122 45.5z" />
    <glyph glyph-name="ecaron" unicode="&#x11b;" horiz-adv-x="493" 
d="M322 95.5q23 9.5 50 33.5l77 -70q-58 -71 -187 -71q-115 0 -166 43.5t-51 141.5v143q0 77 55.5 121.5t151.5 44.5q99 0 155 -47.5t56 -138.5q0 -44 -7.5 -68t-29.5 -35.5t-64 -11.5h-188v-9q0 -86 88 -86q37 0 60 9.5zM194.5 362.5q-20.5 -21.5 -20.5 -56.5v-36h114
q26 0 36 8t10 28q0 38 -21 58t-61 20q-37 0 -57.5 -21.5zM135.5 625q-36.5 45 -62.5 69h114q40 -35 64 -74q24 39 64 74h114q-26 -24 -62.5 -69t-60.5 -90h-110q-24 45 -60.5 90z" />
    <glyph glyph-name="ecircumflex" unicode="&#xea;" horiz-adv-x="493" 
d="M322 95.5q23 9.5 50 33.5l77 -70q-58 -71 -187 -71q-115 0 -166 43.5t-51 141.5v143q0 77 55.5 121.5t151.5 44.5q99 0 155 -47.5t56 -138.5q0 -44 -7.5 -68t-29.5 -35.5t-64 -11.5h-188v-9q0 -86 88 -86q37 0 60 9.5zM194.5 362.5q-20.5 -21.5 -20.5 -56.5v-36h114
q26 0 36 8t10 28q0 38 -21 58t-61 20q-37 0 -57.5 -21.5zM135.5 604q36.5 45 60.5 90h110q24 -45 60.5 -90t62.5 -69h-114q-40 35 -64 74q-24 -39 -64 -74h-114q26 24 62.5 69z" />
    <glyph glyph-name="uni1EBF" unicode="&#x1ebf;" horiz-adv-x="493" 
d="M322 95.5q23 9.5 50 33.5l77 -70q-58 -71 -187 -71q-115 0 -166 43.5t-51 141.5v143q0 77 55.5 121.5t151.5 44.5q99 0 155 -47.5t56 -138.5q0 -44 -7.5 -68t-29.5 -35.5t-64 -11.5h-188v-9q0 -86 88 -86q37 0 60 9.5zM194.5 362.5q-20.5 -21.5 -20.5 -56.5v-36h114
q26 0 36 8t10 28q0 38 -21 58t-61 20q-37 0 -57.5 -21.5zM431 766h126l-94 -126h-95zM135.5 604q36.5 45 60.5 90h110q24 -45 60.5 -90t62.5 -69h-114q-40 35 -64 74q-24 -39 -64 -74h-114q26 24 62.5 69z" />
    <glyph glyph-name="uni1EC7" unicode="&#x1ec7;" horiz-adv-x="493" 
d="M322 95.5q23 9.5 50 33.5l77 -70q-58 -71 -187 -71q-115 0 -166 43.5t-51 141.5v143q0 77 55.5 121.5t151.5 44.5q99 0 155 -47.5t56 -138.5q0 -44 -7.5 -68t-29.5 -35.5t-64 -11.5h-188v-9q0 -86 88 -86q37 0 60 9.5zM194.5 362.5q-20.5 -21.5 -20.5 -56.5v-36h114
q26 0 36 8t10 28q0 38 -21 58t-61 20q-37 0 -57.5 -21.5zM201 -173q-21 21 -21 51q0 29 21 50.5t51 21.5q29 0 50.5 -21.5t21.5 -50.5q0 -30 -21.5 -51t-50.5 -21q-30 0 -51 21zM135.5 604q36.5 45 60.5 90h110q24 -45 60.5 -90t62.5 -69h-114q-40 35 -64 74
q-24 -39 -64 -74h-114q26 24 62.5 69z" />
    <glyph glyph-name="uni1EC1" unicode="&#x1ec1;" horiz-adv-x="493" 
d="M322 95.5q23 9.5 50 33.5l77 -70q-58 -71 -187 -71q-115 0 -166 43.5t-51 141.5v143q0 77 55.5 121.5t151.5 44.5q99 0 155 -47.5t56 -138.5q0 -44 -7.5 -68t-29.5 -35.5t-64 -11.5h-188v-9q0 -86 88 -86q37 0 60 9.5zM194.5 362.5q-20.5 -21.5 -20.5 -56.5v-36h114
q26 0 36 8t10 28q0 38 -21 58t-61 20q-37 0 -57.5 -21.5zM313 766h126l63 -126h-95zM135.5 604q36.5 45 60.5 90h110q24 -45 60.5 -90t62.5 -69h-114q-40 35 -64 74q-24 -39 -64 -74h-114q26 24 62.5 69z" />
    <glyph glyph-name="uni1EC3" unicode="&#x1ec3;" horiz-adv-x="493" 
d="M322 95.5q23 9.5 50 33.5l77 -70q-58 -71 -187 -71q-115 0 -166 43.5t-51 141.5v143q0 77 55.5 121.5t151.5 44.5q99 0 155 -47.5t56 -138.5q0 -44 -7.5 -68t-29.5 -35.5t-64 -11.5h-188v-9q0 -86 88 -86q37 0 60 9.5zM194.5 362.5q-20.5 -21.5 -20.5 -56.5v-36h114
q26 0 36 8t10 28q0 38 -21 58t-61 20q-37 0 -57.5 -21.5zM519.5 689q-18.5 -18 -52.5 -27v-31h-76v66q73 6 73 33q0 15 -9 21t-30 6t-50 -11l-19 56q35 17 82 17q48 0 74 -20t26 -60q0 -32 -18.5 -50zM366.5 604q36.5 -45 62.5 -69h-114q-40 35 -64 74q-24 -39 -64 -74h-114
q26 24 62.5 69t60.5 90h110q24 -45 60.5 -90z" />
    <glyph glyph-name="uni1EC5" unicode="&#x1ec5;" horiz-adv-x="493" 
d="M322 95.5q23 9.5 50 33.5l77 -70q-58 -71 -187 -71q-115 0 -166 43.5t-51 141.5v143q0 77 55.5 121.5t151.5 44.5q99 0 155 -47.5t56 -138.5q0 -44 -7.5 -68t-29.5 -35.5t-64 -11.5h-188v-9q0 -86 88 -86q37 0 60 9.5zM194.5 362.5q-20.5 -21.5 -20.5 -56.5v-36h114
q26 0 36 8t10 28q0 38 -21 58t-61 20q-37 0 -57.5 -21.5zM120.5 813q29.5 35 80.5 35q18 0 33.5 -5t34.5 -14q28 -14 43 -14q9 0 17 10.5t10 30.5h76q-5 -50 -33 -85.5t-70 -35.5q-18 0 -33.5 5t-34.5 14q-28 14 -43 14q-12 0 -22 -10t-14 -31h-76q2 51 31.5 86zM135.5 604
q36.5 45 60.5 90h110q24 -45 60.5 -90t62.5 -69h-114q-40 35 -64 74q-24 -39 -64 -74h-114q26 24 62.5 69z" />
    <glyph glyph-name="edieresis" unicode="&#xeb;" horiz-adv-x="493" 
d="M322 95.5q23 9.5 50 33.5l77 -70q-58 -71 -187 -71q-115 0 -166 43.5t-51 141.5v143q0 77 55.5 121.5t151.5 44.5q99 0 155 -47.5t56 -138.5q0 -44 -7.5 -68t-29.5 -35.5t-64 -11.5h-188v-9q0 -86 88 -86q37 0 60 9.5zM194.5 362.5q-20.5 -21.5 -20.5 -56.5v-36h114
q26 0 36 8t10 28q0 38 -21 58t-61 20q-37 0 -57.5 -21.5zM118 546q-19 19 -19 45t19 44.5t45 18.5q25 0 44 -18.5t19 -44.5t-18.5 -45t-44.5 -19t-45 19zM296.5 546q-18.5 19 -18.5 45t18.5 44.5t45.5 18.5q26 0 45 -19t19 -44q0 -26 -19 -45t-45 -19q-27 0 -45.5 19z" />
    <glyph glyph-name="edotaccent" unicode="&#x117;" horiz-adv-x="493" 
d="M322 95.5q23 9.5 50 33.5l77 -70q-58 -71 -187 -71q-115 0 -166 43.5t-51 141.5v143q0 77 55.5 121.5t151.5 44.5q99 0 155 -47.5t56 -138.5q0 -44 -7.5 -68t-29.5 -35.5t-64 -11.5h-188v-9q0 -86 88 -86q37 0 60 9.5zM194.5 362.5q-20.5 -21.5 -20.5 -56.5v-36h114
q26 0 36 8t10 28q0 38 -21 58t-61 20q-37 0 -57.5 -21.5zM201 548q-21 21 -21 51q0 29 21 50.5t51 21.5q29 0 50.5 -21.5t21.5 -50.5q0 -30 -21.5 -51t-50.5 -21q-30 0 -51 21z" />
    <glyph glyph-name="uni1EB9" unicode="&#x1eb9;" horiz-adv-x="493" 
d="M322 95.5q23 9.5 50 33.5l77 -70q-58 -71 -187 -71q-115 0 -166 43.5t-51 141.5v143q0 77 55.5 121.5t151.5 44.5q99 0 155 -47.5t56 -138.5q0 -44 -7.5 -68t-29.5 -35.5t-64 -11.5h-188v-9q0 -86 88 -86q37 0 60 9.5zM194.5 362.5q-20.5 -21.5 -20.5 -56.5v-36h114
q26 0 36 8t10 28q0 38 -21 58t-61 20q-37 0 -57.5 -21.5zM201 -173q-21 21 -21 51q0 29 21 50.5t51 21.5q29 0 50.5 -21.5t21.5 -50.5q0 -30 -21.5 -51t-50.5 -21q-30 0 -51 21z" />
    <glyph glyph-name="egrave" unicode="&#xe8;" horiz-adv-x="493" 
d="M322 95.5q23 9.5 50 33.5l77 -70q-58 -71 -187 -71q-115 0 -166 43.5t-51 141.5v143q0 77 55.5 121.5t151.5 44.5q99 0 155 -47.5t56 -138.5q0 -44 -7.5 -68t-29.5 -35.5t-64 -11.5h-188v-9q0 -86 88 -86q37 0 60 9.5zM194.5 362.5q-20.5 -21.5 -20.5 -56.5v-36h114
q26 0 36 8t10 28q0 38 -21 58t-61 20q-37 0 -57.5 -21.5zM91 692h136l80 -157h-105z" />
    <glyph glyph-name="uni1EBB" unicode="&#x1ebb;" horiz-adv-x="493" 
d="M322 95.5q23 9.5 50 33.5l77 -70q-58 -71 -187 -71q-115 0 -166 43.5t-51 141.5v143q0 77 55.5 121.5t151.5 44.5q99 0 155 -47.5t56 -138.5q0 -44 -7.5 -68t-29.5 -35.5t-64 -11.5h-188v-9q0 -86 88 -86q37 0 60 9.5zM194.5 362.5q-20.5 -21.5 -20.5 -56.5v-36h114
q26 0 36 8t10 28q0 38 -21 58t-61 20q-37 0 -57.5 -21.5zM292 572v-37h-93v81q48 4 69 13.5t21 27.5q0 17 -11.5 24.5t-35.5 7.5q-29 0 -62 -14l-22 69q43 21 99 21q63 0 97 -24.5t34 -73.5q0 -72 -96 -95z" />
    <glyph glyph-name="emacron" unicode="&#x113;" horiz-adv-x="493" 
d="M322 95.5q23 9.5 50 33.5l77 -70q-58 -71 -187 -71q-115 0 -166 43.5t-51 141.5v143q0 77 55.5 121.5t151.5 44.5q99 0 155 -47.5t56 -138.5q0 -44 -7.5 -68t-29.5 -35.5t-64 -11.5h-188v-9q0 -86 88 -86q37 0 60 9.5zM194.5 362.5q-20.5 -21.5 -20.5 -56.5v-36h114
q26 0 36 8t10 28q0 38 -21 58t-61 20q-37 0 -57.5 -21.5zM91 637h322v-90h-322v90z" />
    <glyph glyph-name="eogonek" unicode="&#x119;" horiz-adv-x="493" 
d="M322 95.5q23 9.5 50 33.5l77 -70q-55 -67 -170 -71q-33 -46 -33 -91q0 -24 14.5 -35.5t37.5 -11.5t54 13l22 -71q-40 -26 -88 -26q-80 0 -114.5 34t-34.5 77q0 64 52 116q-76 13 -110 56t-34 124v143q0 77 55.5 121.5t151.5 44.5q99 0 155 -47.5t56 -138.5
q0 -44 -7.5 -68t-29.5 -35.5t-64 -11.5h-188v-9q0 -86 88 -86q37 0 60 9.5zM194.5 362.5q-20.5 -21.5 -20.5 -56.5v-36h114q26 0 36 8t10 28q0 38 -21 58t-61 20q-37 0 -57.5 -21.5z" />
    <glyph glyph-name="uni1EBD" unicode="&#x1ebd;" horiz-adv-x="493" 
d="M322 95.5q23 9.5 50 33.5l77 -70q-58 -71 -187 -71q-115 0 -166 43.5t-51 141.5v143q0 77 55.5 121.5t151.5 44.5q99 0 155 -47.5t56 -138.5q0 -44 -7.5 -68t-29.5 -35.5t-64 -11.5h-188v-9q0 -86 88 -86q37 0 60 9.5zM194.5 362.5q-20.5 -21.5 -20.5 -56.5v-36h114
q26 0 36 8t10 28q0 38 -21 58t-61 20q-37 0 -57.5 -21.5zM110.5 638q29.5 41 85.5 41q20 0 37 -6t38 -17q3 -1 18.5 -8.5t28.5 -7.5q19 0 23 48h84q-5 -60 -33 -102t-74 -42q-20 0 -37 6t-38 17q-3 1 -18.5 8.5t-28.5 7.5t-21 -11.5t-12 -36.5h-84q2 62 31.5 103z" />
    <glyph glyph-name="uni0259" unicode="&#x259;" horiz-adv-x="493" 
d="M397 436.5q51 -43.5 51 -141.5v-141q0 -77 -55.5 -121.5t-151.5 -44.5q-99 0 -155 47.5t-56 138.5q0 43 7.5 67t29 35t64.5 11h187v9q0 43 -21.5 63.5t-65.5 20.5q-37 0 -59 -9.5t-49 -33.5l-79 72q58 71 187 71q115 0 166 -43.5zM297.5 109q20.5 21 20.5 55v34h-112
q-27 0 -36.5 -7t-9.5 -27q0 -37 21 -56.5t60 -19.5q36 0 56.5 21z" />
    <glyph glyph-name="f" unicode="f" horiz-adv-x="343" 
d="M224.5 612.5q-22.5 -27.5 -22.5 -78.5v-64h136v-100h-136v-370h-130v534q0 100 56.5 153t160.5 53h49v-100h-49q-42 0 -64.5 -27.5z" />
    <glyph glyph-name="g" unicode="g" horiz-adv-x="593" 
d="M568 406q-27 -20 -37.5 -37t-10.5 -44v-339q0 -98 -53.5 -142t-173.5 -44h-132v100h132q51 0 74 20t23 66v75q-23 -30 -55.5 -45.5t-89.5 -15.5q-94 0 -149.5 62.5t-55.5 168.5v20q0 63 23 115.5t69.5 84t112.5 31.5q102 0 155 -81q9 26 28.5 45t52.5 36zM390 182v118
q-23 82 -107 82q-54 0 -83.5 -38.5t-29.5 -92.5v-20q0 -55 29 -93t84 -38q84 0 107 82z" />
    <glyph glyph-name="gbreve" unicode="&#x11f;" horiz-adv-x="593" 
d="M568 406q-27 -20 -37.5 -37t-10.5 -44v-339q0 -98 -53.5 -142t-173.5 -44h-132v100h132q51 0 74 20t23 66v75q-23 -30 -55.5 -45.5t-89.5 -15.5q-94 0 -149.5 62.5t-55.5 168.5v20q0 63 23 115.5t69.5 84t112.5 31.5q102 0 155 -81q9 26 28.5 45t52.5 36zM390 182v118
q-23 82 -107 82q-54 0 -83.5 -38.5t-29.5 -92.5v-20q0 -55 29 -93t84 -38q84 0 107 82zM171 570.5q-45 45.5 -45 121.5h93q3 -36 22 -56.5t52 -20.5t52.5 21t21.5 56h93q0 -76 -45.5 -121.5t-121.5 -45.5q-77 0 -122 45.5z" />
    <glyph glyph-name="gcaron" unicode="&#x1e7;" horiz-adv-x="593" 
d="M568 406q-27 -20 -37.5 -37t-10.5 -44v-339q0 -98 -53.5 -142t-173.5 -44h-132v100h132q51 0 74 20t23 66v75q-23 -30 -55.5 -45.5t-89.5 -15.5q-94 0 -149.5 62.5t-55.5 168.5v20q0 63 23 115.5t69.5 84t112.5 31.5q102 0 155 -81q9 26 28.5 45t52.5 36zM390 182v118
q-23 82 -107 82q-54 0 -83.5 -38.5t-29.5 -92.5v-20q0 -55 29 -93t84 -38q84 0 107 82zM176.5 625q-36.5 45 -62.5 69h114q40 -35 64 -74q24 39 64 74h114q-26 -24 -62.5 -69t-60.5 -90h-110q-24 45 -60.5 90z" />
    <glyph glyph-name="gcircumflex" unicode="&#x11d;" horiz-adv-x="593" 
d="M568 406q-27 -20 -37.5 -37t-10.5 -44v-339q0 -98 -53.5 -142t-173.5 -44h-132v100h132q51 0 74 20t23 66v75q-23 -30 -55.5 -45.5t-89.5 -15.5q-94 0 -149.5 62.5t-55.5 168.5v20q0 63 23 115.5t69.5 84t112.5 31.5q102 0 155 -81q9 26 28.5 45t52.5 36zM390 182v118
q-23 82 -107 82q-54 0 -83.5 -38.5t-29.5 -92.5v-20q0 -55 29 -93t84 -38q84 0 107 82zM176.5 604q36.5 45 60.5 90h110q24 -45 60.5 -90t62.5 -69h-114q-40 35 -64 74q-24 -39 -64 -74h-114q26 24 62.5 69z" />
    <glyph glyph-name="uni0123" unicode="&#x123;" horiz-adv-x="593" 
d="M235.5 546.5q-20.5 24.5 -20.5 69.5q0 55 26 98.5t77 84.5l39 -37q-30 -23 -46.5 -45t-22.5 -47q13 6 31 6q26 0 41 -17.5t15 -48.5q0 -33 -23.5 -60.5t-58.5 -27.5q-37 0 -57.5 24.5zM568 406q-27 -20 -37.5 -37t-10.5 -44v-339q0 -98 -53.5 -142t-173.5 -44h-132v100
h132q51 0 74 20t23 66v75q-23 -30 -55.5 -45.5t-89.5 -15.5q-94 0 -149.5 62.5t-55.5 168.5v20q0 63 23 115.5t69.5 84t112.5 31.5q102 0 155 -81q9 26 28.5 45t52.5 36zM390 182v118q-23 82 -107 82q-54 0 -83.5 -38.5t-29.5 -92.5v-20q0 -55 29 -93t84 -38q84 0 107 82z
" />
    <glyph glyph-name="gdotaccent" unicode="&#x121;" horiz-adv-x="593" 
d="M568 406q-27 -20 -37.5 -37t-10.5 -44v-339q0 -98 -53.5 -142t-173.5 -44h-132v100h132q51 0 74 20t23 66v75q-23 -30 -55.5 -45.5t-89.5 -15.5q-94 0 -149.5 62.5t-55.5 168.5v20q0 63 23 115.5t69.5 84t112.5 31.5q102 0 155 -81q9 26 28.5 45t52.5 36zM390 182v118
q-23 82 -107 82q-54 0 -83.5 -38.5t-29.5 -92.5v-20q0 -55 29 -93t84 -38q84 0 107 82zM242 548q-21 21 -21 51q0 29 21 50.5t51 21.5q29 0 50.5 -21.5t21.5 -50.5q0 -30 -21.5 -51t-50.5 -21q-30 0 -51 21z" />
    <glyph glyph-name="uni1E21" unicode="&#x1e21;" horiz-adv-x="593" 
d="M568 406q-27 -20 -37.5 -37t-10.5 -44v-339q0 -98 -53.5 -142t-173.5 -44h-132v100h132q51 0 74 20t23 66v75q-23 -30 -55.5 -45.5t-89.5 -15.5q-94 0 -149.5 62.5t-55.5 168.5v20q0 63 23 115.5t69.5 84t112.5 31.5q102 0 155 -81q9 26 28.5 45t52.5 36zM390 182v118
q-23 82 -107 82q-54 0 -83.5 -38.5t-29.5 -92.5v-20q0 -55 29 -93t84 -38q84 0 107 82zM132 637h322v-90h-322v90z" />
    <glyph glyph-name="h" unicode="h" horiz-adv-x="556" 
d="M454.5 440q41.5 -42 41.5 -120v-320h-130v308q0 34 -18.5 54t-49.5 20q-66 0 -95 -78v-304h-130v593q0 27 -10.5 44t-37.5 37l87 76q51 -26 71 -59.5t20 -93.5v-174q46 59 133 59q77 0 118.5 -42z" />
    <glyph glyph-name="hbar" unicode="&#x127;" horiz-adv-x="556" 
d="M454.5 440q41.5 -42 41.5 -120v-320h-130v308q0 34 -18.5 54t-49.5 20q-66 0 -95 -78v-304h-130v531h-73v66h73q-1 25 -11.5 41.5t-36.5 35.5l87 76q51 -26 71 -59.5t20 -93.5h159v-66h-159v-108q46 59 133 59q77 0 118.5 -42z" />
    <glyph glyph-name="uni1E2B" unicode="&#x1e2b;" horiz-adv-x="556" 
d="M454.5 440q41.5 -42 41.5 -120v-320h-130v308q0 34 -18.5 54t-49.5 20q-66 0 -95 -78v-304h-130v593q0 27 -10.5 44t-37.5 37l87 76q51 -26 71 -59.5t20 -93.5v-174q46 59 133 59q77 0 118.5 -42zM164 -184.5q-45 45.5 -45 122.5h93q3 -36 22 -56.5t52 -20.5t52.5 21
t21.5 56h93q0 -77 -45 -122.5t-122 -45.5t-122 45.5z" />
    <glyph glyph-name="hcircumflex" unicode="&#x125;" horiz-adv-x="556" 
d="M454.5 440q41.5 -42 41.5 -120v-320h-130v308q0 34 -18.5 54t-49.5 20q-66 0 -95 -78v-304h-130v593q0 27 -10.5 44t-37.5 37l87 76q51 -26 71 -59.5t20 -93.5v-174q46 59 133 59q77 0 118.5 -42zM173.5 870q36.5 45 60.5 90h110q24 -45 60.5 -90t62.5 -69h-114
q-40 35 -64 74q-24 -39 -64 -74h-114q26 24 62.5 69z" />
    <glyph glyph-name="uni1E25" unicode="&#x1e25;" horiz-adv-x="556" 
d="M454.5 440q41.5 -42 41.5 -120v-320h-130v308q0 34 -18.5 54t-49.5 20q-66 0 -95 -78v-304h-130v593q0 27 -10.5 44t-37.5 37l87 76q51 -26 71 -59.5t20 -93.5v-174q46 59 133 59q77 0 118.5 -42zM235 -173q-21 21 -21 51q0 29 21 50.5t51 21.5q29 0 50.5 -21.5
t21.5 -50.5q0 -30 -21.5 -51t-50.5 -21q-30 0 -51 21z" />
    <glyph glyph-name="i" unicode="i" horiz-adv-x="280" 
d="M84 555q-22 22 -22 53q0 30 22 52.5t53 22.5q30 0 52.5 -22.5t22.5 -52.5q0 -31 -22.5 -53t-52.5 -22q-31 0 -53 22zM92 47.5q-20 33.5 -20 93.5v329h130v-325q0 -27 10.5 -44t37.5 -37l-87 -76q-51 26 -71 59.5z" />
    <glyph glyph-name="dotlessi" unicode="&#x131;" horiz-adv-x="280" 
d="M95 47.5q-20 33.5 -20 93.5v329h130v-325q0 -27 10.5 -44t37.5 -37l-87 -76q-51 26 -71 59.5z" />
    <glyph glyph-name="iacute" unicode="&#xed;" horiz-adv-x="280" 
d="M95 47.5q-20 33.5 -20 93.5v329h130v-325q0 -27 10.5 -44t37.5 -37l-87 -76q-51 26 -71 59.5zM159 692h136l-111 -157h-105z" />
    <glyph glyph-name="ibreve" unicode="&#x12d;" horiz-adv-x="280" 
d="M95 47.5q-20 33.5 -20 93.5v329h130v-325q0 -27 10.5 -44t37.5 -37l-87 -76q-51 26 -71 59.5zM18 570.5q-45 45.5 -45 121.5h93q3 -36 22 -56.5t52 -20.5t52.5 21t21.5 56h93q0 -76 -45.5 -121.5t-121.5 -45.5q-77 0 -122 45.5z" />
    <glyph glyph-name="uni01D0" unicode="&#x1d0;" horiz-adv-x="280" 
d="M95 47.5q-20 33.5 -20 93.5v329h130v-325q0 -27 10.5 -44t37.5 -37l-87 -76q-51 26 -71 59.5zM23.5 625q-36.5 45 -62.5 69h114q40 -35 64 -74q24 39 64 74h114q-26 -24 -62.5 -69t-60.5 -90h-110q-24 45 -60.5 90z" />
    <glyph glyph-name="icircumflex" unicode="&#xee;" horiz-adv-x="280" 
d="M95 47.5q-20 33.5 -20 93.5v329h130v-325q0 -27 10.5 -44t37.5 -37l-87 -76q-51 26 -71 59.5zM23.5 604q36.5 45 60.5 90h110q24 -45 60.5 -90t62.5 -69h-114q-40 35 -64 74q-24 -39 -64 -74h-114q26 24 62.5 69z" />
    <glyph glyph-name="idieresis" unicode="&#xef;" horiz-adv-x="280" 
d="M95 47.5q-20 33.5 -20 93.5v329h130v-325q0 -27 10.5 -44t37.5 -37l-87 -76q-51 26 -71 59.5zM6 546q-19 19 -19 45t19 44.5t45 18.5q25 0 44 -18.5t19 -44.5t-18.5 -45t-44.5 -19t-45 19zM184.5 546q-18.5 19 -18.5 45t18.5 44.5t45.5 18.5q26 0 45 -19t19 -44
q0 -26 -19 -45t-45 -19q-27 0 -45.5 19z" />
    <glyph glyph-name="uni1ECB" unicode="&#x1ecb;" horiz-adv-x="280" 
d="M84 555q-22 22 -22 53q0 30 22 52.5t53 22.5q30 0 52.5 -22.5t22.5 -52.5q0 -31 -22.5 -53t-52.5 -22q-31 0 -53 22zM92 47.5q-20 33.5 -20 93.5v329h130v-325q0 -27 10.5 -44t37.5 -37l-87 -76q-51 26 -71 59.5zM90 -173q-21 21 -21 51q0 29 21 50.5t51 21.5
q29 0 50.5 -21.5t21.5 -50.5q0 -30 -21.5 -51t-50.5 -21q-30 0 -51 21z" />
    <glyph glyph-name="igrave" unicode="&#xec;" horiz-adv-x="280" 
d="M95 47.5q-20 33.5 -20 93.5v329h130v-325q0 -27 10.5 -44t37.5 -37l-87 -76q-51 26 -71 59.5zM-21 692h136l80 -157h-105z" />
    <glyph glyph-name="uni1EC9" unicode="&#x1ec9;" horiz-adv-x="280" 
d="M95 47.5q-20 33.5 -20 93.5v329h130v-325q0 -27 10.5 -44t37.5 -37l-87 -76q-51 26 -71 59.5zM180 572v-37h-93v81q48 4 69 13.5t21 27.5q0 17 -11.5 24.5t-35.5 7.5q-29 0 -62 -14l-22 69q43 21 99 21q63 0 97 -24.5t34 -73.5q0 -72 -96 -95z" />
    <glyph glyph-name="ij" unicode="&#x133;" horiz-adv-x="521" 
d="M84 555q-22 22 -22 53q0 30 22 52.5t53 22.5q30 0 52.5 -22.5t22.5 -52.5q0 -31 -22.5 -53t-52.5 -22q-31 0 -53 22zM92 47.5q-20 33.5 -20 93.5v329h130v-325q0 -27 10.5 -44t37.5 -37l-87 -76q-51 26 -71 59.5zM341.5 555q-22.5 22 -22.5 53q0 30 22.5 52.5t52.5 22.5
q31 0 53 -22.5t22 -52.5q0 -31 -22 -53t-53 -22q-30 0 -52.5 22zM180 -135h52q54 0 75.5 23.5t21.5 82.5v499h130v-499q0 -77 -22 -121.5t-71 -64.5t-134 -20h-52v100z" />
    <glyph glyph-name="imacron" unicode="&#x12b;" horiz-adv-x="280" 
d="M95 47.5q-20 33.5 -20 93.5v329h130v-325q0 -27 10.5 -44t37.5 -37l-87 -76q-51 26 -71 59.5zM-21 637h322v-90h-322v90z" />
    <glyph glyph-name="iogonek" unicode="&#x12f;" horiz-adv-x="280" 
d="M89 548q-21 21 -21 51q0 29 21 50.5t51 21.5q29 0 50.5 -21.5t21.5 -50.5q0 -30 -21.5 -51t-50.5 -21q-30 0 -51 21zM267 -208q-40 -26 -88 -26q-80 0 -114.5 34t-34.5 77q0 41 20 75.5t65 69.5q-21 21 -30.5 49t-9.5 70v329h130v-325q0 -27 10.5 -44t37.5 -37l-67 -59
q-23 -26 -35 -54t-12 -54q0 -24 14.5 -35.5t37.5 -11.5t54 13z" />
    <glyph glyph-name="itilde" unicode="&#x129;" horiz-adv-x="280" 
d="M95 47.5q-20 33.5 -20 93.5v329h130v-325q0 -27 10.5 -44t37.5 -37l-87 -76q-51 26 -71 59.5zM-1.5 638q29.5 41 85.5 41q20 0 37 -6t38 -17q3 -1 18.5 -8.5t28.5 -7.5q19 0 23 48h84q-5 -60 -33 -102t-74 -42q-20 0 -37 6t-38 17q-3 1 -18.5 8.5t-28.5 7.5t-21 -11.5
t-12 -36.5h-84q2 62 31.5 103z" />
    <glyph glyph-name="j" unicode="j" horiz-adv-x="271" 
d="M91.5 555q-22.5 22 -22.5 53q0 30 22.5 52.5t52.5 22.5q31 0 53 -22.5t22 -52.5q0 -31 -22 -53t-53 -22q-30 0 -52.5 22zM-70 -135h52q54 0 75.5 23.5t21.5 82.5v499h130v-499q0 -77 -22 -121.5t-71 -64.5t-134 -20h-52v100z" />
    <glyph glyph-name="uni0237" unicode="&#x237;" horiz-adv-x="257" 
d="M-70 -135h52q54 0 75.5 23.5t21.5 82.5v499h130v-499q0 -77 -22 -121.5t-71 -64.5t-134 -20h-52v100z" />
    <glyph glyph-name="jcircumflex" unicode="&#x135;" horiz-adv-x="257" 
d="M-70 -135h52q54 0 75.5 23.5t21.5 82.5v499h130v-499q0 -77 -22 -121.5t-71 -64.5t-134 -20h-52v100zM27.5 604q36.5 45 60.5 90h110q24 -45 60.5 -90t62.5 -69h-114q-40 35 -64 74q-24 -39 -64 -74h-114q26 24 62.5 69z" />
    <glyph glyph-name="k" unicode="k" horiz-adv-x="548" 
d="M523 0h-133l-44 158q-8 28 -24 41.5t-54 17.5l-65 -66v-151h-130v593q0 27 -10.5 44t-37.5 37l87 76q51 -26 71 -59.5t20 -93.5v-288l156 161h158l-159 -161q48 -12 74.5 -47t46.5 -104z" />
    <glyph glyph-name="uni0137" unicode="&#x137;" horiz-adv-x="548" 
d="M523 0h-133l-44 158q-8 28 -24 41.5t-54 17.5l-65 -66v-151h-130v593q0 27 -10.5 44t-37.5 37l87 76q51 -26 71 -59.5t20 -93.5v-288l156 161h158l-159 -161q48 -12 74.5 -47t46.5 -104zM347.5 -76.5q20.5 -24.5 20.5 -69.5q0 -55 -26 -98.5t-77 -84.5l-39 37
q30 23 46.5 45t22.5 47q-13 -6 -31 -6q-26 0 -41 17.5t-15 48.5q0 33 23.5 60.5t58.5 27.5q37 0 57.5 -24.5z" />
    <glyph glyph-name="kgreenlandic" unicode="&#x138;" horiz-adv-x="500" 
d="M475 0h-133l-44 158q-8 28 -24 41.5t-54 17.5l-65 -67v-150h-130v470h130v-161l156 161h158l-159 -161q48 -12 74.5 -47t46.5 -104z" />
    <glyph glyph-name="l" unicode="l" horiz-adv-x="276" 
d="M93 47.5q-20 33.5 -20 93.5v452q0 27 -10.5 44t-37.5 37l87 76q51 -26 71 -59.5t20 -93.5v-452q0 -27 10.5 -44t37.5 -37l-87 -76q-51 26 -71 59.5z" />
    <glyph glyph-name="lacute" unicode="&#x13a;" horiz-adv-x="276" 
d="M93 47.5q-20 33.5 -20 93.5v452q0 27 -10.5 44t-37.5 37l87 76q51 -26 71 -59.5t20 -93.5v-452q0 -27 10.5 -44t37.5 -37l-87 -76q-51 26 -71 59.5zM147 962h136l-111 -157h-105z" />
    <glyph glyph-name="lcaron" unicode="&#x13e;" horiz-adv-x="396" 
d="M93 47.5q-20 33.5 -20 93.5v452q0 27 -10.5 44t-37.5 37l87 76q51 -26 71 -59.5t20 -93.5v-452q0 -27 10.5 -44t37.5 -37l-87 -76q-51 26 -71 59.5zM375.5 711.5q20.5 -24.5 20.5 -69.5q0 -55 -26 -98.5t-77 -84.5l-39 37q30 23 46.5 45t22.5 47q-13 -6 -31 -6
q-26 0 -41 17.5t-15 48.5q0 33 23.5 60.5t58.5 27.5q37 0 57.5 -24.5z" />
    <glyph glyph-name="uni013C" unicode="&#x13c;" horiz-adv-x="276" 
d="M93 47.5q-20 33.5 -20 93.5v452q0 27 -10.5 44t-37.5 37l87 76q51 -26 71 -59.5t20 -93.5v-452q0 -27 10.5 -44t37.5 -37l-87 -76q-51 26 -71 59.5zM220.5 -76.5q20.5 -24.5 20.5 -69.5q0 -55 -26 -98.5t-77 -84.5l-39 37q30 23 46.5 45t22.5 47q-13 -6 -31 -6
q-26 0 -41 17.5t-15 48.5q0 33 23.5 60.5t58.5 27.5q37 0 57.5 -24.5z" />
    <glyph glyph-name="ldot" unicode="&#x140;" horiz-adv-x="438" 
d="M93 47.5q-20 33.5 -20 93.5v452q0 27 -10.5 44t-37.5 37l87 76q51 -26 71 -59.5t20 -93.5v-452q0 -27 10.5 -44t37.5 -37l-87 -76q-51 26 -71 59.5zM289 236q-26 25 -26 61q0 37 26 63t63 26q35 0 60.5 -26t25.5 -63q0 -36 -25.5 -61t-60.5 -25q-37 0 -63 25z" />
    <glyph glyph-name="uni1E37" unicode="&#x1e37;" horiz-adv-x="276" 
d="M93 47.5q-20 33.5 -20 93.5v452q0 27 -10.5 44t-37.5 37l87 76q51 -26 71 -59.5t20 -93.5v-452q0 -27 10.5 -44t37.5 -37l-87 -76q-51 26 -71 59.5zM112 -173q-21 21 -21 51q0 29 21 50.5t51 21.5q29 0 50.5 -21.5t21.5 -50.5q0 -30 -21.5 -51t-50.5 -21q-30 0 -51 21z
" />
    <glyph glyph-name="uni1E39" unicode="&#x1e39;" horiz-adv-x="276" 
d="M93 47.5q-20 33.5 -20 93.5v452q0 27 -10.5 44t-37.5 37l87 76q51 -26 71 -59.5t20 -93.5v-452q0 -27 10.5 -44t37.5 -37l-87 -76q-51 26 -71 59.5zM112 -173q-21 21 -21 51q0 29 21 50.5t51 21.5q29 0 50.5 -21.5t21.5 -50.5q0 -30 -21.5 -51t-50.5 -21q-30 0 -51 21z
M-33 907h322v-90h-322v90z" />
    <glyph glyph-name="uni1E3B" unicode="&#x1e3b;" horiz-adv-x="276" 
d="M93 47.5q-20 33.5 -20 93.5v452q0 27 -10.5 44t-37.5 37l87 76q51 -26 71 -59.5t20 -93.5v-452q0 -27 10.5 -44t37.5 -37l-87 -76q-51 26 -71 59.5zM2 -72h322v-90h-322v90z" />
    <glyph glyph-name="lslash" unicode="&#x142;" horiz-adv-x="295" 
d="M211 382v-237q0 -27 10.5 -44t37.5 -37l-87 -76q-51 26 -71 59.5t-20 93.5v151l-81 -56v110l81 56v191q0 27 -10.5 44t-37.5 37l87 76q51 -26 71 -59.5t20 -93.5v-105l84 58v-110z" />
    <glyph glyph-name="m" unicode="m" horiz-adv-x="813" 
d="M714.5 440q38.5 -42 38.5 -120v-320h-130v308q0 34 -15.5 54t-42.5 20q-59 0 -87 -75v-307h-130v308q0 34 -15.5 54t-42.5 20q-59 0 -87 -75v-307h-130v325q0 27 -10.5 44t-37.5 37l87 76q60 -29 79 -76q47 76 137 76q50 0 84.5 -20.5t50.5 -59.5q45 80 140 80
q73 0 111.5 -42z" />
    <glyph glyph-name="uni1E43" unicode="&#x1e43;" horiz-adv-x="813" 
d="M714.5 440q38.5 -42 38.5 -120v-320h-130v308q0 34 -15.5 54t-42.5 20q-59 0 -87 -75v-307h-130v308q0 34 -15.5 54t-42.5 20q-59 0 -87 -75v-307h-130v325q0 27 -10.5 44t-37.5 37l87 76q60 -29 79 -76q47 76 137 76q50 0 84.5 -20.5t50.5 -59.5q45 80 140 80
q73 0 111.5 -42zM362 -173q-21 21 -21 51q0 29 21 50.5t51 21.5q29 0 50.5 -21.5t21.5 -50.5q0 -30 -21.5 -51t-50.5 -21q-30 0 -51 21z" />
    <glyph glyph-name="n" unicode="n" horiz-adv-x="556" 
d="M454.5 440q41.5 -42 41.5 -120v-320h-130v308q0 34 -18.5 54t-49.5 20q-66 0 -95 -78v-304h-130v325q0 27 -10.5 44t-37.5 37l87 76q32 -16 50.5 -34t28.5 -42q21 34 56.5 55t88.5 21q77 0 118.5 -42z" />
    <glyph glyph-name="nacute" unicode="&#x144;" horiz-adv-x="556" 
d="M454.5 440q41.5 -42 41.5 -120v-320h-130v308q0 34 -18.5 54t-49.5 20q-66 0 -95 -78v-304h-130v325q0 27 -10.5 44t-37.5 37l87 76q32 -16 50.5 -34t28.5 -42q21 34 56.5 55t88.5 21q77 0 118.5 -42zM294 692h136l-111 -157h-105z" />
    <glyph glyph-name="napostrophe" unicode="&#x149;" horiz-adv-x="658" 
d="M174.5 711.5q20.5 -24.5 20.5 -69.5q0 -55 -26 -98.5t-77 -84.5l-39 37q30 23 46.5 45t22.5 47q-13 -6 -31 -6q-26 0 -41 17.5t-15 48.5q0 33 23.5 60.5t58.5 27.5q37 0 57.5 -24.5zM556.5 440q41.5 -42 41.5 -120v-320h-130v308q0 34 -18.5 54t-49.5 20q-66 0 -95 -78
v-304h-130v325q0 27 -10.5 44t-37.5 37l87 76q32 -16 50.5 -34t28.5 -42q21 34 56.5 55t88.5 21q77 0 118.5 -42z" />
    <glyph glyph-name="ncaron" unicode="&#x148;" horiz-adv-x="556" 
d="M454.5 440q41.5 -42 41.5 -120v-320h-130v308q0 34 -18.5 54t-49.5 20q-66 0 -95 -78v-304h-130v325q0 27 -10.5 44t-37.5 37l87 76q32 -16 50.5 -34t28.5 -42q21 34 56.5 55t88.5 21q77 0 118.5 -42zM158.5 625q-36.5 45 -62.5 69h114q40 -35 64 -74q24 39 64 74h114
q-26 -24 -62.5 -69t-60.5 -90h-110q-24 45 -60.5 90z" />
    <glyph glyph-name="uni0146" unicode="&#x146;" horiz-adv-x="556" 
d="M454.5 440q41.5 -42 41.5 -120v-320h-130v308q0 34 -18.5 54t-49.5 20q-66 0 -95 -78v-304h-130v325q0 27 -10.5 44t-37.5 37l87 76q32 -16 50.5 -34t28.5 -42q21 34 56.5 55t88.5 21q77 0 118.5 -42zM342.5 -76.5q20.5 -24.5 20.5 -69.5q0 -55 -26 -98.5t-77 -84.5
l-39 37q30 23 46.5 45t22.5 47q-13 -6 -31 -6q-26 0 -41 17.5t-15 48.5q0 33 23.5 60.5t58.5 27.5q37 0 57.5 -24.5z" />
    <glyph glyph-name="uni1E45" unicode="&#x1e45;" horiz-adv-x="556" 
d="M454.5 440q41.5 -42 41.5 -120v-320h-130v308q0 34 -18.5 54t-49.5 20q-66 0 -95 -78v-304h-130v325q0 27 -10.5 44t-37.5 37l87 76q32 -16 50.5 -34t28.5 -42q21 34 56.5 55t88.5 21q77 0 118.5 -42zM224 548q-21 21 -21 51q0 29 21 50.5t51 21.5q29 0 50.5 -21.5
t21.5 -50.5q0 -30 -21.5 -51t-50.5 -21q-30 0 -51 21z" />
    <glyph glyph-name="uni1E47" unicode="&#x1e47;" horiz-adv-x="556" 
d="M454.5 440q41.5 -42 41.5 -120v-320h-130v308q0 34 -18.5 54t-49.5 20q-66 0 -95 -78v-304h-130v325q0 27 -10.5 44t-37.5 37l87 76q32 -16 50.5 -34t28.5 -42q21 34 56.5 55t88.5 21q77 0 118.5 -42zM234 -173q-21 21 -21 51q0 29 21 50.5t51 21.5q29 0 50.5 -21.5
t21.5 -50.5q0 -30 -21.5 -51t-50.5 -21q-30 0 -51 21z" />
    <glyph glyph-name="eng" unicode="&#x14b;" horiz-adv-x="556" 
d="M454.5 440q41.5 -42 41.5 -120v-349q0 -77 -22 -121.5t-71 -64.5t-134 -20h-52v100h52q54 0 75.5 23.5t21.5 82.5v337q0 34 -18.5 54t-49.5 20q-66 0 -95 -78v-304h-130v325q0 27 -10.5 44t-37.5 37l87 76q32 -16 50.5 -34t28.5 -42q21 34 56.5 55t88.5 21
q77 0 118.5 -42z" />
    <glyph glyph-name="uni1E49" unicode="&#x1e49;" horiz-adv-x="556" 
d="M454.5 440q41.5 -42 41.5 -120v-320h-130v308q0 34 -18.5 54t-49.5 20q-66 0 -95 -78v-304h-130v325q0 27 -10.5 44t-37.5 37l87 76q32 -16 50.5 -34t28.5 -42q21 34 56.5 55t88.5 21q77 0 118.5 -42zM124 -72h322v-90h-322v90z" />
    <glyph glyph-name="ntilde" unicode="&#xf1;" horiz-adv-x="556" 
d="M454.5 440q41.5 -42 41.5 -120v-320h-130v308q0 34 -18.5 54t-49.5 20q-66 0 -95 -78v-304h-130v325q0 27 -10.5 44t-37.5 37l87 76q32 -16 50.5 -34t28.5 -42q21 34 56.5 55t88.5 21q77 0 118.5 -42zM133.5 638q29.5 41 85.5 41q20 0 37 -6t38 -17q3 -1 18.5 -8.5
t28.5 -7.5q19 0 23 48h84q-5 -60 -33 -102t-74 -42q-20 0 -37 6t-38 17q-3 1 -18.5 8.5t-28.5 7.5t-21 -11.5t-12 -36.5h-84q2 62 31.5 103z" />
    <glyph glyph-name="o" unicode="o" horiz-adv-x="522" 
d="M101 36q-56 48 -56 137v124q0 89 56 137t160 48t160 -48t56 -137v-124q0 -89 -56 -137t-160 -48t-160 48zM324.5 110q22.5 22 22.5 63v124q0 41 -22.5 63t-63.5 22t-63.5 -22t-22.5 -63v-124q0 -41 22.5 -63t63.5 -22t63.5 22z" />
    <glyph glyph-name="oacute" unicode="&#xf3;" horiz-adv-x="522" 
d="M101 36q-56 48 -56 137v124q0 89 56 137t160 48t160 -48t56 -137v-124q0 -89 -56 -137t-160 -48t-160 48zM324.5 110q22.5 22 22.5 63v124q0 41 -22.5 63t-63.5 22t-63.5 -22t-22.5 -63v-124q0 -41 22.5 -63t63.5 -22t63.5 22zM280 692h136l-111 -157h-105z" />
    <glyph glyph-name="obreve" unicode="&#x14f;" horiz-adv-x="522" 
d="M101 36q-56 48 -56 137v124q0 89 56 137t160 48t160 -48t56 -137v-124q0 -89 -56 -137t-160 -48t-160 48zM324.5 110q22.5 22 22.5 63v124q0 41 -22.5 63t-63.5 22t-63.5 -22t-22.5 -63v-124q0 -41 22.5 -63t63.5 -22t63.5 22zM139 570.5q-45 45.5 -45 121.5h93
q3 -36 22 -56.5t52 -20.5t52.5 21t21.5 56h93q0 -76 -45.5 -121.5t-121.5 -45.5q-77 0 -122 45.5z" />
    <glyph glyph-name="uni01D2" unicode="&#x1d2;" horiz-adv-x="522" 
d="M101 36q-56 48 -56 137v124q0 89 56 137t160 48t160 -48t56 -137v-124q0 -89 -56 -137t-160 -48t-160 48zM324.5 110q22.5 22 22.5 63v124q0 41 -22.5 63t-63.5 22t-63.5 -22t-22.5 -63v-124q0 -41 22.5 -63t63.5 -22t63.5 22zM144.5 625q-36.5 45 -62.5 69h114
q40 -35 64 -74q24 39 64 74h114q-26 -24 -62.5 -69t-60.5 -90h-110q-24 45 -60.5 90z" />
    <glyph glyph-name="ocircumflex" unicode="&#xf4;" horiz-adv-x="522" 
d="M101 36q-56 48 -56 137v124q0 89 56 137t160 48t160 -48t56 -137v-124q0 -89 -56 -137t-160 -48t-160 48zM324.5 110q22.5 22 22.5 63v124q0 41 -22.5 63t-63.5 22t-63.5 -22t-22.5 -63v-124q0 -41 22.5 -63t63.5 -22t63.5 22zM144.5 604q36.5 45 60.5 90h110
q24 -45 60.5 -90t62.5 -69h-114q-40 35 -64 74q-24 -39 -64 -74h-114q26 24 62.5 69z" />
    <glyph glyph-name="uni1ED1" unicode="&#x1ed1;" horiz-adv-x="522" 
d="M101 36q-56 48 -56 137v124q0 89 56 137t160 48t160 -48t56 -137v-124q0 -89 -56 -137t-160 -48t-160 48zM324.5 110q22.5 22 22.5 63v124q0 41 -22.5 63t-63.5 22t-63.5 -22t-22.5 -63v-124q0 -41 22.5 -63t63.5 -22t63.5 22zM440 766h126l-94 -126h-95zM144.5 604
q36.5 45 60.5 90h110q24 -45 60.5 -90t62.5 -69h-114q-40 35 -64 74q-24 -39 -64 -74h-114q26 24 62.5 69z" />
    <glyph glyph-name="uni1ED9" unicode="&#x1ed9;" horiz-adv-x="522" 
d="M101 36q-56 48 -56 137v124q0 89 56 137t160 48t160 -48t56 -137v-124q0 -89 -56 -137t-160 -48t-160 48zM324.5 110q22.5 22 22.5 63v124q0 41 -22.5 63t-63.5 22t-63.5 -22t-22.5 -63v-124q0 -41 22.5 -63t63.5 -22t63.5 22zM210 -173q-21 21 -21 51q0 29 21 50.5
t51 21.5q29 0 50.5 -21.5t21.5 -50.5q0 -30 -21.5 -51t-50.5 -21q-30 0 -51 21zM144.5 604q36.5 45 60.5 90h110q24 -45 60.5 -90t62.5 -69h-114q-40 35 -64 74q-24 -39 -64 -74h-114q26 24 62.5 69z" />
    <glyph glyph-name="uni1ED3" unicode="&#x1ed3;" horiz-adv-x="522" 
d="M101 36q-56 48 -56 137v124q0 89 56 137t160 48t160 -48t56 -137v-124q0 -89 -56 -137t-160 -48t-160 48zM324.5 110q22.5 22 22.5 63v124q0 41 -22.5 63t-63.5 22t-63.5 -22t-22.5 -63v-124q0 -41 22.5 -63t63.5 -22t63.5 22zM322 766h126l63 -126h-95zM144.5 604
q36.5 45 60.5 90h110q24 -45 60.5 -90t62.5 -69h-114q-40 35 -64 74q-24 -39 -64 -74h-114q26 24 62.5 69z" />
    <glyph glyph-name="uni1ED5" unicode="&#x1ed5;" horiz-adv-x="522" 
d="M101 36q-56 48 -56 137v124q0 89 56 137t160 48t160 -48t56 -137v-124q0 -89 -56 -137t-160 -48t-160 48zM324.5 110q22.5 22 22.5 63v124q0 41 -22.5 63t-63.5 22t-63.5 -22t-22.5 -63v-124q0 -41 22.5 -63t63.5 -22t63.5 22zM528.5 689q-18.5 -18 -52.5 -27v-31h-76v66
q73 6 73 33q0 15 -9 21t-30 6t-50 -11l-19 56q35 17 82 17q48 0 74 -20t26 -60q0 -32 -18.5 -50zM375.5 604q36.5 -45 62.5 -69h-114q-40 35 -64 74q-24 -39 -64 -74h-114q26 24 62.5 69t60.5 90h110q24 -45 60.5 -90z" />
    <glyph glyph-name="uni1ED7" unicode="&#x1ed7;" horiz-adv-x="522" 
d="M101 36q-56 48 -56 137v124q0 89 56 137t160 48t160 -48t56 -137v-124q0 -89 -56 -137t-160 -48t-160 48zM324.5 110q22.5 22 22.5 63v124q0 41 -22.5 63t-63.5 22t-63.5 -22t-22.5 -63v-124q0 -41 22.5 -63t63.5 -22t63.5 22zM129.5 813q29.5 35 80.5 35q18 0 33.5 -5
t34.5 -14q28 -14 43 -14q9 0 17 10.5t10 30.5h76q-5 -50 -33 -85.5t-70 -35.5q-18 0 -33.5 5t-34.5 14q-28 14 -43 14q-12 0 -22 -10t-14 -31h-76q2 51 31.5 86zM144.5 604q36.5 45 60.5 90h110q24 -45 60.5 -90t62.5 -69h-114q-40 35 -64 74q-24 -39 -64 -74h-114
q26 24 62.5 69z" />
    <glyph glyph-name="odieresis" unicode="&#xf6;" horiz-adv-x="522" 
d="M101 36q-56 48 -56 137v124q0 89 56 137t160 48t160 -48t56 -137v-124q0 -89 -56 -137t-160 -48t-160 48zM324.5 110q22.5 22 22.5 63v124q0 41 -22.5 63t-63.5 22t-63.5 -22t-22.5 -63v-124q0 -41 22.5 -63t63.5 -22t63.5 22zM127 546q-19 19 -19 45t19 44.5t45 18.5
q25 0 44 -18.5t19 -44.5t-18.5 -45t-44.5 -19t-45 19zM305.5 546q-18.5 19 -18.5 45t18.5 44.5t45.5 18.5q26 0 45 -19t19 -44q0 -26 -19 -45t-45 -19q-27 0 -45.5 19z" />
    <glyph glyph-name="uni1ECD" unicode="&#x1ecd;" horiz-adv-x="522" 
d="M101 36q-56 48 -56 137v124q0 89 56 137t160 48t160 -48t56 -137v-124q0 -89 -56 -137t-160 -48t-160 48zM324.5 110q22.5 22 22.5 63v124q0 41 -22.5 63t-63.5 22t-63.5 -22t-22.5 -63v-124q0 -41 22.5 -63t63.5 -22t63.5 22zM210 -173q-21 21 -21 51q0 29 21 50.5
t51 21.5q29 0 50.5 -21.5t21.5 -50.5q0 -30 -21.5 -51t-50.5 -21q-30 0 -51 21z" />
    <glyph glyph-name="ograve" unicode="&#xf2;" horiz-adv-x="522" 
d="M101 36q-56 48 -56 137v124q0 89 56 137t160 48t160 -48t56 -137v-124q0 -89 -56 -137t-160 -48t-160 48zM324.5 110q22.5 22 22.5 63v124q0 41 -22.5 63t-63.5 22t-63.5 -22t-22.5 -63v-124q0 -41 22.5 -63t63.5 -22t63.5 22zM100 692h136l80 -157h-105z" />
    <glyph glyph-name="uni1ECF" unicode="&#x1ecf;" horiz-adv-x="522" 
d="M101 36q-56 48 -56 137v124q0 89 56 137t160 48t160 -48t56 -137v-124q0 -89 -56 -137t-160 -48t-160 48zM324.5 110q22.5 22 22.5 63v124q0 41 -22.5 63t-63.5 22t-63.5 -22t-22.5 -63v-124q0 -41 22.5 -63t63.5 -22t63.5 22zM301 572v-37h-93v81q48 4 69 13.5t21 27.5
q0 17 -11.5 24.5t-35.5 7.5q-29 0 -62 -14l-22 69q43 21 99 21q63 0 97 -24.5t34 -73.5q0 -72 -96 -95z" />
    <glyph glyph-name="ohorn" unicode="&#x1a1;" horiz-adv-x="567" 
d="M581 387.5q-33 -49.5 -106 -62.5q2 -18 2 -28v-124q0 -89 -56 -137t-160 -48t-160 48t-56 137v124q0 89 56 137t160 48q71 0 120.5 -22.5t73.5 -66.5q27 13 36.5 46.5t10.5 93.5h116q-4 -96 -37 -145.5zM347 297q0 41 -22.5 63t-63.5 22t-63.5 -22t-22.5 -63v-124
q0 -41 22.5 -63t63.5 -22t63.5 22t22.5 63v124z" />
    <glyph glyph-name="uni1EDB" unicode="&#x1edb;" horiz-adv-x="567" 
d="M581 387.5q-33 -49.5 -106 -62.5q2 -18 2 -28v-124q0 -89 -56 -137t-160 -48t-160 48t-56 137v124q0 89 56 137t160 48q71 0 120.5 -22.5t73.5 -66.5q27 13 36.5 46.5t10.5 93.5h116q-4 -96 -37 -145.5zM347 297q0 41 -22.5 63t-63.5 22t-63.5 -22t-22.5 -63v-124
q0 -41 22.5 -63t63.5 -22t63.5 22t22.5 63v124zM280 692h136l-111 -157h-105z" />
    <glyph glyph-name="uni1EE3" unicode="&#x1ee3;" horiz-adv-x="567" 
d="M581 387.5q-33 -49.5 -106 -62.5q2 -18 2 -28v-124q0 -89 -56 -137t-160 -48t-160 48t-56 137v124q0 89 56 137t160 48q71 0 120.5 -22.5t73.5 -66.5q27 13 36.5 46.5t10.5 93.5h116q-4 -96 -37 -145.5zM347 297q0 41 -22.5 63t-63.5 22t-63.5 -22t-22.5 -63v-124
q0 -41 22.5 -63t63.5 -22t63.5 22t22.5 63v124zM210 -173q-21 21 -21 51q0 29 21 50.5t51 21.5q29 0 50.5 -21.5t21.5 -50.5q0 -30 -21.5 -51t-50.5 -21q-30 0 -51 21z" />
    <glyph glyph-name="uni1EDD" unicode="&#x1edd;" horiz-adv-x="567" 
d="M581 387.5q-33 -49.5 -106 -62.5q2 -18 2 -28v-124q0 -89 -56 -137t-160 -48t-160 48t-56 137v124q0 89 56 137t160 48q71 0 120.5 -22.5t73.5 -66.5q27 13 36.5 46.5t10.5 93.5h116q-4 -96 -37 -145.5zM347 297q0 41 -22.5 63t-63.5 22t-63.5 -22t-22.5 -63v-124
q0 -41 22.5 -63t63.5 -22t63.5 22t22.5 63v124zM100 692h136l80 -157h-105z" />
    <glyph glyph-name="uni1EDF" unicode="&#x1edf;" horiz-adv-x="567" 
d="M581 387.5q-33 -49.5 -106 -62.5q2 -18 2 -28v-124q0 -89 -56 -137t-160 -48t-160 48t-56 137v124q0 89 56 137t160 48q71 0 120.5 -22.5t73.5 -66.5q27 13 36.5 46.5t10.5 93.5h116q-4 -96 -37 -145.5zM347 297q0 41 -22.5 63t-63.5 22t-63.5 -22t-22.5 -63v-124
q0 -41 22.5 -63t63.5 -22t63.5 22t22.5 63v124zM301 572v-37h-93v81q48 4 69 13.5t21 27.5q0 17 -11.5 24.5t-35.5 7.5q-29 0 -62 -14l-22 69q43 21 99 21q63 0 97 -24.5t34 -73.5q0 -72 -96 -95z" />
    <glyph glyph-name="uni1EE1" unicode="&#x1ee1;" horiz-adv-x="567" 
d="M581 387.5q-33 -49.5 -106 -62.5q2 -18 2 -28v-124q0 -89 -56 -137t-160 -48t-160 48t-56 137v124q0 89 56 137t160 48q71 0 120.5 -22.5t73.5 -66.5q27 13 36.5 46.5t10.5 93.5h116q-4 -96 -37 -145.5zM347 297q0 41 -22.5 63t-63.5 22t-63.5 -22t-22.5 -63v-124
q0 -41 22.5 -63t63.5 -22t63.5 22t22.5 63v124zM119.5 638q29.5 41 85.5 41q20 0 37 -6t38 -17q3 -1 18.5 -8.5t28.5 -7.5q19 0 23 48h84q-5 -60 -33 -102t-74 -42q-20 0 -37 6t-38 17q-3 1 -18.5 8.5t-28.5 7.5t-21 -11.5t-12 -36.5h-84q2 62 31.5 103z" />
    <glyph glyph-name="ohungarumlaut" unicode="&#x151;" horiz-adv-x="522" 
d="M101 36q-56 48 -56 137v124q0 89 56 137t160 48t160 -48t56 -137v-124q0 -89 -56 -137t-160 -48t-160 48zM324.5 110q22.5 22 22.5 63v124q0 41 -22.5 63t-63.5 22t-63.5 -22t-22.5 -63v-124q0 -41 22.5 -63t63.5 -22t63.5 22zM186 692h116l-81 -157h-95zM356 692h116
l-81 -157h-95z" />
    <glyph glyph-name="omacron" unicode="&#x14d;" horiz-adv-x="522" 
d="M101 36q-56 48 -56 137v124q0 89 56 137t160 48t160 -48t56 -137v-124q0 -89 -56 -137t-160 -48t-160 48zM324.5 110q22.5 22 22.5 63v124q0 41 -22.5 63t-63.5 22t-63.5 -22t-22.5 -63v-124q0 -41 22.5 -63t63.5 -22t63.5 22zM100 637h322v-90h-322v90z" />
    <glyph glyph-name="oslash" unicode="&#xf8;" horiz-adv-x="522" 
d="M477 297v-124q0 -89 -56 -137t-160 -48q-52 0 -93 12l-31 -60h-64l43 84q-35 23 -53 61t-18 88v124q0 89 56 137t160 48q50 0 84 -10l30 58h64l-41 -80q79 -46 79 -153zM178 145l119 232q-18 5 -36 5q-41 0 -63.5 -22t-22.5 -63v-124q0 -14 3 -28zM347 297q0 23 -7 40
l-123 -241q19 -8 44 -8q41 0 63.5 22t22.5 63v124z" />
    <glyph glyph-name="oslashacute" unicode="&#x1ff;" horiz-adv-x="522" 
d="M477 297v-124q0 -89 -56 -137t-160 -48q-52 0 -93 12l-31 -60h-64l43 84q-35 23 -53 61t-18 88v124q0 89 56 137t160 48q50 0 84 -10l30 58h64l-41 -80q79 -46 79 -153zM178 145l119 232q-18 5 -36 5q-41 0 -63.5 -22t-22.5 -63v-124q0 -14 3 -28zM347 297q0 23 -7 40
l-123 -241q19 -8 44 -8q41 0 63.5 22t22.5 63v124zM280 692h136l-111 -157h-105z" />
    <glyph glyph-name="otilde" unicode="&#xf5;" horiz-adv-x="522" 
d="M101 36q-56 48 -56 137v124q0 89 56 137t160 48t160 -48t56 -137v-124q0 -89 -56 -137t-160 -48t-160 48zM324.5 110q22.5 22 22.5 63v124q0 41 -22.5 63t-63.5 22t-63.5 -22t-22.5 -63v-124q0 -41 22.5 -63t63.5 -22t63.5 22zM119.5 638q29.5 41 85.5 41q20 0 37 -6
t38 -17q3 -1 18.5 -8.5t28.5 -7.5q19 0 23 48h84q-5 -60 -33 -102t-74 -42q-20 0 -37 6t-38 17q-3 1 -18.5 8.5t-28.5 7.5t-21 -11.5t-12 -36.5h-84q2 62 31.5 103z" />
    <glyph glyph-name="oe" unicode="&#x153;" horiz-adv-x="795" 
d="M101 36q-56 48 -56 137v124q0 89 56 137t160 48q97 0 151 -54q55 52 142 52q99 0 155 -47.5t56 -138.5q0 -43 -7.5 -67t-29 -35t-64.5 -11h-187v-9q0 -43 21.5 -63.5t65.5 -20.5q37 0 59 9.5t49 33.5l79 -72q-58 -71 -187 -71q-105 0 -155 51q-56 -51 -148 -51
q-104 0 -160 48zM324.5 110q22.5 22 22.5 63v124q0 41 -22.5 63t-63.5 22t-63.5 -22t-22.5 -63v-124q0 -41 22.5 -63t63.5 -22t63.5 22zM589 270q27 0 36.5 7t9.5 27q0 37 -21 56.5t-60 19.5q-36 0 -56.5 -21t-20.5 -55v-34h112z" />
    <glyph glyph-name="p" unicode="p" horiz-adv-x="593" 
d="M460.5 450.5q46.5 -31.5 69.5 -84t23 -115.5v-32q0 -63 -23 -115.5t-69.5 -84t-112.5 -31.5q-57 0 -89.5 15.5t-55.5 45.5v-268h-130v544q0 27 -10.5 44t-37.5 37l87 76q33 -17 52.5 -36t28.5 -45q51 81 155 81q66 0 112.5 -31.5zM423 251q0 54 -29.5 92.5t-83.5 38.5
q-84 0 -107 -82v-130q23 -82 107 -82q55 0 84 38t29 93v32z" />
    <glyph glyph-name="thorn" unicode="&#xfe;" horiz-adv-x="593" 
d="M73 593q0 27 -10.5 44t-37.5 37l87 76q51 -26 71 -59.5t20 -93.5v-182q53 67 145 67q66 0 112.5 -31.5t69.5 -84t23 -115.5v-32q0 -63 -23 -115.5t-69.5 -84t-112.5 -31.5q-57 0 -89.5 15.5t-55.5 45.5v-268h-130v812zM394 126q29 38 29 93v32q0 54 -29.5 92.5
t-83.5 38.5q-84 0 -107 -82v-130q23 -82 107 -82q55 0 84 38z" />
    <glyph glyph-name="q" unicode="q" horiz-adv-x="572" 
d="M390 49q-52 -61 -145 -61q-94 0 -149.5 62.5t-55.5 168.5v32q0 63 23 115.5t69.5 84t112.5 31.5q94 0 145 -58v48h130v-688h-130v265zM390 170v130q-23 82 -107 82q-55 0 -84 -38t-29 -93v-32q0 -55 29 -93t84 -38q84 0 107 82z" />
    <glyph glyph-name="r" unicode="r" horiz-adv-x="417" 
d="M417 454l-32 -108q-21 14 -40 20t-47 6q-66 0 -95 -88v-284h-130v325q0 27 -10.5 44t-37.5 37l87 76q34 -18 54 -38t29 -48q20 39 53 62.5t81 23.5q52 0 88 -28z" />
    <glyph glyph-name="racute" unicode="&#x155;" horiz-adv-x="417" 
d="M417 454l-32 -108q-21 14 -40 20t-47 6q-66 0 -95 -88v-284h-130v325q0 27 -10.5 44t-37.5 37l87 76q34 -18 54 -38t29 -48q20 39 53 62.5t81 23.5q52 0 88 -28zM229 692h136l-111 -157h-105z" />
    <glyph glyph-name="rcaron" unicode="&#x159;" horiz-adv-x="417" 
d="M417 454l-32 -108q-21 14 -40 20t-47 6q-66 0 -95 -88v-284h-130v325q0 27 -10.5 44t-37.5 37l87 76q34 -18 54 -38t29 -48q20 39 53 62.5t81 23.5q52 0 88 -28zM93.5 625q-36.5 45 -62.5 69h114q40 -35 64 -74q24 39 64 74h114q-26 -24 -62.5 -69t-60.5 -90h-110
q-24 45 -60.5 90z" />
    <glyph glyph-name="uni0157" unicode="&#x157;" horiz-adv-x="417" 
d="M417 454l-32 -108q-21 14 -40 20t-47 6q-66 0 -95 -88v-284h-130v325q0 27 -10.5 44t-37.5 37l87 76q34 -18 54 -38t29 -48q20 39 53 62.5t81 23.5q52 0 88 -28zM195.5 -76.5q20.5 -24.5 20.5 -69.5q0 -55 -26 -98.5t-77 -84.5l-39 37q30 23 46.5 45t22.5 47
q-13 -6 -31 -6q-26 0 -41 17.5t-15 48.5q0 33 23.5 60.5t58.5 27.5q37 0 57.5 -24.5z" />
    <glyph glyph-name="uni1E5B" unicode="&#x1e5b;" horiz-adv-x="417" 
d="M417 454l-32 -108q-21 14 -40 20t-47 6q-66 0 -95 -88v-284h-130v325q0 27 -10.5 44t-37.5 37l87 76q34 -18 54 -38t29 -48q20 39 53 62.5t81 23.5q52 0 88 -28zM87 -173q-21 21 -21 51q0 29 21 50.5t51 21.5q29 0 50.5 -21.5t21.5 -50.5q0 -30 -21.5 -51t-50.5 -21
q-30 0 -51 21z" />
    <glyph glyph-name="uni1E5D" unicode="&#x1e5d;" horiz-adv-x="417" 
d="M417 454l-32 -108q-21 14 -40 20t-47 6q-66 0 -95 -88v-284h-130v325q0 27 -10.5 44t-37.5 37l87 76q34 -18 54 -38t29 -48q20 39 53 62.5t81 23.5q52 0 88 -28zM87 -173q-21 21 -21 51q0 29 21 50.5t51 21.5q29 0 50.5 -21.5t21.5 -50.5q0 -30 -21.5 -51t-50.5 -21
q-30 0 -51 21zM49 637h322v-90h-322v90z" />
    <glyph glyph-name="uni1E5F" unicode="&#x1e5f;" horiz-adv-x="417" 
d="M417 454l-32 -108q-21 14 -40 20t-47 6q-66 0 -95 -88v-284h-130v325q0 27 -10.5 44t-37.5 37l87 76q34 -18 54 -38t29 -48q20 39 53 62.5t81 23.5q52 0 88 -28zM-23 -72h322v-90h-322v90z" />
    <glyph glyph-name="s" unicode="s" horiz-adv-x="456" 
d="M128 -1.5q-35 10.5 -56 28.5t-44 49l81 69q26 -32 48.5 -44.5t61.5 -12.5q43 0 62.5 10.5t19.5 33.5q0 22 -24.5 34t-95.5 24q-140 27 -140 152q0 64 51 102t136 38q71 0 112.5 -20.5t67.5 -59.5l-80 -68q-26 26 -47 37t-53 11q-64 0 -64 -45q0 -21 21.5 -32t54.5 -17
q62 -14 98.5 -28.5t61 -45.5t24.5 -85q0 -72 -51 -106.5t-154 -34.5q-56 0 -91 10.5z" />
    <glyph glyph-name="sacute" unicode="&#x15b;" horiz-adv-x="456" 
d="M128 -1.5q-35 10.5 -56 28.5t-44 49l81 69q26 -32 48.5 -44.5t61.5 -12.5q43 0 62.5 10.5t19.5 33.5q0 22 -24.5 34t-95.5 24q-140 27 -140 152q0 64 51 102t136 38q71 0 112.5 -20.5t67.5 -59.5l-80 -68q-26 26 -47 37t-53 11q-64 0 -64 -45q0 -21 21.5 -32t54.5 -17
q62 -14 98.5 -28.5t61 -45.5t24.5 -85q0 -72 -51 -106.5t-154 -34.5q-56 0 -91 10.5zM245 692h136l-111 -157h-105z" />
    <glyph glyph-name="scaron" unicode="&#x161;" horiz-adv-x="456" 
d="M128 -1.5q-35 10.5 -56 28.5t-44 49l81 69q26 -32 48.5 -44.5t61.5 -12.5q43 0 62.5 10.5t19.5 33.5q0 22 -24.5 34t-95.5 24q-140 27 -140 152q0 64 51 102t136 38q71 0 112.5 -20.5t67.5 -59.5l-80 -68q-26 26 -47 37t-53 11q-64 0 -64 -45q0 -21 21.5 -32t54.5 -17
q62 -14 98.5 -28.5t61 -45.5t24.5 -85q0 -72 -51 -106.5t-154 -34.5q-56 0 -91 10.5zM109.5 625q-36.5 45 -62.5 69h114q40 -35 64 -74q24 39 64 74h114q-26 -24 -62.5 -69t-60.5 -90h-110q-24 45 -60.5 90z" />
    <glyph glyph-name="scedilla" unicode="&#x15f;" horiz-adv-x="456" 
d="M278 -9l-9 -26q88 -11 88 -96q0 -52 -36.5 -77.5t-104.5 -25.5q-62 0 -109 25l22 70q38 -19 72 -19q57 0 57 27q0 16 -12 25t-47 9q-8 0 -34 -2l21 88q-63 4 -95.5 24.5t-62.5 62.5l81 69q26 -32 48.5 -44.5t61.5 -12.5q43 0 62.5 10.5t19.5 33.5q0 22 -24.5 34t-95.5 24
q-140 27 -140 152q0 64 51 102t136 38q71 0 112.5 -20.5t67.5 -59.5l-80 -68q-26 26 -47 37t-53 11q-64 0 -64 -45q0 -21 21.5 -32t54.5 -17q62 -14 98.5 -28.5t61 -45.5t24.5 -85q0 -120 -146 -138z" />
    <glyph glyph-name="scircumflex" unicode="&#x15d;" horiz-adv-x="456" 
d="M128 -1.5q-35 10.5 -56 28.5t-44 49l81 69q26 -32 48.5 -44.5t61.5 -12.5q43 0 62.5 10.5t19.5 33.5q0 22 -24.5 34t-95.5 24q-140 27 -140 152q0 64 51 102t136 38q71 0 112.5 -20.5t67.5 -59.5l-80 -68q-26 26 -47 37t-53 11q-64 0 -64 -45q0 -21 21.5 -32t54.5 -17
q62 -14 98.5 -28.5t61 -45.5t24.5 -85q0 -72 -51 -106.5t-154 -34.5q-56 0 -91 10.5zM109.5 604q36.5 45 60.5 90h110q24 -45 60.5 -90t62.5 -69h-114q-40 35 -64 74q-24 -39 -64 -74h-114q26 24 62.5 69z" />
    <glyph glyph-name="uni0219" unicode="&#x219;" horiz-adv-x="456" 
d="M128 -1.5q-35 10.5 -56 28.5t-44 49l81 69q26 -32 48.5 -44.5t61.5 -12.5q43 0 62.5 10.5t19.5 33.5q0 22 -24.5 34t-95.5 24q-140 27 -140 152q0 64 51 102t136 38q71 0 112.5 -20.5t67.5 -59.5l-80 -68q-26 26 -47 37t-53 11q-64 0 -64 -45q0 -21 21.5 -32t54.5 -17
q62 -14 98.5 -28.5t61 -45.5t24.5 -85q0 -72 -51 -106.5t-154 -34.5q-56 0 -91 10.5zM288.5 -76.5q20.5 -24.5 20.5 -69.5q0 -55 -26 -98.5t-77 -84.5l-39 37q30 23 46.5 45t22.5 47q-13 -6 -31 -6q-26 0 -41 17.5t-15 48.5q0 33 23.5 60.5t58.5 27.5q37 0 57.5 -24.5z" />
    <glyph glyph-name="uni1E61" unicode="&#x1e61;" horiz-adv-x="456" 
d="M128 -1.5q-35 10.5 -56 28.5t-44 49l81 69q26 -32 48.5 -44.5t61.5 -12.5q43 0 62.5 10.5t19.5 33.5q0 22 -24.5 34t-95.5 24q-140 27 -140 152q0 64 51 102t136 38q71 0 112.5 -20.5t67.5 -59.5l-80 -68q-26 26 -47 37t-53 11q-64 0 -64 -45q0 -21 21.5 -32t54.5 -17
q62 -14 98.5 -28.5t61 -45.5t24.5 -85q0 -72 -51 -106.5t-154 -34.5q-56 0 -91 10.5zM175 548q-21 21 -21 51q0 29 21 50.5t51 21.5q29 0 50.5 -21.5t21.5 -50.5q0 -30 -21.5 -51t-50.5 -21q-30 0 -51 21z" />
    <glyph glyph-name="uni1E63" unicode="&#x1e63;" horiz-adv-x="456" 
d="M128 -1.5q-35 10.5 -56 28.5t-44 49l81 69q26 -32 48.5 -44.5t61.5 -12.5q43 0 62.5 10.5t19.5 33.5q0 22 -24.5 34t-95.5 24q-140 27 -140 152q0 64 51 102t136 38q71 0 112.5 -20.5t67.5 -59.5l-80 -68q-26 26 -47 37t-53 11q-64 0 -64 -45q0 -21 21.5 -32t54.5 -17
q62 -14 98.5 -28.5t61 -45.5t24.5 -85q0 -72 -51 -106.5t-154 -34.5q-56 0 -91 10.5zM180 -173q-21 21 -21 51q0 29 21 50.5t51 21.5q29 0 50.5 -21.5t21.5 -50.5q0 -30 -21.5 -51t-50.5 -21q-30 0 -51 21z" />
    <glyph glyph-name="germandbls" unicode="&#xdf;" horiz-adv-x="659" 
d="M588.5 325q25.5 -34 25.5 -81v-86q0 -87 -55 -128.5t-165 -41.5q-58 0 -105 21v109q44 -22 95 -22q43 0 71.5 19.5t28.5 52.5v76q0 40 -29 60t-81 20h-74v100h72q47 0 74 21.5t27 60.5q0 50 -33 78t-92 28q-68 0 -100.5 -38t-32.5 -118v-456h-130v456q0 131 64.5 193.5
t200.5 62.5q78 0 135 -23.5t87.5 -66.5t30.5 -98q0 -105 -89 -146q49 -19 74.5 -53z" />
    <glyph glyph-name="t" unicode="t" horiz-adv-x="364" 
d="M198 370v-194q0 -42 13 -59t44 -17h79v-100h-79q-70 0 -110.5 17t-58.5 55t-18 104v367q0 27 -10.5 44t-37.5 37l87 76q51 -26 71 -59.5t20 -93.5v-77h136v-100h-136z" />
    <glyph glyph-name="tbar" unicode="&#x167;" horiz-adv-x="373" 
d="M207 370v-71h83v-66h-83v-57q0 -42 13 -59t44 -17h79v-100h-79q-70 0 -110.5 17t-58.5 55t-18 104v57h-67v66h67v244q0 27 -10.5 44t-37.5 37l87 76q51 -26 71 -59.5t20 -93.5v-77h136v-100h-136z" />
    <glyph glyph-name="tcaron" unicode="&#x165;" horiz-adv-x="415" 
d="M198 370v-194q0 -42 13 -59t44 -17h79v-100h-79q-70 0 -110.5 17t-58.5 55t-18 104v367q0 27 -10.5 44t-37.5 37l87 76q51 -26 71 -59.5t20 -93.5v-77h136v-100h-136zM379.5 781.5q20.5 -24.5 20.5 -69.5q0 -55 -26 -98.5t-77 -84.5l-39 37q30 23 46.5 45t22.5 47
q-13 -6 -31 -6q-26 0 -41 17.5t-15 48.5q0 33 23.5 60.5t58.5 27.5q37 0 57.5 -24.5z" />
    <glyph glyph-name="uni0163" unicode="&#x163;" horiz-adv-x="364" 
d="M349 -131q0 -52 -36.5 -77.5t-104.5 -25.5q-62 0 -109 25l22 70q38 -19 72 -19q57 0 57 27q0 16 -12 25t-47 9q-8 0 -34 -2l25 105q-62 12 -88 51.5t-26 118.5v367q0 27 -10.5 44t-37.5 37l87 76q51 -26 71 -59.5t20 -93.5v-77h136v-100h-136v-194q0 -42 13 -59t44 -17
h79v-100h-62l-11 -35q88 -11 88 -96z" />
    <glyph glyph-name="uni021B" unicode="&#x21b;" horiz-adv-x="364" 
d="M198 370v-194q0 -42 13 -59t44 -17h79v-100h-79q-70 0 -110.5 17t-58.5 55t-18 104v367q0 27 -10.5 44t-37.5 37l87 76q51 -26 71 -59.5t20 -93.5v-77h136v-100h-136zM280.5 -76.5q20.5 -24.5 20.5 -69.5q0 -55 -26 -98.5t-77 -84.5l-39 37q30 23 46.5 45t22.5 47
q-13 -6 -31 -6q-26 0 -41 17.5t-15 48.5q0 33 23.5 60.5t58.5 27.5q37 0 57.5 -24.5z" />
    <glyph glyph-name="uni1E97" unicode="&#x1e97;" horiz-adv-x="364" 
d="M198 370v-194q0 -42 13 -59t44 -17h79v-100h-79q-70 0 -110.5 17t-58.5 55t-18 104v367q0 27 -10.5 44t-37.5 37l87 76q51 -26 71 -59.5t20 -93.5v-77h136v-100h-136zM-13 776q-19 19 -19 45t19 44.5t45 18.5q25 0 44 -18.5t19 -44.5t-18.5 -45t-44.5 -19t-45 19z
M165.5 776q-18.5 19 -18.5 45t18.5 44.5t45.5 18.5q26 0 45 -19t19 -44q0 -26 -19 -45t-45 -19q-27 0 -45.5 19z" />
    <glyph glyph-name="uni1E6D" unicode="&#x1e6d;" horiz-adv-x="364" 
d="M198 370v-194q0 -42 13 -59t44 -17h79v-100h-79q-70 0 -110.5 17t-58.5 55t-18 104v367q0 27 -10.5 44t-37.5 37l87 76q51 -26 71 -59.5t20 -93.5v-77h136v-100h-136zM172 -173q-21 21 -21 51q0 29 21 50.5t51 21.5q29 0 50.5 -21.5t21.5 -50.5q0 -30 -21.5 -51
t-50.5 -21q-30 0 -51 21z" />
    <glyph glyph-name="uni1E6F" unicode="&#x1e6f;" horiz-adv-x="364" 
d="M198 370v-194q0 -42 13 -59t44 -17h79v-100h-79q-70 0 -110.5 17t-58.5 55t-18 104v367q0 27 -10.5 44t-37.5 37l87 76q51 -26 71 -59.5t20 -93.5v-77h136v-100h-136zM62 -72h322v-90h-322v90z" />
    <glyph glyph-name="u" unicode="u" horiz-adv-x="561" 
d="M498.5 103q10.5 -17 37.5 -37l-87 -76q-33 17 -52 36t-29 45q-46 -83 -143 -83q-79 0 -122 42t-43 120v320h130v-308q0 -34 19.5 -54t53.5 -20q66 0 95 86v296h130v-323q0 -27 10.5 -44z" />
    <glyph glyph-name="uacute" unicode="&#xfa;" horiz-adv-x="561" 
d="M498.5 103q10.5 -17 37.5 -37l-87 -76q-33 17 -52 36t-29 45q-46 -83 -143 -83q-79 0 -122 42t-43 120v320h130v-308q0 -34 19.5 -54t53.5 -20q66 0 95 86v296h130v-323q0 -27 10.5 -44zM293 692h136l-111 -157h-105z" />
    <glyph glyph-name="ubreve" unicode="&#x16d;" horiz-adv-x="561" 
d="M498.5 103q10.5 -17 37.5 -37l-87 -76q-33 17 -52 36t-29 45q-46 -83 -143 -83q-79 0 -122 42t-43 120v320h130v-308q0 -34 19.5 -54t53.5 -20q66 0 95 86v296h130v-323q0 -27 10.5 -44zM152 570.5q-45 45.5 -45 121.5h93q3 -36 22 -56.5t52 -20.5t52.5 21t21.5 56h93
q0 -76 -45.5 -121.5t-121.5 -45.5q-77 0 -122 45.5z" />
    <glyph glyph-name="uni01D4" unicode="&#x1d4;" horiz-adv-x="561" 
d="M498.5 103q10.5 -17 37.5 -37l-87 -76q-33 17 -52 36t-29 45q-46 -83 -143 -83q-79 0 -122 42t-43 120v320h130v-308q0 -34 19.5 -54t53.5 -20q66 0 95 86v296h130v-323q0 -27 10.5 -44zM157.5 625q-36.5 45 -62.5 69h114q40 -35 64 -74q24 39 64 74h114
q-26 -24 -62.5 -69t-60.5 -90h-110q-24 45 -60.5 90z" />
    <glyph glyph-name="ucircumflex" unicode="&#xfb;" horiz-adv-x="561" 
d="M498.5 103q10.5 -17 37.5 -37l-87 -76q-33 17 -52 36t-29 45q-46 -83 -143 -83q-79 0 -122 42t-43 120v320h130v-308q0 -34 19.5 -54t53.5 -20q66 0 95 86v296h130v-323q0 -27 10.5 -44zM157.5 604q36.5 45 60.5 90h110q24 -45 60.5 -90t62.5 -69h-114q-40 35 -64 74
q-24 -39 -64 -74h-114q26 24 62.5 69z" />
    <glyph glyph-name="udieresis" unicode="&#xfc;" horiz-adv-x="561" 
d="M498.5 103q10.5 -17 37.5 -37l-87 -76q-33 17 -52 36t-29 45q-46 -83 -143 -83q-79 0 -122 42t-43 120v320h130v-308q0 -34 19.5 -54t53.5 -20q66 0 95 86v296h130v-323q0 -27 10.5 -44zM140 546q-19 19 -19 45t19 44.5t45 18.5q25 0 44 -18.5t19 -44.5t-18.5 -45
t-44.5 -19t-45 19zM318.5 546q-18.5 19 -18.5 45t18.5 44.5t45.5 18.5q26 0 45 -19t19 -44q0 -26 -19 -45t-45 -19q-27 0 -45.5 19z" />
    <glyph glyph-name="uni01D8" unicode="&#x1d8;" horiz-adv-x="561" 
d="M498.5 103q10.5 -17 37.5 -37l-87 -76q-33 17 -52 36t-29 45q-46 -83 -143 -83q-79 0 -122 42t-43 120v320h130v-308q0 -34 19.5 -54t53.5 -20q66 0 95 86v296h130v-323q0 -27 10.5 -44zM281 834h126l-94 -126h-95zM140 546q-19 19 -19 45t19 44.5t45 18.5t44.5 -18.5
t18.5 -44.5t-18.5 -45t-44.5 -19t-45 19zM318.5 546q-18.5 19 -18.5 45t18.5 44.5t45.5 18.5q26 0 45 -19t19 -44q0 -26 -19 -45t-45 -19q-27 0 -45.5 19z" />
    <glyph glyph-name="uni01DA" unicode="&#x1da;" horiz-adv-x="561" 
d="M498.5 103q10.5 -17 37.5 -37l-87 -76q-33 17 -52 36t-29 45q-46 -83 -143 -83q-79 0 -122 42t-43 120v320h130v-308q0 -34 19.5 -54t53.5 -20q66 0 95 86v296h130v-323q0 -27 10.5 -44zM165 777q-34 38 -59 57h108q39 -30 60 -62q21 32 60 62h108q-25 -19 -59 -57
t-57 -76h-104q-23 38 -57 76zM140 546q-19 19 -19 45t19 44.5t45 18.5t44.5 -18.5t18.5 -44.5t-18.5 -45t-44.5 -19t-45 19zM318.5 546q-18.5 19 -18.5 45t18.5 44.5t45.5 18.5q26 0 45 -19t19 -44q0 -26 -19 -45t-45 -19q-27 0 -45.5 19z" />
    <glyph glyph-name="uni01DC" unicode="&#x1dc;" horiz-adv-x="561" 
d="M498.5 103q10.5 -17 37.5 -37l-87 -76q-33 17 -52 36t-29 45q-46 -83 -143 -83q-79 0 -122 42t-43 120v320h130v-308q0 -34 19.5 -54t53.5 -20q66 0 95 86v296h130v-323q0 -27 10.5 -44zM132 834h126l63 -126h-95zM140 546q-19 19 -19 45t19 44.5t45 18.5t44.5 -18.5
t18.5 -44.5t-18.5 -45t-44.5 -19t-45 19zM318.5 546q-18.5 19 -18.5 45t18.5 44.5t45.5 18.5q26 0 45 -19t19 -44q0 -26 -19 -45t-45 -19q-27 0 -45.5 19z" />
    <glyph glyph-name="uni01D6" unicode="&#x1d6;" horiz-adv-x="561" 
d="M498.5 103q10.5 -17 37.5 -37l-87 -76q-33 17 -52 36t-29 45q-46 -83 -143 -83q-79 0 -122 42t-43 120v320h130v-308q0 -34 19.5 -54t53.5 -20q66 0 95 86v296h130v-323q0 -27 10.5 -44zM112 793h322v-90h-322v90zM140 546q-19 19 -19 45t19 44.5t45 18.5t44.5 -18.5
t18.5 -44.5t-18.5 -45t-44.5 -19t-45 19zM318.5 546q-18.5 19 -18.5 45t18.5 44.5t45.5 18.5q26 0 45 -19t19 -44q0 -26 -19 -45t-45 -19q-27 0 -45.5 19z" />
    <glyph glyph-name="uni1EE5" unicode="&#x1ee5;" horiz-adv-x="561" 
d="M498.5 103q10.5 -17 37.5 -37l-87 -76q-33 17 -52 36t-29 45q-46 -83 -143 -83q-79 0 -122 42t-43 120v320h130v-308q0 -34 19.5 -54t53.5 -20q66 0 95 86v296h130v-323q0 -27 10.5 -44zM203 -173q-21 21 -21 51q0 29 21 50.5t51 21.5q29 0 50.5 -21.5t21.5 -50.5
q0 -30 -21.5 -51t-50.5 -21q-30 0 -51 21z" />
    <glyph glyph-name="ugrave" unicode="&#xf9;" horiz-adv-x="561" 
d="M498.5 103q10.5 -17 37.5 -37l-87 -76q-33 17 -52 36t-29 45q-46 -83 -143 -83q-79 0 -122 42t-43 120v320h130v-308q0 -34 19.5 -54t53.5 -20q66 0 95 86v296h130v-323q0 -27 10.5 -44zM113 692h136l80 -157h-105z" />
    <glyph glyph-name="uni1EE7" unicode="&#x1ee7;" horiz-adv-x="561" 
d="M498.5 103q10.5 -17 37.5 -37l-87 -76q-33 17 -52 36t-29 45q-46 -83 -143 -83q-79 0 -122 42t-43 120v320h130v-308q0 -34 19.5 -54t53.5 -20q66 0 95 86v296h130v-323q0 -27 10.5 -44zM314 572v-37h-93v81q48 4 69 13.5t21 27.5q0 17 -11.5 24.5t-35.5 7.5
q-29 0 -62 -14l-22 69q43 21 99 21q63 0 97 -24.5t34 -73.5q0 -72 -96 -95z" />
    <glyph glyph-name="uhorn" unicode="&#x1b0;" horiz-adv-x="629" 
d="M623 376.5q-41 -49.5 -135 -55.5v-174q0 -27 10.5 -44t37.5 -37l-87 -76q-33 17 -52 36t-29 45q-46 -83 -143 -83q-79 0 -122 42t-43 120v320h130v-308q0 -34 19.5 -54t53.5 -20q66 0 95 86v296h130v-83q38 8 51 43t14 103h116q-5 -107 -46 -156.5z" />
    <glyph glyph-name="uni1EE9" unicode="&#x1ee9;" horiz-adv-x="629" 
d="M623 376.5q-41 -49.5 -135 -55.5v-174q0 -27 10.5 -44t37.5 -37l-87 -76q-33 17 -52 36t-29 45q-46 -83 -143 -83q-79 0 -122 42t-43 120v320h130v-308q0 -34 19.5 -54t53.5 -20q66 0 95 86v296h130v-83q38 8 51 43t14 103h116q-5 -107 -46 -156.5zM293 692h136
l-111 -157h-105z" />
    <glyph glyph-name="uni1EF1" unicode="&#x1ef1;" horiz-adv-x="629" 
d="M623 376.5q-41 -49.5 -135 -55.5v-174q0 -27 10.5 -44t37.5 -37l-87 -76q-33 17 -52 36t-29 45q-46 -83 -143 -83q-79 0 -122 42t-43 120v320h130v-308q0 -34 19.5 -54t53.5 -20q66 0 95 86v296h130v-83q38 8 51 43t14 103h116q-5 -107 -46 -156.5zM203 -173
q-21 21 -21 51q0 29 21 50.5t51 21.5q29 0 50.5 -21.5t21.5 -50.5q0 -30 -21.5 -51t-50.5 -21q-30 0 -51 21z" />
    <glyph glyph-name="uni1EEB" unicode="&#x1eeb;" horiz-adv-x="629" 
d="M623 376.5q-41 -49.5 -135 -55.5v-174q0 -27 10.5 -44t37.5 -37l-87 -76q-33 17 -52 36t-29 45q-46 -83 -143 -83q-79 0 -122 42t-43 120v320h130v-308q0 -34 19.5 -54t53.5 -20q66 0 95 86v296h130v-83q38 8 51 43t14 103h116q-5 -107 -46 -156.5zM113 692h136l80 -157
h-105z" />
    <glyph glyph-name="uni1EED" unicode="&#x1eed;" horiz-adv-x="629" 
d="M623 376.5q-41 -49.5 -135 -55.5v-174q0 -27 10.5 -44t37.5 -37l-87 -76q-33 17 -52 36t-29 45q-46 -83 -143 -83q-79 0 -122 42t-43 120v320h130v-308q0 -34 19.5 -54t53.5 -20q66 0 95 86v296h130v-83q38 8 51 43t14 103h116q-5 -107 -46 -156.5zM314 572v-37h-93v81
q48 4 69 13.5t21 27.5q0 17 -11.5 24.5t-35.5 7.5q-29 0 -62 -14l-22 69q43 21 99 21q63 0 97 -24.5t34 -73.5q0 -72 -96 -95z" />
    <glyph glyph-name="uni1EEF" unicode="&#x1eef;" horiz-adv-x="629" 
d="M623 376.5q-41 -49.5 -135 -55.5v-174q0 -27 10.5 -44t37.5 -37l-87 -76q-33 17 -52 36t-29 45q-46 -83 -143 -83q-79 0 -122 42t-43 120v320h130v-308q0 -34 19.5 -54t53.5 -20q66 0 95 86v296h130v-83q38 8 51 43t14 103h116q-5 -107 -46 -156.5zM132.5 638
q29.5 41 85.5 41q20 0 37 -6t38 -17q3 -1 18.5 -8.5t28.5 -7.5q19 0 23 48h84q-5 -60 -33 -102t-74 -42q-20 0 -37 6t-38 17q-3 1 -18.5 8.5t-28.5 7.5t-21 -11.5t-12 -36.5h-84q2 62 31.5 103z" />
    <glyph glyph-name="uhungarumlaut" unicode="&#x171;" horiz-adv-x="561" 
d="M498.5 103q10.5 -17 37.5 -37l-87 -76q-33 17 -52 36t-29 45q-46 -83 -143 -83q-79 0 -122 42t-43 120v320h130v-308q0 -34 19.5 -54t53.5 -20q66 0 95 86v296h130v-323q0 -27 10.5 -44zM199 692h116l-81 -157h-95zM369 692h116l-81 -157h-95z" />
    <glyph glyph-name="umacron" unicode="&#x16b;" horiz-adv-x="561" 
d="M498.5 103q10.5 -17 37.5 -37l-87 -76q-33 17 -52 36t-29 45q-46 -83 -143 -83q-79 0 -122 42t-43 120v320h130v-308q0 -34 19.5 -54t53.5 -20q66 0 95 86v296h130v-323q0 -27 10.5 -44zM113 637h322v-90h-322v90z" />
    <glyph glyph-name="uogonek" unicode="&#x173;" horiz-adv-x="561" 
d="M547 -208q-40 -26 -88 -26q-80 0 -114.5 34t-34.5 77q0 41 21 76.5t67 70.5q-19 19 -30 47q-46 -83 -143 -83q-79 0 -122 42t-43 120v320h130v-308q0 -34 19.5 -54t53.5 -20q66 0 95 86v296h130v-323q0 -27 10.5 -44t37.5 -37l-72 -63q-21 -25 -33 -52.5t-12 -53.5
q0 -24 14.5 -35.5t37.5 -11.5t54 13z" />
    <glyph glyph-name="uring" unicode="&#x16f;" horiz-adv-x="561" 
d="M498.5 103q10.5 -17 37.5 -37l-87 -76q-33 17 -52 36t-29 45q-46 -83 -143 -83q-79 0 -122 42t-43 120v320h130v-308q0 -34 19.5 -54t53.5 -20q66 0 95 86v296h130v-323q0 -27 10.5 -44zM191 550.5q-31 28.5 -31 75.5t31 75.5t83 28.5t83 -28.5t31 -75.5t-31 -75.5
t-83 -28.5t-83 28.5zM304.5 596q11.5 11 11.5 30t-11.5 30t-30.5 11t-30.5 -11t-11.5 -30t11.5 -30t30.5 -11t30.5 11z" />
    <glyph glyph-name="utilde" unicode="&#x169;" horiz-adv-x="561" 
d="M498.5 103q10.5 -17 37.5 -37l-87 -76q-33 17 -52 36t-29 45q-46 -83 -143 -83q-79 0 -122 42t-43 120v320h130v-308q0 -34 19.5 -54t53.5 -20q66 0 95 86v296h130v-323q0 -27 10.5 -44zM132.5 638q29.5 41 85.5 41q20 0 37 -6t38 -17q3 -1 18.5 -8.5t28.5 -7.5
q19 0 23 48h84q-5 -60 -33 -102t-74 -42q-20 0 -37 6t-38 17q-3 1 -18.5 8.5t-28.5 7.5t-21 -11.5t-12 -36.5h-84q2 62 31.5 103z" />
    <glyph glyph-name="v" unicode="v" horiz-adv-x="505" 
d="M171 12.5q-31 24.5 -48 80.5l-118 377h126l110 -365q3 -9 5.5 -13t7.5 -4q7 0 12 17l108 365h126l-116 -377q-17 -56 -47 -80.5t-83 -24.5q-52 0 -83 24.5z" />
    <glyph glyph-name="w" unicode="w" horiz-adv-x="666" 
d="M15 470h118l74 -354q11 8 21 36l105 287l107 -287q9 -25 19 -34l74 352h118l-107 -470h-50q-39 0 -62 9.5t-38.5 32t-28.5 64.5l-32 92l-32 -92q-14 -44 -29 -66t-38 -31t-62 -9h-50z" />
    <glyph glyph-name="wacute" unicode="&#x1e83;" horiz-adv-x="666" 
d="M15 470h118l74 -354q11 8 21 36l105 287l107 -287q9 -25 19 -34l74 352h118l-107 -470h-50q-39 0 -62 9.5t-38.5 32t-28.5 64.5l-32 92l-32 -92q-14 -44 -29 -66t-38 -31t-62 -9h-50zM352 692h136l-111 -157h-105z" />
    <glyph glyph-name="wcircumflex" unicode="&#x175;" horiz-adv-x="666" 
d="M15 470h118l74 -354q11 8 21 36l105 287l107 -287q9 -25 19 -34l74 352h118l-107 -470h-50q-39 0 -62 9.5t-38.5 32t-28.5 64.5l-32 92l-32 -92q-14 -44 -29 -66t-38 -31t-62 -9h-50zM216.5 604q36.5 45 60.5 90h110q24 -45 60.5 -90t62.5 -69h-114q-40 35 -64 74
q-24 -39 -64 -74h-114q26 24 62.5 69z" />
    <glyph glyph-name="wdieresis" unicode="&#x1e85;" horiz-adv-x="666" 
d="M15 470h118l74 -354q11 8 21 36l105 287l107 -287q9 -25 19 -34l74 352h118l-107 -470h-50q-39 0 -62 9.5t-38.5 32t-28.5 64.5l-32 92l-32 -92q-14 -44 -29 -66t-38 -31t-62 -9h-50zM199 546q-19 19 -19 45t19 44.5t45 18.5q25 0 44 -18.5t19 -44.5t-18.5 -45t-44.5 -19
t-45 19zM377.5 546q-18.5 19 -18.5 45t18.5 44.5t45.5 18.5q26 0 45 -19t19 -44q0 -26 -19 -45t-45 -19q-27 0 -45.5 19z" />
    <glyph glyph-name="wgrave" unicode="&#x1e81;" horiz-adv-x="666" 
d="M15 470h118l74 -354q11 8 21 36l105 287l107 -287q9 -25 19 -34l74 352h118l-107 -470h-50q-39 0 -62 9.5t-38.5 32t-28.5 64.5l-32 92l-32 -92q-14 -44 -29 -66t-38 -31t-62 -9h-50zM172 692h136l80 -157h-105z" />
    <glyph glyph-name="x" unicode="x" horiz-adv-x="458" 
d="M322 0l-96 146l-90 -146h-131l154 247l-147 223h130l92 -139l86 139h130l-149 -241l152 -229h-131z" />
    <glyph glyph-name="y" unicode="y" horiz-adv-x="558" 
d="M506 470v-514q0 -98 -53.5 -142t-173.5 -44h-132v100h132q51 0 74 20t23 66v107q-46 -73 -143 -73q-79 0 -122 42t-43 120v173q0 27 -10.5 44t-37.5 37l87 76q51 -26 71 -59.5t20 -93.5v-165q0 -34 19.5 -54t53.5 -20q46 0 69.5 30t35.5 79v271h130z" />
    <glyph glyph-name="yacute" unicode="&#xfd;" horiz-adv-x="558" 
d="M506 470v-514q0 -98 -53.5 -142t-173.5 -44h-132v100h132q51 0 74 20t23 66v107q-46 -73 -143 -73q-79 0 -122 42t-43 120v173q0 27 -10.5 44t-37.5 37l87 76q51 -26 71 -59.5t20 -93.5v-165q0 -34 19.5 -54t53.5 -20q46 0 69.5 30t35.5 79v271h130zM299 692h136
l-111 -157h-105z" />
    <glyph glyph-name="ycircumflex" unicode="&#x177;" horiz-adv-x="558" 
d="M506 470v-514q0 -98 -53.5 -142t-173.5 -44h-132v100h132q51 0 74 20t23 66v107q-46 -73 -143 -73q-79 0 -122 42t-43 120v173q0 27 -10.5 44t-37.5 37l87 76q51 -26 71 -59.5t20 -93.5v-165q0 -34 19.5 -54t53.5 -20q46 0 69.5 30t35.5 79v271h130zM163.5 604
q36.5 45 60.5 90h110q24 -45 60.5 -90t62.5 -69h-114q-40 35 -64 74q-24 -39 -64 -74h-114q26 24 62.5 69z" />
    <glyph glyph-name="ydieresis" unicode="&#xff;" horiz-adv-x="558" 
d="M506 470v-514q0 -98 -53.5 -142t-173.5 -44h-132v100h132q51 0 74 20t23 66v107q-46 -73 -143 -73q-79 0 -122 42t-43 120v173q0 27 -10.5 44t-37.5 37l87 76q51 -26 71 -59.5t20 -93.5v-165q0 -34 19.5 -54t53.5 -20q46 0 69.5 30t35.5 79v271h130zM146 546
q-19 19 -19 45t19 44.5t45 18.5q25 0 44 -18.5t19 -44.5t-18.5 -45t-44.5 -19t-45 19zM324.5 546q-18.5 19 -18.5 45t18.5 44.5t45.5 18.5q26 0 45 -19t19 -44q0 -26 -19 -45t-45 -19q-27 0 -45.5 19z" />
    <glyph glyph-name="uni1E8F" unicode="&#x1e8f;" horiz-adv-x="558" 
d="M506 470v-514q0 -98 -53.5 -142t-173.5 -44h-132v100h132q51 0 74 20t23 66v107q-46 -73 -143 -73q-79 0 -122 42t-43 120v173q0 27 -10.5 44t-37.5 37l87 76q51 -26 71 -59.5t20 -93.5v-165q0 -34 19.5 -54t53.5 -20q46 0 69.5 30t35.5 79v271h130zM229 548
q-21 21 -21 51q0 29 21 50.5t51 21.5q29 0 50.5 -21.5t21.5 -50.5q0 -30 -21.5 -51t-50.5 -21q-30 0 -51 21z" />
    <glyph glyph-name="uni1EF5" unicode="&#x1ef5;" horiz-adv-x="558" 
d="M506 470v-514q0 -98 -53.5 -142t-173.5 -44h-132v100h132q51 0 74 20t23 66v107q-46 -73 -143 -73q-79 0 -122 42t-43 120v173q0 27 -10.5 44t-37.5 37l87 76q51 -26 71 -59.5t20 -93.5v-165q0 -34 19.5 -54t53.5 -20q46 0 69.5 30t35.5 79v271h130zM229 -408
q-21 21 -21 51q0 29 21 50.5t51 21.5q29 0 50.5 -21.5t21.5 -50.5q0 -30 -21.5 -51t-50.5 -21q-30 0 -51 21z" />
    <glyph glyph-name="ygrave" unicode="&#x1ef3;" horiz-adv-x="558" 
d="M506 470v-514q0 -98 -53.5 -142t-173.5 -44h-132v100h132q51 0 74 20t23 66v107q-46 -73 -143 -73q-79 0 -122 42t-43 120v173q0 27 -10.5 44t-37.5 37l87 76q51 -26 71 -59.5t20 -93.5v-165q0 -34 19.5 -54t53.5 -20q46 0 69.5 30t35.5 79v271h130zM119 692h136l80 -157
h-105z" />
    <glyph glyph-name="uni1EF7" unicode="&#x1ef7;" horiz-adv-x="558" 
d="M506 470v-514q0 -98 -53.5 -142t-173.5 -44h-132v100h132q51 0 74 20t23 66v107q-46 -73 -143 -73q-79 0 -122 42t-43 120v173q0 27 -10.5 44t-37.5 37l87 76q51 -26 71 -59.5t20 -93.5v-165q0 -34 19.5 -54t53.5 -20q46 0 69.5 30t35.5 79v271h130zM320 572v-37h-93v81
q48 4 69 13.5t21 27.5q0 17 -11.5 24.5t-35.5 7.5q-29 0 -62 -14l-22 69q43 21 99 21q63 0 97 -24.5t34 -73.5q0 -72 -96 -95z" />
    <glyph glyph-name="uni1EF9" unicode="&#x1ef9;" horiz-adv-x="558" 
d="M506 470v-514q0 -98 -53.5 -142t-173.5 -44h-132v100h132q51 0 74 20t23 66v107q-46 -73 -143 -73q-79 0 -122 42t-43 120v173q0 27 -10.5 44t-37.5 37l87 76q51 -26 71 -59.5t20 -93.5v-165q0 -34 19.5 -54t53.5 -20q46 0 69.5 30t35.5 79v271h130zM138.5 638
q29.5 41 85.5 41q20 0 37 -6t38 -17q3 -1 18.5 -8.5t28.5 -7.5q19 0 23 48h84q-5 -60 -33 -102t-74 -42q-20 0 -37 6t-38 17q-3 1 -18.5 8.5t-28.5 7.5t-21 -11.5t-12 -36.5h-84q2 62 31.5 103z" />
    <glyph glyph-name="z" unicode="z" horiz-adv-x="458" 
d="M438 100v-100h-302q-55 0 -83 20t-28 65v53l252 232h-242v100h390v-98l-282 -261q7 -11 27 -11h268z" />
    <glyph glyph-name="zacute" unicode="&#x17a;" horiz-adv-x="458" 
d="M438 100v-100h-302q-55 0 -83 20t-28 65v53l252 232h-242v100h390v-98l-282 -261q7 -11 27 -11h268zM252 692h136l-111 -157h-105z" />
    <glyph glyph-name="zcaron" unicode="&#x17e;" horiz-adv-x="458" 
d="M438 100v-100h-302q-55 0 -83 20t-28 65v53l252 232h-242v100h390v-98l-282 -261q7 -11 27 -11h268zM116.5 625q-36.5 45 -62.5 69h114q40 -35 64 -74q24 39 64 74h114q-26 -24 -62.5 -69t-60.5 -90h-110q-24 45 -60.5 90z" />
    <glyph glyph-name="zdotaccent" unicode="&#x17c;" horiz-adv-x="458" 
d="M438 100v-100h-302q-55 0 -83 20t-28 65v53l252 232h-242v100h390v-98l-282 -261q7 -11 27 -11h268zM182 548q-21 21 -21 51q0 29 21 50.5t51 21.5q29 0 50.5 -21.5t21.5 -50.5q0 -30 -21.5 -51t-50.5 -21q-30 0 -51 21z" />
    <glyph glyph-name="uni1E93" unicode="&#x1e93;" horiz-adv-x="458" 
d="M438 100v-100h-302q-55 0 -83 20t-28 65v53l252 232h-242v100h390v-98l-282 -261q7 -11 27 -11h268zM182 -173q-21 21 -21 51q0 29 21 50.5t51 21.5q29 0 50.5 -21.5t21.5 -50.5q0 -30 -21.5 -51t-50.5 -21q-30 0 -51 21z" />
    <glyph glyph-name="ordfeminine" unicode="&#xaa;" horiz-adv-x="421" 
d="M375.5 412q8.5 -13 28.5 -29l-67 -58q-44 21 -60 56q-16 -24 -45 -40t-72 -16q-55 0 -87.5 28t-32.5 80q0 46 24 71t55 34t71 13l37 4q22 2 30 7.5t10 17.5q-3 54 -65 54q-24 0 -42.5 -9t-38.5 -29l-69 47q22 29 56.5 45t93.5 16q165 0 165 -134v-125q0 -20 8.5 -33z
M246 416.5q21 19.5 21 47.5v32q-15 -5 -47 -8l-23 -2q-25 -2 -43 -11.5t-18 -35.5q0 -21 13 -31.5t36 -10.5q40 0 61 19.5z" />
    <glyph glyph-name="ordmasculine" unicode="&#xba;" horiz-adv-x="421" 
d="M88 361.5q-43 36.5 -43 105.5v95q0 69 43 105.5t123 36.5t122.5 -36.5t42.5 -105.5v-95q0 -69 -42.5 -105.5t-122.5 -36.5t-123 36.5zM259 418q17 17 17 49v95q0 32 -16.5 48.5t-48.5 16.5t-49 -17t-17 -48v-95q0 -31 17.5 -48.5t48.5 -17.5t48 17z" />
    <glyph glyph-name="uni207F" unicode="&#x207f;" horiz-adv-x="495" 
d="M399 669q36 -37 36 -105v-280h-112v270q0 29 -16 46.5t-43 17.5q-58 0 -84 -69v-265h-114v283q0 26 -9 40.5t-32 30.5l76 68q27 -14 43.5 -30t25.5 -38q42 68 126 68q67 0 103 -37z" />
    <glyph glyph-name="uni0394" unicode="&#x394;" horiz-adv-x="687" 
d="M670 0h-653l257 700h139zM193 111h301l-151 435z" />
    <glyph glyph-name="uni0394" unicode="&#x3b4;" horiz-adv-x="687" 
d="M670 0h-653l257 700h139zM193 111h301l-151 435z" />
    <glyph glyph-name="uni03A9" unicode="&#x3a9;" horiz-adv-x="737" 
d="M690 110v-110h-281v122q55 9 90.5 44t35.5 93v194q0 70 -44 109.5t-123 39.5t-123 -39.5t-44 -109.5v-194q0 -58 35.5 -93t90.5 -44v-122h-280v110h108q-95 61 -95 199v124q0 140 76.5 209.5t231.5 69.5t231.5 -69.5t76.5 -209.5v-124q0 -138 -95 -199h109z" />
    <glyph glyph-name="uni03A9" unicode="&#x3c9;" horiz-adv-x="737" 
d="M690 110v-110h-281v122q55 9 90.5 44t35.5 93v194q0 70 -44 109.5t-123 39.5t-123 -39.5t-44 -109.5v-194q0 -58 35.5 -93t90.5 -44v-122h-280v110h108q-95 61 -95 199v124q0 140 76.5 209.5t231.5 69.5t231.5 -69.5t76.5 -209.5v-124q0 -138 -95 -199h109z" />
    <glyph glyph-name="uni03BC" unicode="&#x3bc;" horiz-adv-x="573" 
d="M510.5 103q10.5 -17 37.5 -37l-87 -76q-32 16 -50.5 34t-28.5 43q-38 -79 -115 -79q-36 0 -65 21v-244h-130v705h130v-306q0 -34 19.5 -54t53.5 -20q65 0 95 85v297h130v-325q0 -27 10.5 -44z" />
    <glyph glyph-name="pi" unicode="&#x3c0;" horiz-adv-x="664" 
d="M512 364v-209q0 -38 16 -50.5t62 -12.5l-28 -104q-72 0 -110.5 14.5t-54 50t-15.5 102.5v209h-143v-364h-130v364h-90v106h598v-106h-105z" />
    <glyph glyph-name="uni0E01" unicode="&#xe01;" horiz-adv-x="632" 
d="M63 204q0 57 26 97t75 60v4l-119 103v100h263q128 0 191 -63t63 -193v-312h-126v312q0 79 -31.5 117.5t-96.5 38.5l-159 -2l107 -88v-57q-67 -30 -67 -117v-204h-126v204z" />
    <glyph glyph-name="uni0E02" unicode="&#xe02;" horiz-adv-x="522" 
d="M450 560v-406q0 -83 -47 -123.5t-143 -40.5t-143 40.5t-47 123.5q0 48 11 81t43 84l2 3h-2q-43 0 -71 30t-28 77q0 61 35.5 100t90.5 39q54 0 82 -30t28 -88q0 -39 -9 -70.5t-28 -72.5q-19 -40 -23.5 -69.5t-4.5 -83.5q0 -57 64 -57t64 57v406h126zM103 398.5
q8 -12.5 21 -12.5q21 0 35 22t14 55q0 17 -8 29t-21 12q-21 0 -35 -20.5t-14 -54.5q0 -18 8 -30.5z" />
    <glyph glyph-name="uni0E03" unicode="&#xe03;" horiz-adv-x="582" 
d="M510 560v-414q0 -75 -50 -115.5t-143 -40.5q-92 0 -141.5 40.5t-49.5 115.5q0 52 15.5 89t47.5 79q26 34 40 58t14 42v17q0 29 -26 52q1 -6 1 -16q0 -56 -32 -93t-80 -37q-43 0 -68.5 27.5t-25.5 74.5q0 54 36 91.5t90 37.5q37 0 67 -15.5t54 -48.5v56h40q24 -76 24 -129
q0 -47 -8 -78.5t-33 -73.5q-18 -31 -24 -58.5t-6 -74.5q0 -29 15 -42.5t50 -13.5q32 0 49.5 14.5t17.5 41.5v414h126zM141 417q14 21 14 51q0 17 -8 29t-21 12q-21 0 -35 -20t-14 -50q0 -18 8 -30.5t21 -12.5q21 0 35 21z" />
    <glyph glyph-name="uni0E04" unicode="&#xe04;" horiz-adv-x="664" 
d="M469.5 544q58.5 -24 90.5 -68.5t32 -103.5v-372h-124v372q0 44 -36 70t-100 26q-65 0 -101 -26t-36 -70v-96q30 28 67 44.5t78 16.5q46 0 73 -19.5t27 -55.5q0 -40 -36.5 -65t-90.5 -25q-30 0 -54.5 11.5t-35.5 32.5q-16 -19 -22 -47t-6 -74v-95h-123v372q0 59 32 103.5
t90.5 68.5t137.5 24t137.5 -24zM290 277q-23 -13 -23 -30q0 -12 12.5 -20t33.5 -8q34 0 54 13t20 30q0 12 -12.5 20t-34.5 8q-27 0 -50 -13z" />
    <glyph glyph-name="uni0E05" unicode="&#xe05;" horiz-adv-x="670" 
d="M546.5 511.5q51.5 -43.5 51.5 -104.5v-407h-124v388q0 35 -14 61t-38 39l-88 -77l-86 77q-26 -12 -39.5 -38t-13.5 -62v-112q30 28 67 44.5t78 16.5q46 0 73 -19.5t27 -55.5q0 -40 -36.5 -65t-90.5 -25q-30 0 -54.5 11.5t-35.5 32.5q-16 -19 -22 -47t-6 -74v-95h-123v407
q0 62 51.5 105.5t139.5 55.5l71 -72l73 72q88 -13 139.5 -56.5zM290 277q-23 -13 -23 -30q0 -12 12.5 -20t33.5 -8q34 0 54 13t20 30q0 12 -12.5 20t-34.5 8q-27 0 -50 -13z" />
    <glyph glyph-name="uni0E06" unicode="&#xe06;" horiz-adv-x="669" 
d="M597 560v-402q0 -85 -40 -126.5t-122 -41.5q-51 0 -96.5 21.5t-78.5 60.5q-11 -82 -96 -82q-37 0 -64.5 22.5t-42.5 58t-15 72.5q0 55 27 84.5t73 29.5q11 0 16 -1q5 22 19.5 39.5t43.5 45.5q42 41 42 82v8q0 22 -15 44v-8q0 -56 -32 -93t-80 -37q-43 0 -68.5 27.5
t-25.5 74.5q0 54 36 91.5t90 37.5q37 0 67 -15.5t54 -48.5v56h40q24 -68 24 -116q0 -40 -9 -68t-32 -64q-20 -30 -25 -49.5t-5 -50.5v-16q0 -17 17 -42.5t45.5 -44.5t60.5 -19t49 17.5t17 50.5v402h126zM171 417q14 21 14 51q0 17 -8 29t-21 12q-21 0 -35 -20t-14 -50
q0 -18 8 -30.5t21 -12.5q21 0 35 21zM195 99q0 38 -15 66t-38 28q-30 0 -30 -50q0 -33 15 -61t37 -28q31 0 31 45z" />
    <glyph glyph-name="uni0E07" unicode="&#xe07;" horiz-adv-x="528" 
d="M426.5 539.5q29.5 -28.5 29.5 -79.5v-311q0 -75 -38 -112t-117 -37h-125q-35 118 -71 208t-85 167l98 55q46 -64 79.5 -143.5t70.5 -196.5h9q57 0 57 59v170q-12 -2 -18 -2q-44 0 -70.5 29t-26.5 78q0 64 35.5 104t91.5 40q51 0 80.5 -28.5zM297 393.5q8 -12.5 21 -12.5
q21 0 35 23.5t14 58.5q0 17 -8 29t-21 12q-21 0 -35 -23t-14 -57q0 -18 8 -30.5z" />
    <glyph glyph-name="uni0E08" unicode="&#xe08;" horiz-adv-x="569" 
d="M440.5 521.5q66.5 -46.5 66.5 -131.5v-241q0 -75 -38 -112t-117 -37h-137q-1 13 -1 38l-5 97q-4 -1 -14 -1q-50 0 -82 38.5t-32 97.5q0 46 25.5 73t68.5 27q49 0 82.5 -33t46.5 -95t18 -152h6q57 0 57 59v241q0 36 -36 57t-98 21t-104 -13.5t-75 -46.5l-65 78
q41 42 101 62t148 20q118 0 184.5 -46.5zM160 215q14 -22 35 -22q13 0 21 12.5t8 30.5q0 34 -14 54.5t-35 20.5q-13 0 -21 -12t-8 -29q0 -33 14 -55z" />
    <glyph glyph-name="uni0E09" unicode="&#xe09;" horiz-adv-x="659" 
d="M612.5 208.5q21.5 -36.5 21.5 -83.5q0 -58 -29 -96.5t-79 -38.5q-35 0 -61.5 21t-38.5 59q-28 -36 -61 -58t-76 -22q-73 0 -111 31.5t-42 96.5q-4 -1 -14 -1q-44 0 -70.5 29t-26.5 78q0 64 35.5 104t91.5 40q50 0 79 -28.5t29 -79.5v-109q0 -61 62 -61q35 0 63 26t40 57
q5 13 5 21v196q0 36 -36 57t-98 21t-104 -13.5t-75 -46.5l-65 78q41 42 101 62t148 20q119 0 186 -46.5t67 -131.5v-134q37 -11 58.5 -47.5zM159 204.5q14 23.5 14 58.5q0 17 -8 29t-21 12q-21 0 -35 -23t-14 -57q0 -18 8 -30.5t21 -12.5q21 0 35 23.5zM553.5 74
q10.5 20 10.5 51t-10.5 51t-27.5 20t-27 -20t-10 -51t10 -51t27 -20t27.5 20z" />
    <glyph glyph-name="uni0E0A" unicode="&#xe0a;" horiz-adv-x="542" 
d="M464 377.5q10 -25.5 10 -70.5v-153q0 -83 -48.5 -123.5t-147.5 -40.5t-147.5 40.5t-48.5 123.5q0 47 11 80t43 85l2 3h-2q-43 0 -71 30t-28 77q0 61 35.5 100t90.5 39q54 0 82 -30t28 -88q0 -39 -9 -70.5t-28 -72.5q-19 -40 -23.5 -69.5t-4.5 -83.5q0 -57 70 -57t70 57
v137q0 50 -3.5 66t-19.5 32l-16 17v62q25 19 35 33.5t12.5 32.5t2.5 56h126q0 -55 -17 -84t-65 -58l27 -24q24 -21 34 -46.5zM115 398.5q8 -12.5 21 -12.5q21 0 35 22t14 55q0 17 -8 29t-21 12q-21 0 -35 -20.5t-14 -54.5q0 -18 8 -30.5z" />
    <glyph glyph-name="uni0E0B" unicode="&#xe0b;" horiz-adv-x="586" 
d="M508 377.5q10 -25.5 10 -70.5v-161q0 -75 -51 -115.5t-146 -40.5q-94 0 -144.5 40.5t-50.5 115.5q0 52 15.5 89t47.5 79q26 34 40 58t14 42v17q0 29 -26 52q1 -6 1 -16q0 -56 -32 -93t-80 -37q-43 0 -68.5 27.5t-25.5 74.5q0 54 36 91.5t90 37.5q37 0 67 -15.5t54 -48.5
v56h40q24 -76 24 -129q0 -47 -8 -78.5t-33 -73.5q-18 -31 -24 -58.5t-6 -74.5q0 -29 16 -42.5t53 -13.5q34 0 52.5 14.5t18.5 41.5v145q0 50 -3.5 66t-19.5 32l-16 17v62q25 19 35 33.5t12.5 32.5t2.5 56h126q0 -55 -17 -84t-65 -58l27 -24q24 -21 34 -46.5zM141 417
q14 21 14 51q0 17 -8 29t-21 12q-21 0 -35 -20t-14 -50q0 -18 8 -30.5t21 -12.5q21 0 35 21z" />
    <glyph glyph-name="uni0E0C" unicode="&#xe0c;" horiz-adv-x="922" 
d="M850 560v-402q0 -85 -39 -126.5t-119 -41.5q-44 0 -79.5 16.5t-60.5 45.5q-21 -62 -95 -62q-53 0 -87.5 39t-34.5 98q0 55 27 84.5t73 29.5h4v71q0 79 -30.5 117.5t-92.5 38.5l-167 -2l105 -88v-57q-57 -24 -68 -81q5 1 15 1q44 0 70.5 -29t26.5 -78q0 -64 -35.5 -104
t-91.5 -40q-51 0 -80.5 28.5t-29.5 79.5v106q0 57 26 97t75 60v4l-117 103v100h271q126 0 187.5 -63t61.5 -193v-116q0 -17 13.5 -42.5t36 -44.5t47.5 -19q30 0 46 17.5t16 50.5v402h126zM220 164.5q-8 12.5 -21 12.5q-21 0 -35 -23.5t-14 -58.5q0 -17 8 -29t21 -12
q21 0 35 23t14 57q0 18 -8 30.5zM479.5 66q8.5 12 8.5 33q0 31 -15 54.5t-38 23.5q-14 0 -22 -13.5t-8 -36.5q0 -31 14.5 -52t37.5 -21q14 0 22.5 12z" />
    <glyph glyph-name="uni0E0D" unicode="&#xe0d;" horiz-adv-x="916" 
d="M846 561v-322q0 -121 -60 -180t-182 -59h-165v312q0 79 -31 117.5t-95 38.5l-164 -2l105 -88v-57q-57 -24 -68 -81q5 1 15 1q44 0 70.5 -29t26.5 -78q0 -64 -35.5 -104t-91.5 -40q-51 0 -80.5 28.5t-29.5 79.5v106q0 57 26 97t75 60v4l-117 103v100h268q128 0 190 -63
t62 -193v-212h39q61 0 88.5 32.5t27.5 106.5v322h126zM220 164.5q-8 12.5 -21 12.5q-21 0 -35 -23.5t-14 -58.5q0 -17 8 -29t21 -12q21 0 35 23t14 57q0 18 -8 30.5zM713 -120.5q16 32.5 20 78.5h110q-7 -95 -66.5 -142t-182.5 -47q-70 0 -112.5 25t-42.5 70q0 36 33.5 60
t84.5 24t84.5 -23.5t33.5 -60.5q0 -14 -6 -29q28 12 44 44.5zM597 -158q17 10 17 22t-17 22t-40 10t-40 -10t-17 -22t17 -22t40 -10t40 10z" />
    <glyph glyph-name="yoYingthai.less" horiz-adv-x="916" 
d="M846 561v-322q0 -121 -60 -180t-182 -59h-165v312q0 79 -31 117.5t-95 38.5l-164 -2l105 -88v-57q-57 -24 -68 -81q5 1 15 1q44 0 70.5 -29t26.5 -78q0 -64 -35.5 -104t-91.5 -40q-51 0 -80.5 28.5t-29.5 79.5v106q0 57 26 97t75 60v4l-117 103v100h268q128 0 190 -63
t62 -193v-212h39q61 0 88.5 32.5t27.5 106.5v322h126zM220 164.5q-8 12.5 -21 12.5q-21 0 -35 -23.5t-14 -58.5q0 -17 8 -29t21 -12q21 0 35 23t14 57q0 18 -8 30.5z" />
    <glyph glyph-name="uni0E0E" unicode="&#xe0e;" horiz-adv-x="667" 
d="M597 332v-602h-126q-51 55 -104 87q-27 -34 -64 -53t-80 -19q-54 0 -88 19.5t-34 62.5q0 40 33.5 64.5t88.5 24.5q59 0 114 -21q8 24 10 50h67q-3 -43 -18 -77q35 -21 75 -52v516q0 69 -37.5 102.5t-114.5 33.5l-166 -2l116 -96v-272q0 -51 -29.5 -79.5t-80.5 -28.5
q-56 0 -91.5 40t-35.5 104q0 49 26.5 78t70.5 29q6 0 18 -2v142l-99 87v100h271q278 0 278 -236zM172 66q8 12 8 29q0 35 -14 58.5t-35 23.5q-13 0 -21 -12.5t-8 -30.5q0 -34 14 -57t35 -23q13 0 21 12zM273 -190.5q23 13.5 39 36.5q-44 19 -89 19q-56 0 -56 -38
q0 -31 56 -31q27 0 50 13.5z" />
    <glyph glyph-name="doChadathai.short" horiz-adv-x="667" 
d="M597 332v-532h-126q-45 45 -101 76q-27 -36 -65 -56t-82 -20q-54 0 -88 19.5t-34 62.5q0 40 33.5 64.5t88.5 24.5q60 0 115 -19q7 24 9 48h67q-3 -42 -16 -73q30 -16 73 -46v451q0 69 -37.5 102.5t-114.5 33.5l-166 -2l116 -96v-259q0 -51 -29.5 -79.5t-80.5 -28.5
q-56 0 -91.5 40t-35.5 104q0 49 26.5 78t70.5 29q6 0 18 -2v129l-99 87v100h271q278 0 278 -236zM172 79q8 12 8 29q0 35 -14 58.5t-35 23.5q-13 0 -21 -12.5t-8 -30.5q0 -34 14 -57t35 -23q13 0 21 12zM314 -97q-49 17 -91 17q-56 0 -56 -38q0 -31 56 -31q54 0 91 52z" />
    <glyph glyph-name="uni0E0F" unicode="&#xe0f;" horiz-adv-x="667" 
d="M397 -180l-70 -91q-29 35 -61 66q-50 -50 -115 -50q-48 0 -76 23.5t-28 63.5q0 38 28 61t76 23q29 0 52 -8.5t48 -27.5q16 28 16 71h67q-2 -28 -11 -57t-24 -53q16 -16 26 -29l72 97l74 -99v522q0 69 -37.5 102.5t-114.5 33.5l-166 -2l116 -96v-272q0 -51 -29.5 -79.5
t-80.5 -28.5q-56 0 -91.5 40t-35.5 104q0 49 26.5 78t70.5 29q6 0 18 -2v142l-99 87v100h271q278 0 278 -236v-602h-130zM172 66q8 12 8 29q0 35 -14 58.5t-35 23.5q-13 0 -21 -12.5t-8 -30.5q0 -34 14 -57t35 -23q13 0 21 12zM220 -167q-17 16 -32.5 24t-36.5 8
q-22 0 -33 -9t-11 -24t11 -24t33 -9q40 0 69 34z" />
    <glyph glyph-name="toPatakthai.short" horiz-adv-x="667" 
d="M597 332v-542h-130l-70 90l-70 -91q-29 35 -61 66q-50 -50 -115 -50q-48 0 -76 23.5t-28 63.5q0 38 28 61t76 23q29 0 52 -8.5t48 -27.5q9 15 14 42h65q-8 -47 -31 -81q16 -16 26 -29l72 97l74 -99v462q0 69 -37.5 102.5t-114.5 33.5l-166 -2l116 -96v-259
q0 -51 -29.5 -79.5t-80.5 -28.5q-56 0 -91.5 40t-35.5 104q0 49 26.5 78t70.5 29q6 0 18 -2v129l-99 87v100h271q278 0 278 -236zM172 79q8 12 8 29q0 35 -14 58.5t-35 23.5q-13 0 -21 -12.5t-8 -30.5q0 -34 14 -57t35 -23q13 0 21 12zM220 -107q-17 16 -32.5 24t-36.5 8
q-22 0 -33 -9t-11 -24t11 -24t33 -9q40 0 69 34z" />
    <glyph glyph-name="uni0E10" unicode="&#xe10;" horiz-adv-x="574" 
d="M531 508l-29 -95q-38 24 -107 44.5t-136 20.5q-61 0 -88.5 -9t-27.5 -23q0 -11 24 -18t72 -16l30 -6q82 -16 129.5 -34.5t72 -49t24.5 -79.5v-94q0 -75 -38 -112t-117 -37h-137q-3 45 -6 80q-4 -1 -13 -1q-51 0 -81 34t-30 92q0 46 26 73t69 27q48 0 80.5 -31t43.5 -89
q11 -54 15 -95h9q57 0 57 59v81q0 36 -34.5 54.5t-113.5 35.5q-80 17 -123 32t-64 35t-21 52q0 34 27 63.5t81.5 47.5t133.5 18q145 0 272 -60zM151 157.5q13 -19.5 33 -19.5q13 0 21 12t8 29q0 30 -12.5 48.5t-32.5 18.5q-14 0 -22 -11.5t-8 -29.5q0 -28 13 -47.5z
M471 -43.5q29 -20.5 29 -54.5v-172h-93l-75 43l-60 -44q-20 14 -29 22l-30 22q-21 -20 -47.5 -31.5t-52.5 -11.5q-43 0 -66 19t-23 54q0 33 23.5 52.5t65.5 19.5t87 -25q6 18 6 52h60q-4 -52 -21 -82l31 -24l51 38l98 -50v59q-15 -3 -33 -3q-46 0 -73 18t-27 50t27 50.5
t73 18.5q50 0 79 -20.5zM357.5 -108.5q13.5 -6.5 34.5 -6.5q19 0 32.5 6.5t13.5 16.5t-13.5 17t-32.5 7q-21 0 -34.5 -7t-13.5 -17t13.5 -16.5zM174 -197q-26 28 -61 28q-18 0 -27.5 -7.5t-9.5 -20.5t9.5 -20.5t27.5 -7.5q35 0 61 28z" />
    <glyph glyph-name="thoThanthai.less" horiz-adv-x="574" 
d="M170.5 468.5q-27.5 -9.5 -27.5 -24.5q0 -16 126 -38q82 -14 130 -32t72 -49t24 -82v-94q0 -75 -38 -112t-117 -37h-137q-3 45 -6 80q-4 -1 -13 -1q-51 0 -81 34t-30 92q0 46 26 73t69 27q48 0 80.5 -31t43.5 -89q11 -54 15 -95h9q57 0 57 59v81q0 36 -34.5 54.5
t-113.5 35.5q-80 17 -123 31t-64 33.5t-21 49.5q0 35 27 66t81.5 49.5t133.5 18.5q145 0 272 -60l-29 -95q-38 24 -107 44.5t-136 20.5q-61 0 -88.5 -9.5zM151 157.5q13 -19.5 33 -19.5q13 0 21 12t8 29q0 30 -12.5 48.5t-32.5 18.5q-14 0 -22 -11.5t-8 -29.5
q0 -28 13 -47.5z" />
    <glyph glyph-name="uni0E11" unicode="&#xe11;" horiz-adv-x="703" 
d="M594.5 522.5q36.5 -45.5 36.5 -137.5v-385h-126v385q0 44 -13 63.5t-41 19.5q-47 0 -90.5 -50t-79.5 -129q-11 -25 -14.5 -49.5t-3.5 -59.5v-180h-126v180q0 42 16 77.5t43 77.5q19 31 26.5 46.5t7.5 30.5v18q0 22 -17 42v-5q0 -56 -32 -93t-80 -37q-42 0 -68 27.5
t-26 74.5q0 54 34 91.5t85 37.5q40 0 71 -17.5t57 -55.5v65h40q19 -57 22 -86q27 45 70.5 69.5t97.5 24.5q74 0 110.5 -45.5zM136 417q14 21 14 51q0 17 -8 29t-21 12q-21 0 -35 -20t-14 -50q0 -18 8 -30.5t21 -12.5q21 0 35 21z" />
    <glyph glyph-name="uni0E12" unicode="&#xe12;" horiz-adv-x="947" 
d="M875 560v-402q0 -85 -39 -126.5t-119 -41.5q-76 0 -126 47q-24 -47 -89 -47q-53 0 -87.5 38t-34.5 97q0 47 22.5 77t61.5 36v150q0 34 -12.5 60.5t-34.5 39.5l-88 -77l-86 77q-23 -13 -35 -38.5t-12 -61.5v-292q31 13 56.5 37.5t39.5 54.5q-35 1 -55 24t-20 59
q0 50 26.5 83t67.5 33t60.5 -25t19.5 -64q0 -66 -28 -126t-78 -105t-114 -67h-99v407q0 62 50.5 105.5t135.5 55.5l71 -72l73 72q85 -13 135.5 -56.5t50.5 -104.5v-211q0 -17 14 -42.5t36.5 -44.5t48.5 -19q30 0 46 17.5t16 50.5v402h126zM276 244.5q7 -10.5 18 -10.5
q19 0 31 20t12 51q0 15 -7 25.5t-18 10.5q-19 0 -31 -20t-12 -50q0 -16 7 -26.5zM524.5 66q8.5 12 8.5 33q0 31 -14.5 53.5t-36.5 22.5q-14 0 -23 -13.5t-9 -36.5q0 -30 14.5 -50.5t37.5 -20.5q14 0 22.5 12z" />
    <glyph glyph-name="uni0E13" unicode="&#xe13;" horiz-adv-x="938" 
d="M892 208q21 -36 21 -83q0 -58 -29 -96.5t-79 -38.5q-35 0 -61.5 21t-37.5 58q-60 -79 -138 -79q-76 0 -110 39t-34 122v161q0 156 -118 156l-157 -2l105 -88v-57q-57 -24 -68 -81q5 1 15 1q44 0 70.5 -29t26.5 -78q0 -64 -35.5 -104t-91.5 -40q-51 0 -80.5 28.5
t-29.5 79.5v106q0 57 26 97t75 60v4l-117 103v100h261q123 0 183.5 -63t60.5 -193v-161q0 -32 11 -46.5t40 -14.5q30 0 54.5 19t39 44t14.5 41v366h126v-305q36 -11 57 -47zM832.5 74q10.5 20 10.5 51t-10.5 51t-27.5 20t-27 -20t-10 -51t10 -51t27 -20t27.5 20zM220 164.5
q-8 12.5 -21 12.5q-21 0 -35 -23.5t-14 -58.5q0 -17 8 -29t21 -12q21 0 35 23t14 57q0 18 -8 30.5z" />
    <glyph glyph-name="uni0E14" unicode="&#xe14;" horiz-adv-x="654" 
d="M462 544q58 -24 89 -68.5t31 -103.5v-372h-124v372q0 44 -34.5 70t-96.5 26t-96.5 -26t-34.5 -70v-279q25 9 48 24q22 15 39 33q-30 8 -43.5 34.5t-13.5 60.5q0 30 13 61t37 51.5t55 20.5q45 0 67 -28t22 -70q0 -62 -28.5 -117t-79.5 -96q-27 -22 -72 -43t-69 -24h-99
v372q0 59 31 103.5t89 68.5t135 24t135 -24zM298 301q-14 -23 -14 -57q0 -18 8 -30.5t21 -12.5q21 0 35 23.5t14 58.5q0 17 -8 29t-21 12q-21 0 -35 -23z" />
    <glyph glyph-name="uni0E15" unicode="&#xe15;" horiz-adv-x="660" 
d="M537.5 511.5q50.5 -43.5 50.5 -104.5v-407h-124v388q0 34 -12.5 60.5t-34.5 39.5l-88 -77l-86 77q-23 -13 -35 -38.5t-12 -61.5v-294q53 17 87 56q-30 8 -43.5 34.5t-13.5 60.5q0 30 13 61t37 51.5t55 20.5q45 0 67 -28t22 -70q0 -66 -31.5 -123t-88 -98t-129.5 -59h-99
v407q0 62 50.5 105.5t135.5 55.5l71 -72l73 72q85 -13 135.5 -56.5zM298 301q-14 -23 -14 -57q0 -18 8 -30.5t21 -12.5q21 0 35 23.5t14 58.5q0 17 -8 29t-21 12q-21 0 -35 -23z" />
    <glyph glyph-name="uni0E16" unicode="&#xe16;" horiz-adv-x="640" 
d="M507 505q63 -63 63 -193v-312h-126v312q0 79 -31.5 117.5t-96.5 38.5l-167 -2l105 -88v-57q-57 -24 -68 -81q5 1 15 1q44 0 70.5 -29t26.5 -78q0 -64 -35.5 -104t-91.5 -40q-51 0 -80.5 28.5t-29.5 79.5v106q0 57 26 97t75 60v4l-117 103v100h271q128 0 191 -63z
M220 164.5q-8 12.5 -21 12.5q-21 0 -35 -23.5t-14 -58.5q0 -17 8 -29t21 -12q21 0 35 23t14 57q0 18 -8 30.5z" />
    <glyph glyph-name="uni0E17" unicode="&#xe17;" horiz-adv-x="694" 
d="M584.5 522.5q37.5 -45.5 37.5 -137.5v-385h-126v385q0 44 -13 63.5t-41 19.5q-43 0 -83.5 -54t-83.5 -167q-21 -54 -21 -111v-136h-126v318q-5 -1 -14 -1q-44 0 -70.5 29t-26.5 78q0 64 35.5 104t91.5 40q51 0 80.5 -28.5t29.5 -79.5v-87q39 103 90 149t126 46
q77 0 114.5 -45.5zM151 404.5q14 23.5 14 58.5q0 17 -8 29t-21 12q-21 0 -35 -23t-14 -57q0 -18 8 -30.5t21 -12.5q21 0 35 23.5z" />
    <glyph glyph-name="uni0E18" unicode="&#xe18;" horiz-adv-x="589" 
d="M140.5 25q-53.5 35 -53.5 107v145h126v-142q0 -45 91 -45t91 45v80q0 22 -13 33.5t-37.5 19.5t-89.5 24q-76 19 -118 37.5t-60.5 42.5t-18.5 60q0 65 69.5 100.5t187.5 35.5q52 0 112.5 -11t109.5 -29l-29 -89q-43 16 -96 25.5t-97 9.5q-59 0 -95 -9.5t-36 -24.5
q0 -18 24.5 -30.5t86.5 -27.5q88 -21 134 -38.5t69 -45t23 -73.5v-93q0 -72 -53.5 -107t-163.5 -35t-163.5 35z" />
    <glyph glyph-name="uni0E19" unicode="&#xe19;" horiz-adv-x="664" 
d="M618 208q21 -36 21 -83q0 -58 -29 -96.5t-79 -38.5q-35 0 -62 21.5t-38 59.5q-69 -81 -157 -81q-77 0 -115 39.5t-38 121.5v167q-5 -1 -14 -1q-44 0 -70.5 29t-26.5 78q0 64 35.5 104t91.5 40q51 0 80.5 -28.5t29.5 -79.5v-309q0 -61 60 -61q35 0 64.5 19t46.5 44t17 41
v366h126v-305q36 -11 57 -47zM144 404.5q14 23.5 14 58.5q0 17 -8 29t-21 12q-21 0 -35 -23t-14 -57q0 -18 8 -30.5t21 -12.5q21 0 35 23.5zM558.5 74q10.5 20 10.5 51t-10.5 51t-27.5 20t-27 -20t-10 -51t10 -51t27 -20t27.5 20z" />
    <glyph glyph-name="uni0E1A" unicode="&#xe1a;" horiz-adv-x="667" 
d="M595 560v-409q0 -82 -58.5 -121.5t-178.5 -39.5t-178.5 39.5t-58.5 121.5v167q-5 -1 -14 -1q-44 0 -70.5 29t-26.5 78q0 64 35.5 104t91.5 40q51 0 80.5 -28.5t29.5 -79.5v-306q0 -64 111 -64t111 64v406h126zM88 393.5q8 -12.5 21 -12.5q21 0 35 23.5t14 58.5
q0 17 -8 29t-21 12q-21 0 -35 -23t-14 -57q0 -18 8 -30.5z" />
    <glyph glyph-name="uni0E1B" unicode="&#xe1b;" horiz-adv-x="667" 
d="M595 815v-664q0 -82 -58.5 -121.5t-178.5 -39.5t-178.5 39.5t-58.5 121.5v167q-5 -1 -14 -1q-44 0 -70.5 29t-26.5 78q0 64 35.5 104t91.5 40q51 0 80.5 -28.5t29.5 -79.5v-306q0 -64 111 -64t111 64v661h126zM88 393.5q8 -12.5 21 -12.5q21 0 35 23.5t14 58.5
q0 17 -8 29t-21 12q-21 0 -35 -23t-14 -57q0 -18 8 -30.5z" />
    <glyph glyph-name="uni0E1C" unicode="&#xe1c;" horiz-adv-x="694" 
d="M619 560v-560h-118q-48 31 -85.5 71t-69.5 95q-32 -55 -69.5 -95t-85.5 -71h-119v388q0 87 35 133.5t100 46.5q44 0 69.5 -30.5t25.5 -74.5q0 -58 -29 -97.5t-77 -47.5v-200q46 35 85 90.5t65 117.5q26 -62 64.5 -117t84.5 -90v441h124zM168 481q-14 -23 -14 -57
q0 -18 8 -30.5t21 -12.5q21 0 35 23.5t14 58.5q0 17 -8 29t-21 12q-21 0 -35 -23z" />
    <glyph glyph-name="uni0E1D" unicode="&#xe1d;" horiz-adv-x="694" 
d="M619 815v-815h-118q-48 31 -85.5 71t-69.5 95q-32 -55 -69.5 -95t-85.5 -71h-119v388q0 87 35 133.5t100 46.5q44 0 69.5 -30.5t25.5 -74.5q0 -58 -29 -97.5t-77 -47.5v-200q46 35 85 90.5t65 117.5q26 -62 64.5 -117t84.5 -90v696h124zM168 481q-14 -23 -14 -57
q0 -18 8 -30.5t21 -12.5q21 0 35 23.5t14 58.5q0 17 -8 29t-21 12q-21 0 -35 -23z" />
    <glyph glyph-name="uni0E1E" unicode="&#xe1e;" horiz-adv-x="719" 
d="M644 560v-560h-140q-68 72 -129 240q-58 -170 -123 -240h-137v318q-46 7 -74 44.5t-28 91.5q0 52 29 83t78 31q53 0 87 -43.5t34 -110.5v-266q36 58 72 147t63 174q26 -80 65 -173t77 -153v417h126zM97 404q14 -23 35 -23q13 0 21 12t8 29q0 35 -14 58.5t-35 23.5
q-13 0 -21 -12.5t-8 -30.5q0 -34 14 -57z" />
    <glyph glyph-name="uni0E1F" unicode="&#xe1f;" horiz-adv-x="719" 
d="M644 815v-815h-140q-68 72 -129 240q-58 -170 -123 -240h-137v318q-46 7 -74 44.5t-28 91.5q0 52 29 83t78 31q53 0 87 -43.5t34 -110.5v-266q36 58 72 147t63 174q26 -80 65 -173t77 -153v672h126zM97 404q14 -23 35 -23q13 0 21 12t8 29q0 35 -14 58.5t-35 23.5
q-13 0 -21 -12.5t-8 -30.5q0 -34 14 -57z" />
    <glyph glyph-name="uni0E20" unicode="&#xe20;" horiz-adv-x="667" 
d="M597 332v-332h-126v332q0 69 -37.5 102.5t-114.5 33.5l-166 -2l116 -96v-272q0 -51 -29.5 -79.5t-80.5 -28.5q-56 0 -91.5 40t-35.5 104q0 49 26.5 78t70.5 29q6 0 18 -2v142l-99 87v100h271q278 0 278 -236zM172 66q8 12 8 29q0 35 -14 58.5t-35 23.5q-13 0 -21 -12.5
t-8 -30.5q0 -34 14 -57t35 -23q13 0 21 12z" />
    <glyph glyph-name="uni0E21" unicode="&#xe21;" horiz-adv-x="667" 
d="M595 560v-402q0 -85 -40 -126.5t-122 -41.5q-51 0 -96 22t-76 60v-1q-13 -81 -97 -81q-37 0 -64.5 22.5t-42.5 58t-15 72.5q0 55 27 84.5t73 29.5q9 0 14 -1v58l-11 -1q-44 0 -70.5 29.5t-26.5 79.5q0 64 36 105t91 41q50 0 78.5 -29.5t28.5 -80.5v-262q0 -17 16.5 -42.5
t44.5 -44.5t60 -19t49 17.5t17 50.5v402h126zM182 402.5q14 23.5 14 58.5q0 17 -8 29t-21 12q-21 0 -35 -23t-14 -57q0 -18 8 -30.5t21 -12.5q21 0 35 23.5zM195 99q0 38 -15 66t-38 28q-30 0 -30 -50q0 -33 15 -61t37 -28q31 0 31 45z" />
    <glyph glyph-name="uni0E22" unicode="&#xe22;" horiz-adv-x="662" 
d="M587 560v-560h-361q-72 0 -116.5 40.5t-44.5 111.5q0 40 21.5 70.5t54.5 47.5q-39 18 -65 51.5t-26 85.5q0 73 49.5 117t145.5 44q46 0 84 -18t60 -48.5t22 -67.5q0 -39 -26 -62.5t-69 -23.5q-50 0 -86.5 27.5t-49.5 67.5q-6 -16 -6 -41q0 -34 26.5 -61t61.5 -27h130v-90
h-126q-35 0 -56 -17.5t-21 -44.5q0 -28 21 -45t56 -17h196v460h125zM245 498.5q-8 -7.5 -8 -20.5q0 -24 26 -48t53 -24q13 0 21.5 7.5t8.5 20.5q0 16 -12.5 32.5t-31.5 28t-37 11.5q-12 0 -20 -7.5z" />
    <glyph glyph-name="uni0E23" unicode="&#xe23;" horiz-adv-x="561" 
d="M175.5 462q-27.5 -12 -27.5 -30q0 -11 24.5 -20t69.5 -21l32 -9q76 -21 118.5 -38t68.5 -45.5t26 -73.5v-78q0 -68 -51 -112.5t-147 -44.5q-55 0 -98.5 18t-68.5 50.5t-25 72.5t26 63.5t69 23.5q37 0 70 -20.5t53.5 -51t20.5 -59.5v-7q25 18 25 77v48q0 23 -14.5 37
t-39.5 24t-77 25q-87 25 -127 40.5t-60.5 36t-20.5 53.5q0 40 26.5 73t81.5 53.5t134 20.5q145 0 272 -60l-29 -95q-38 22 -107 41.5t-136 19.5q-61 0 -88.5 -12zM263 66.5q8 7.5 8 20.5q0 24 -26 48t-53 24q-13 0 -21.5 -7.5t-8.5 -20.5q0 -16 12.5 -32.5t31.5 -28
t37 -11.5q12 0 20 7.5z" />
    <glyph glyph-name="uni0E24" unicode="&#xe24;" horiz-adv-x="640" 
d="M507 505q63 -63 63 -193v-562h-126v562q0 79 -31.5 117.5t-96.5 38.5l-167 -2l105 -88v-57q-57 -24 -68 -81q5 1 15 1q44 0 70.5 -29t26.5 -78q0 -64 -35.5 -104t-91.5 -40q-51 0 -80.5 28.5t-29.5 79.5v106q0 57 26 97t75 60v4l-117 103v100h271q128 0 191 -63z
M220 164.5q-8 12.5 -21 12.5q-21 0 -35 -23.5t-14 -58.5q0 -17 8 -29t21 -12q21 0 35 23t14 57q0 18 -8 30.5z" />
    <glyph glyph-name="uni0E24.short" horiz-adv-x="640" 
d="M507 505q63 -63 63 -193v-472h-126v472q0 79 -31.5 117.5t-96.5 38.5l-167 -2l105 -88v-57q-57 -24 -68 -81q5 1 15 1q44 0 70.5 -29t26.5 -78q0 -64 -35.5 -104t-91.5 -40q-51 0 -80.5 28.5t-29.5 79.5v106q0 57 26 97t75 60v4l-117 103v100h271q128 0 191 -63z
M220 164.5q-8 12.5 -21 12.5q-21 0 -35 -23.5t-14 -58.5q0 -17 8 -29t21 -12q21 0 35 23t14 57q0 18 -8 30.5z" />
    <glyph glyph-name="uni0E25" unicode="&#xe25;" horiz-adv-x="634" 
d="M493.5 521.5q68.5 -46.5 68.5 -131.5v-390h-122v264q-26 -12 -70 -16l-100 -11q-116 -13 -116 -100q0 -26 11 -41q7 43 45 68.5t90 25.5q49 0 77.5 -24t28.5 -63q0 -51 -47.5 -82t-124.5 -31q-91 0 -141 44t-50 119q0 76 52.5 120t147.5 56l101 12q40 5 58 9.5t27.5 14.5
t10.5 30q-3 34 -40.5 53.5t-105.5 19.5q-127 0 -184 -70l-70 73q79 97 260 97q125 0 193.5 -46.5zM247.5 117q-25.5 -17 -25.5 -38q0 -15 11 -22.5t30 -7.5q30 0 55.5 16t25.5 38q0 15 -11.5 23t-30.5 8q-29 0 -54.5 -17z" />
    <glyph glyph-name="uni0E26" unicode="&#xe26;" horiz-adv-x="667" 
d="M597 332v-581h-126v581q0 69 -37.5 102.5t-114.5 33.5l-166 -2l116 -96v-272q0 -51 -29.5 -79.5t-80.5 -28.5q-56 0 -91.5 40t-35.5 104q0 49 26.5 78t70.5 29q6 0 18 -2v142l-99 87v100h271q278 0 278 -236zM172 66q8 12 8 29q0 35 -14 58.5t-35 23.5q-13 0 -21 -12.5
t-8 -30.5q0 -34 14 -57t35 -23q13 0 21 12z" />
    <glyph glyph-name="uni0E26.short" horiz-adv-x="667" 
d="M597 332v-492h-126v492q0 69 -37.5 102.5t-114.5 33.5l-166 -2l116 -96v-272q0 -51 -29.5 -79.5t-80.5 -28.5q-56 0 -91.5 40t-35.5 104q0 49 26.5 78t70.5 29q6 0 18 -2v142l-99 87v100h271q278 0 278 -236zM172 66q8 12 8 29q0 35 -14 58.5t-35 23.5q-13 0 -21 -12.5
t-8 -30.5q0 -34 14 -57t35 -23q13 0 21 12z" />
    <glyph glyph-name="uni0E27" unicode="&#xe27;" horiz-adv-x="544" 
d="M420 520q62 -48 62 -136v-237q0 -70 -52.5 -113.5t-145.5 -43.5q-55 0 -98.5 18t-68.5 50.5t-25 72.5t26 63.5t69 23.5q36 0 69 -20.5t53 -51t20 -59.5v-9q27 18 27 79v227q0 40 -29.5 62t-82.5 22q-52 0 -86.5 -12.5t-72.5 -53.5l-78 74q44 48 99.5 70t137.5 22
q114 0 176 -48zM258 66.5q8 7.5 8 20.5q0 24 -26 48t-53 24q-13 0 -21.5 -7.5t-8.5 -20.5q0 -16 12.5 -32.5t31.5 -28t37 -11.5q12 0 20 7.5z" />
    <glyph glyph-name="uni0E28" unicode="&#xe28;" horiz-adv-x="664" 
d="M558 478q34 -45 34 -106v-372h-124v372q0 44 -36 70t-100 26q-65 0 -101 -26t-36 -70v-96q30 28 67 44.5t78 16.5q46 0 73 -19.5t27 -55.5q0 -40 -36.5 -65t-90.5 -25q-30 0 -54.5 11.5t-35.5 32.5q-16 -19 -22 -47t-6 -74v-95h-123v372q0 59 32 103.5t90.5 68.5
t137.5 24q93 0 155 -32q13 9 18 24t7 36h125q-7 -89 -79 -118zM290 277q-23 -13 -23 -30q0 -12 12.5 -20t33.5 -8q34 0 54 13t20 30q0 12 -12.5 20t-34.5 8q-27 0 -50 -13z" />
    <glyph glyph-name="uni0E29" unicode="&#xe29;" horiz-adv-x="698" 
d="M615 269v-118q0 -82 -61 -121.5t-186 -39.5t-186 39.5t-61 121.5v167q-5 -1 -14 -1q-44 0 -70.5 29t-26.5 78q0 64 35.5 104t91.5 40q51 0 80.5 -28.5t29.5 -79.5v-306q0 -64 121 -64t121 64v73q-40 -5 -80 -5q-63 0 -101.5 20.5t-38.5 58.5q0 32 28.5 53t72.5 21
t72.5 -21t28.5 -53q0 -19 -11 -33q20 2 29 4v288h126v-224q28 32 38 75h55q-23 -96 -93 -142zM88 393.5q8 -12.5 21 -12.5q21 0 35 23.5t14 58.5q0 17 -8 29t-21 12q-21 0 -35 -23t-14 -57q0 -18 8 -30.5zM408 277q15 10 15 24t-15 24t-38 10q-22 0 -37.5 -10t-15.5 -24
t15.5 -24t37.5 -10q23 0 38 10z" />
    <glyph glyph-name="uni0E2A" unicode="&#xe2a;" horiz-adv-x="634" 
d="M534 483q28 -39 28 -93v-390h-122v264q-26 -12 -70 -16l-100 -11q-116 -13 -116 -100q0 -26 11 -41q7 43 45 68.5t90 25.5q49 0 77.5 -24t28.5 -63q0 -51 -47.5 -82t-124.5 -31q-91 0 -141 44t-50 119q0 76 52.5 120t147.5 56l101 12q40 5 58 9.5t27.5 14.5t10.5 30
q-3 34 -40.5 53.5t-105.5 19.5q-127 0 -184 -70l-70 73q79 97 260 97q96 0 158 -27q17 17 19 55h125q-7 -82 -68 -113zM247.5 117q-25.5 -17 -25.5 -38q0 -15 11 -22.5t30 -7.5q30 0 55.5 16t25.5 38q0 15 -11.5 23t-30.5 8q-29 0 -54.5 -17z" />
    <glyph glyph-name="uni0E2B" unicode="&#xe2b;" horiz-adv-x="701" 
d="M628.5 410.5q-19.5 -23.5 -55.5 -34.5q49 -37 49 -106v-270h-126v250q0 34 -15.5 53.5t-43.5 19.5q-42 0 -81.5 -36t-79.5 -115q-14 -27 -18 -52.5t-4 -68.5v-51h-126v318q-5 -1 -14 -1q-44 0 -70.5 29t-26.5 78q0 64 35.5 104t91.5 40q51 0 80.5 -28.5t29.5 -79.5v-192
q23 43 58 76t77 49q-39 28 -39 73q0 47 40.5 74.5t108.5 27.5t108.5 -27.5t40.5 -74.5q0 -32 -19.5 -55.5zM151 404.5q14 23.5 14 58.5q0 17 -8 29t-21 12q-21 0 -35 -23t-14 -57q0 -18 8 -30.5t21 -12.5q21 0 35 23.5zM446 493.5q-20 -10.5 -20 -27.5t20 -27t53 -10t53 10
t20 27t-20 27.5t-53 10.5t-53 -10.5z" />
    <glyph glyph-name="uni0E2C" unicode="&#xe2c;" horiz-adv-x="728" 
d="M723 574q-2 -52 -20.5 -86t-58.5 -51v-437h-140q-69 49 -129 162q-57 -115 -123 -162h-137v318q-46 7 -74 44.5t-28 91.5q0 52 29 83t78 31q53 0 87 -43.5t34 -110.5v-284q36 41 72.5 104t61.5 120q28 -62 66.5 -128.5t76.5 -104.5v250h-8q-54 0 -89 26t-35 66t35 66
t89 26q38 0 68.5 -11.5t47.5 -32.5q10 17 12 63h85zM97 404q14 -23 35 -23q13 0 21 12t8 29q0 35 -14 58.5t-35 23.5q-13 0 -21 -12.5t-8 -30.5q0 -34 14 -57zM552.5 437.5q17.5 10.5 17.5 25.5t-17.5 25.5t-42.5 10.5t-42.5 -10.5t-17.5 -25.5t17.5 -25.5t42.5 -10.5
t42.5 10.5z" />
    <glyph glyph-name="loChulathai.short" horiz-adv-x="728" 
d="M723 574q-2 -52 -20.5 -86t-58.5 -51v-437h-140q-69 49 -129 162q-57 -115 -123 -162h-137v318q-46 7 -74 44.5t-28 91.5q0 52 29 83t78 31q53 0 87 -43.5t34 -110.5v-284q36 41 72.5 104t61.5 120q28 -62 66.5 -128.5t76.5 -104.5v250h-8q-54 0 -89 26t-35 66t35 66
t89 26q38 0 68.5 -11.5t47.5 -32.5q10 17 12 63h85zM97 404q14 -23 35 -23q13 0 21 12t8 29q0 35 -14 58.5t-35 23.5q-13 0 -21 -12.5t-8 -30.5q0 -34 14 -57zM552.5 437.5q17.5 10.5 17.5 25.5t-17.5 25.5t-42.5 10.5t-42.5 -10.5t-17.5 -25.5t17.5 -25.5t42.5 -10.5
t42.5 10.5z" />
    <glyph glyph-name="uni0E2D" unicode="&#xe2d;" horiz-adv-x="633" 
d="M499 521.5q72 -46.5 72 -131.5v-224q0 -87 -72.5 -131.5t-200.5 -44.5q-123 0 -185.5 49t-62.5 140q0 57 33.5 102.5t85 71.5t103.5 26q44 0 70.5 -21.5t26.5 -58.5q0 -47 -41.5 -77.5t-106.5 -30.5q-36 0 -58 19q-7 -14 -7 -31q0 -43 30 -66t112 -23q67 0 107 20.5
t40 55.5v224q0 36 -40.5 57t-110.5 21q-65 0 -110.5 -13.5t-78.5 -46.5l-65 78q42 42 104.5 62t154.5 20q128 0 200 -46.5zM214.5 310q-24.5 -15 -24.5 -38q0 -12 10 -19.5t27 -7.5q29 0 56.5 15.5t27.5 38.5q0 12 -10.5 19t-28.5 7q-33 0 -57.5 -15z" />
    <glyph glyph-name="uni0E2E" unicode="&#xe2e;" horiz-adv-x="624" 
d="M537 468q25 -34 25 -76v-226q0 -87 -72.5 -131.5t-200.5 -44.5q-122 0 -185 44t-63 125q0 53 33.5 96.5t85 67.5t103.5 24q44 0 70.5 -21t26.5 -57q0 -46 -41.5 -76t-106.5 -30q-39 0 -59 20q-6 -10 -6 -24q0 -34 30 -51.5t112 -17.5q65 0 106 21t41 55v226q0 10 -1 15
q-75 -27 -171 -27q-83 0 -153.5 21.5t-70.5 72.5q0 43 61 68.5t163 25.5q50 0 99.5 -9.5t89.5 -27.5q13 26 13 52h123q-3 -68 -52 -115zM386 472q-50 30 -132 30q-50 0 -81.5 -7.5t-31.5 -20.5t31.5 -20.5t81.5 -7.5q77 0 132 26zM205.5 280q-24.5 -15 -24.5 -38
q0 -12 10 -19.5t27 -7.5q29 0 56.5 15.5t27.5 38.5q0 12 -10.5 19t-28.5 7q-33 0 -57.5 -15z" />
    <glyph glyph-name="uni0E30" unicode="&#xe30;" horiz-adv-x="508" 
d="M82 359q-45 28 -45 77q0 41 35 67.5t89 26.5t89 -26.5t35 -67.5q0 -19 -7 -33q35 10 55 43t25 81h115q-8 -98 -73 -147t-200 -49q-73 0 -118 28zM118.5 463q-17.5 -11 -17.5 -27t17.5 -27t42.5 -11t42.5 11t17.5 27t-17.5 27t-42.5 11t-42.5 -11zM333 146q20 33 25 81
h115q-8 -98 -73 -147t-200 -49q-73 0 -118 28t-45 77q0 41 35 67.5t89 26.5t89 -26.5t35 -67.5q0 -19 -7 -33q35 10 55 43zM203.5 109q17.5 11 17.5 27t-17.5 27t-42.5 11t-42.5 -11t-17.5 -27t17.5 -27t42.5 -11t42.5 11z" />
    <glyph glyph-name="uni0E32" unicode="&#xe32;" horiz-adv-x="483" 
d="M295 384q0 40 -23 62t-65 22q-41 0 -67 -12.5t-62 -53.5l-78 74q43 49 89.5 70.5t117.5 21.5q103 0 158.5 -48t55.5 -136v-384h-126v384z" />
    <glyph glyph-name="uni0E33" unicode="&#xe33;" horiz-adv-x="483" 
d="M-219.5 669q-31.5 29 -31.5 77t31.5 77t83.5 29t83.5 -29t31.5 -77t-31.5 -77t-83.5 -29t-83.5 29zM-104 714.5q12 11.5 12 31.5t-12 31.5t-32 11.5t-32 -11.5t-12 -31.5t12 -31.5t32 -11.5t32 11.5zM295 384q0 40 -23 62t-65 22q-41 0 -67 -12.5t-62 -53.5l-78 74
q43 49 89.5 70.5t117.5 21.5q103 0 158.5 -48t55.5 -136v-384h-126v384z" />
    <glyph glyph-name="uni0E40" unicode="&#xe40;" horiz-adv-x="322" 
d="M282.5 212q26.5 -29 26.5 -78q0 -64 -35.5 -104t-91.5 -40q-51 0 -80.5 28.5t-29.5 79.5v462h126v-320q5 1 14 1q44 0 70.5 -29zM225 77q14 23 14 57q0 18 -8 30.5t-21 12.5q-21 0 -35 -23.5t-14 -58.5q0 -17 8 -29t21 -12q21 0 35 23z" />
    <glyph glyph-name="uni0E41" unicode="&#xe41;" horiz-adv-x="625" 
d="M282.5 212q26.5 -29 26.5 -78q0 -64 -35.5 -104t-91.5 -40q-51 0 -80.5 28.5t-29.5 79.5v462h126v-320q5 1 14 1q44 0 70.5 -29zM585.5 212q26.5 -29 26.5 -78q0 -64 -35.5 -104t-91.5 -40q-51 0 -80.5 28.5t-29.5 79.5v462h126v-320q5 1 14 1q44 0 70.5 -29zM225 77
q14 23 14 57q0 18 -8 30.5t-21 12.5q-21 0 -35 -23.5t-14 -58.5q0 -17 8 -29t21 -12q21 0 35 23zM528 77q14 23 14 57q0 18 -8 30.5t-21 12.5q-21 0 -35 -23.5t-14 -58.5q0 -17 8 -29t21 -12q21 0 35 23z" />
    <glyph glyph-name="uni0E42" unicode="&#xe42;" horiz-adv-x="385" 
d="M97 877.5q-39 -15.5 -39 -37.5q0 -9 8.5 -15t36.5 -20q44 -22 55 -28q40 -22 58.5 -43t24 -45.5t5.5 -67.5v-381q5 1 14 1q44 0 70.5 -29t26.5 -78q0 -64 -35.5 -104t-91.5 -40q-51 0 -80.5 28.5t-29.5 79.5v533q0 26 -12 41t-50 37q-45 27 -68.5 44.5t-36.5 38t-13 48.5
q0 45 34 79t92 52.5t127 18.5q60 0 114.5 -11.5t117.5 -37.5l-29 -98q-109 50 -203 50q-57 0 -96 -15.5zM279 164.5q-8 12.5 -21 12.5q-21 0 -35 -23.5t-14 -58.5q0 -17 8 -29t21 -12q21 0 35 23t14 57q0 18 -8 30.5z" />
    <glyph glyph-name="uni0E43" unicode="&#xe43;" horiz-adv-x="355" 
d="M309.5 212q26.5 -29 26.5 -78q0 -64 -35.5 -104t-91.5 -40q-51 0 -80.5 28.5t-29.5 79.5v432q0 38 2.5 59t13.5 43t36 50q50 56 67.5 82t17.5 52q0 39 -22 62t-59 23q-32 0 -50 -10q29 -32 29 -81q0 -48 -25 -79t-64 -31q-41 0 -67 30.5t-26 79.5q0 48 28 89.5t76 66.5
t105 25q89 0 141.5 -48.5t52.5 -127.5q0 -33 -9 -58.5t-26 -49t-53 -66.5q-28 -35 -35 -55.5t-7 -55.5v-290q5 1 14 1q44 0 70.5 -29zM64 773.5q8 14.5 8 36.5t-8 36.5t-19 14.5q-13 0 -21.5 -14.5t-8.5 -36.5t8.5 -36.5t21.5 -14.5q11 0 19 14.5zM252 77q14 23 14 57
q0 18 -8 30.5t-21 12.5q-21 0 -35 -23.5t-14 -58.5q0 -17 8 -29t21 -12q21 0 35 23z" />
    <glyph glyph-name="uni0E44" unicode="&#xe44;" horiz-adv-x="364" 
d="M324.5 212q26.5 -29 26.5 -78q0 -64 -35.5 -104t-91.5 -40q-51 0 -80.5 28.5t-29.5 79.5v742q0 28 -6.5 41.5t-25.5 13.5q-26 0 -51.5 -24t-47.5 -68q-26 40 -58 62.5t-75 29.5v100q93 -19 133 -81q22 36 58 58.5t79 22.5q58 0 89 -33.5t31 -96.5v-625q5 1 14 1
q44 0 70.5 -29zM267 77q14 23 14 57q0 18 -8 30.5t-21 12.5q-21 0 -35 -23.5t-14 -58.5q0 -17 8 -29t21 -12q21 0 35 23z" />
    <glyph glyph-name="uni0E45" unicode="&#xe45;" horiz-adv-x="491" 
d="M295 384q0 40 -23 62t-65 22q-41 0 -67 -12.5t-62 -53.5l-78 74q43 49 89.5 70.5t117.5 21.5q103 0 158.5 -48t55.5 -136v-634h-126v634z" />
    <glyph glyph-name="uni210A" unicode="&#x210a;" horiz-adv-x="577" 
d="M552 372q-45 -2 -69 -21q5 -22 5 -40v-43q0 -46 -23.5 -84t-71 -61t-115.5 -23q-37 0 -69 8q-4 -5 -4 -15q0 -13 12 -21.5t43 -10.5l94 -7q99 -7 146 -39t47 -101q0 -70 -63 -112t-190 -42q-254 0 -254 146q0 36 18 65t49 47q-22 27 -22 63q0 47 29 81q-36 44 -36 106v43
q0 46 22.5 84t67.5 61t110 23q102 0 158 -51q19 28 47 41t69 13v-110zM358 311q0 29 -20.5 48.5t-59.5 19.5t-59.5 -19.5t-20.5 -48.5v-43q0 -29 20.5 -48.5t59.5 -19.5t59.5 19.5t20.5 48.5v43zM189 -33q-19 -17 -19 -50q0 -32 32.5 -45.5t94.5 -13.5q59 0 89.5 13t30.5 36
q0 21 -18.5 29t-53.5 11l-80 6q-38 3 -76 14z" />
    <glyph glyph-name="zero" unicode="0" horiz-adv-x="622" 
d="M121 56.5q-66 68.5 -66 196.5v204q0 123 66 189t190 66t190 -66t66 -189v-204q0 -128 -66 -196.5t-190 -68.5t-190 68.5zM404.5 130.5q32.5 42.5 32.5 122.5v204q0 75 -32.5 115t-93.5 40t-93.5 -40t-32.5 -115v-204q0 -80 32.5 -122.5t93.5 -42.5t93.5 42.5z" />
    <glyph glyph-name="one" unicode="1" horiz-adv-x="418" 
d="M333 700v-700h-130v583l-161 -94v114l166 97h125z" />
    <glyph glyph-name="two" unicode="2" horiz-adv-x="596" 
d="M555 100v-100h-514v96l201 176q68 59 102.5 96.5t48.5 67.5t14 65q0 52 -39 80.5t-97 28.5q-101 0 -161 -75l-56 90q48 49 104 67t123 18q108 0 182 -47.5t74 -161.5q0 -118 -138 -240l-182 -161h338z" />
    <glyph glyph-name="three" unicode="3" horiz-adv-x="626" 
d="M531.5 305.5q39.5 -43.5 39.5 -113.5q0 -62 -33.5 -108t-96 -71t-147.5 -25q-164 0 -251 107l74 75q41 -42 78.5 -62t98.5 -20q68 0 107.5 28.5t39.5 75.5q0 123 -184 123q-39 0 -76 -4l-14 83q98 3 153 15t79 37t24 67q0 47 -39 73t-97 26q-101 0 -161 -75l-56 90
q48 49 104 67t123 18q108 0 182 -45t74 -154q0 -52 -32 -90.5t-90 -57.5q61 -16 100.5 -59.5z" />
    <glyph glyph-name="four" unicode="4" horiz-adv-x="655" 
d="M411 134h-348l-43 92l348 474h163v-466h104v-100h-104v-134h-120v134zM411 234v353l-258 -353h258z" />
    <glyph glyph-name="five" unicode="5" horiz-adv-x="647" 
d="M163.5 9q-65.5 21 -118.5 86l73 75q38 -51 85 -66.5t106 -15.5q71 0 112 34t41 94q0 69 -42.5 100t-126.5 31q-62 0 -140 -19l-67 78l28 294h436v-100h-331l-13 -157q42 8 87 8q145 0 222 -60.5t77 -174.5q0 -106 -75.5 -167t-207.5 -61q-80 0 -145.5 21z" />
    <glyph glyph-name="six" unicode="6" horiz-adv-x="618" 
d="M461 406.5q55 -26.5 85 -76t30 -115.5q0 -69 -32 -120.5t-91.5 -79t-139.5 -27.5q-119 0 -191 68.5t-72 198.5q0 190 94.5 303t288.5 154l44 -94q-115 -21 -185 -78t-96 -153q57 46 136 46q74 0 129 -26.5zM410.5 121q35.5 33 35.5 94q0 57 -35 87.5t-98 30.5
q-83 0 -133 -65v-13q0 -71 32 -119t101 -48q62 0 97.5 33z" />
    <glyph glyph-name="seven" unicode="7" horiz-adv-x="570" 
d="M426 600h-371v100h453l47 -98q-95 -163 -165 -307t-123 -295h-137q102 269 296 600z" />
    <glyph glyph-name="eight" unicode="8" horiz-adv-x="598" 
d="M112 40.5q-67 52.5 -67 147.5q0 116 120 185q-96 50 -96 157q0 53 28.5 94.5t80.5 64.5t121 23q70 0 122 -23.5t80 -64.5t28 -94q0 -52 -26 -91.5t-72 -65.5q59 -26 90.5 -70.5t31.5 -114.5q0 -96 -68 -148t-186 -52q-120 0 -187 52.5zM399 530q0 41 -27 64t-73 23
q-47 0 -73.5 -23t-26.5 -64q0 -76 85 -100l18 -5q97 32 97 105zM390.5 111q32.5 27 32.5 77t-26.5 77t-79.5 42l-34 10q-108 -42 -108 -129q0 -50 33 -77t91 -27q59 0 91.5 27z" />
    <glyph glyph-name="nine" unicode="9" horiz-adv-x="618" 
d="M496.5 643.5q71.5 -68.5 71.5 -198.5q0 -191 -94.5 -304t-288.5 -153l-44 94q115 21 185 78t96 153q-57 -46 -136 -46q-74 0 -129 26.5t-85 76t-30 115.5q0 69 32 120.5t91.5 79t139.5 27.5q120 0 191.5 -68.5zM438 432v13q0 71 -32 119t-101 48q-62 0 -97.5 -33
t-35.5 -94q0 -57 35 -87.5t98 -30.5q83 0 133 65z" />
    <glyph glyph-name="uni2080" unicode="&#x2080;" horiz-adv-x="397" 
d="M77.5 5q-42.5 41 -42.5 118v123q0 74 42.5 113t121.5 39q78 0 120.5 -39.5t42.5 -112.5v-123q0 -76 -42.5 -117.5t-120.5 -41.5q-79 0 -121.5 41zM249.5 60.5q17.5 21.5 17.5 62.5v123q0 37 -17.5 57t-50.5 20t-51 -20t-18 -57v-123q0 -41 18 -62.5t51 -21.5t50.5 21.5z
" />
    <glyph glyph-name="uni2081" unicode="&#x2081;" horiz-adv-x="324" 
d="M239 392v-422h-95v331l-102 -59v86l110 64h87z" />
    <glyph glyph-name="uni2082" unicode="&#x2082;" horiz-adv-x="399" 
d="M41 45l111 95q45 38 64 56.5t27.5 34.5t8.5 36q0 26 -20 41t-46 15q-61 0 -96 -41l-41 65q29 30 63 40.5t74 10.5q68 0 114.5 -29.5t46.5 -101.5t-81 -140l-96 -82h188v-75h-317v75z" />
    <glyph glyph-name="uni2083" unicode="&#x2083;" horiz-adv-x="419" 
d="M340.5 155q23.5 -26 23.5 -68q0 -56 -45.5 -89.5t-124.5 -33.5q-99 0 -151 64l52 58q23 -24 44 -35.5t55 -11.5q35 0 55 13t20 35q0 67 -97 67q-19 0 -42 -3l-12 65q79 2 109 14.5t30 43.5q0 23 -18.5 36t-42.5 13q-30 0 -53.5 -7.5t-42.5 -28.5l-42 58q29 31 63 42
t75 11q66 0 111 -27.5t45 -92.5q0 -31 -18.5 -54t-52.5 -34q36 -9 59.5 -35z" />
    <glyph glyph-name="uni2084" unicode="&#x2084;" horiz-adv-x="419" 
d="M254 41h-199l-35 73l205 278h114v-276h60v-75h-60v-71h-85v71zM254 116v190l-141 -190h141z" />
    </font>
</defs>
</svg>
